<svg width="27" height="30" viewBox="0 0 27 30" fill="none" xmlns="http://www.w3.org/2000/svg">
<g clip-path="url(#clip0_20_763)">
<path d="M0.820717 23.6803H4.28827V15.6131C4.28827 11.979 5.27415 8.6823 6.86853 6.29116C7.50062 5.34302 8.22852 4.53597 9.02982 3.9028C7.29779 4.53046 5.74472 5.53119 4.46775 6.80815C2.21453 9.06146 0.820717 12.1747 0.820717 15.6131V23.6803ZM26.5442 26.4693C26.4632 26.4693 26.3839 26.4933 26.3165 26.5383C26.2491 26.5834 26.1966 26.6474 26.1655 26.7223C26.1345 26.7972 26.1264 26.8796 26.1422 26.9591C26.158 27.0386 26.197 27.1116 26.2543 27.169C26.3117 27.2263 26.3847 27.2653 26.4642 27.2811C26.5437 27.297 26.6261 27.2888 26.701 27.2578C26.7759 27.2268 26.8399 27.1743 26.885 27.1069C26.93 27.0395 26.9541 26.9602 26.9541 26.8791C26.9541 26.7705 26.9109 26.6662 26.834 26.5893C26.7572 26.5125 26.6529 26.4693 26.5442 26.4693ZM26.5442 27.8247C26.4632 27.8247 26.3839 27.8487 26.3165 27.8937C26.2491 27.9388 26.1966 28.0028 26.1655 28.0777C26.1345 28.1526 26.1264 28.235 26.1422 28.3145C26.158 28.394 26.197 28.467 26.2543 28.5244C26.3117 28.5817 26.3847 28.6207 26.4642 28.6365C26.5437 28.6524 26.6261 28.6443 26.701 28.6132C26.7759 28.5822 26.8399 28.5297 26.885 28.4623C26.93 28.3949 26.9541 28.3156 26.9541 28.2346C26.9541 28.1259 26.9109 28.0216 26.834 27.9448C26.7572 27.8679 26.6529 27.8247 26.5442 27.8247ZM26.5442 29.1801C26.4632 29.1801 26.3839 29.2041 26.3165 29.2492C26.2491 29.2942 26.1966 29.3582 26.1655 29.4331C26.1345 29.508 26.1264 29.5904 26.1422 29.6699C26.158 29.7494 26.197 29.8224 26.2543 29.8798C26.3117 29.9371 26.3847 29.9761 26.4642 29.992C26.5437 30.0078 26.6261 29.9997 26.701 29.9686C26.7759 29.9376 26.8399 29.8851 26.885 29.8177C26.93 29.7503 26.9541 29.671 26.9541 29.59C26.9541 29.4813 26.9109 29.377 26.834 29.3002C26.7572 29.2233 26.6529 29.1801 26.5442 29.1801ZM0.410894 26.4693C0.329827 26.4693 0.250579 26.4933 0.18317 26.5383C0.115761 26.5834 0.0632191 26.6474 0.0321898 26.7223C0.00116046 26.7972 -0.00696306 26.8796 0.00884654 26.9591C0.0246561 27.0386 0.0636888 27.1116 0.121008 27.169C0.178328 27.2263 0.25136 27.2653 0.330868 27.2811C0.410376 27.297 0.49279 27.2888 0.567686 27.2578C0.642583 27.2268 0.706599 27.1743 0.751638 27.1069C0.796677 27.0395 0.820717 26.9602 0.820717 26.8791C0.820717 26.7705 0.777541 26.6662 0.700686 26.5893C0.62383 26.5125 0.51959 26.4693 0.410894 26.4693ZM0.410894 27.8247C0.329827 27.8247 0.250579 27.8487 0.18317 27.8937C0.115761 27.9388 0.0632191 28.0028 0.0321898 28.0777C0.00116046 28.1526 -0.00696306 28.235 0.00884654 28.3145C0.0246561 28.394 0.0636888 28.467 0.121008 28.5244C0.178328 28.5817 0.25136 28.6207 0.330868 28.6365C0.410376 28.6524 0.49279 28.6443 0.567686 28.6132C0.642583 28.5822 0.706599 28.5297 0.751638 28.4623C0.796677 28.3949 0.820717 28.3156 0.820717 28.2346C0.820717 28.1259 0.777541 28.0216 0.700686 27.9448C0.62383 27.8679 0.51959 27.8247 0.410894 27.8247ZM0.410894 29.1801C0.329827 29.1801 0.250579 29.2041 0.18317 29.2492C0.115761 29.2942 0.0632191 29.3582 0.0321898 29.4331C0.00116046 29.508 -0.00696306 29.5904 0.00884654 29.6699C0.0246561 29.7494 0.0636888 29.8224 0.121008 29.8798C0.178328 29.9371 0.25136 29.9761 0.330868 29.992C0.410376 30.0078 0.49279 29.9997 0.567686 29.9686C0.642583 29.9376 0.706599 29.8851 0.751638 29.8177C0.796677 29.7503 0.820717 29.671 0.820717 29.59C0.820717 29.4813 0.777541 29.377 0.700686 29.3002C0.62383 29.2233 0.51959 29.1801 0.410894 29.1801ZM21.5577 26.4693C21.4767 26.4693 21.3974 26.4933 21.33 26.5383C21.2626 26.5834 21.21 26.6474 21.179 26.7223C21.148 26.7972 21.1399 26.8796 21.1557 26.9591C21.1715 27.0386 21.2105 27.1116 21.2678 27.169C21.3252 27.2263 21.3982 27.2653 21.4777 27.2811C21.5572 27.297 21.6396 27.2888 21.7145 27.2578C21.7894 27.2268 21.8534 27.1743 21.8985 27.1069C21.9435 27.0395 21.9675 26.9602 21.9675 26.8791C21.9675 26.7705 21.9244 26.6662 21.8475 26.5893C21.7707 26.5125 21.6664 26.4693 21.5577 26.4693ZM21.5577 27.8247C21.4767 27.8247 21.3974 27.8487 21.33 27.8937C21.2626 27.9388 21.21 28.0028 21.179 28.0777C21.148 28.1526 21.1399 28.235 21.1557 28.3145C21.1715 28.394 21.2105 28.467 21.2678 28.5244C21.3252 28.5817 21.3982 28.6207 21.4777 28.6365C21.5572 28.6524 21.6396 28.6443 21.7145 28.6132C21.7894 28.5822 21.8534 28.5297 21.8985 28.4623C21.9435 28.3949 21.9675 28.3156 21.9675 28.2346C21.9675 28.1259 21.9244 28.0216 21.8475 27.9448C21.7707 27.8679 21.6664 27.8247 21.5577 27.8247ZM21.5577 29.1801C21.4767 29.1801 21.3974 29.2041 21.33 29.2492C21.2626 29.2942 21.21 29.3582 21.179 29.4331C21.148 29.508 21.1399 29.5904 21.1557 29.6699C21.1715 29.7494 21.2105 29.8224 21.2678 29.8798C21.3252 29.9371 21.3982 29.9761 21.4777 29.992C21.5572 30.0078 21.6396 29.9997 21.7145 29.9686C21.7894 29.9376 21.8534 29.8851 21.8985 29.8177C21.9435 29.7503 21.9675 29.671 21.9675 29.59C21.9675 29.4813 21.9244 29.377 21.8475 29.3002C21.7707 29.2233 21.6664 29.1801 21.5577 29.1801ZM17.2701 26.4693C17.1891 26.4693 17.1098 26.4933 17.0424 26.5383C16.975 26.5834 16.9225 26.6474 16.8914 26.7223C16.8604 26.7972 16.8523 26.8796 16.8681 26.9591C16.8839 27.0386 16.9229 27.1116 16.9803 27.169C17.0376 27.2263 17.1106 27.2653 17.1901 27.2811C17.2696 27.297 17.352 27.2888 17.4269 27.2578C17.5018 27.2268 17.5659 27.1743 17.6109 27.1069C17.6559 27.0395 17.68 26.9602 17.68 26.8791C17.68 26.8253 17.6694 26.772 17.6488 26.7223C17.6281 26.6725 17.5979 26.6273 17.5599 26.5893C17.5218 26.5512 17.4766 26.521 17.4269 26.5004C17.3771 26.4799 17.3238 26.4693 17.27 26.4693H17.2701ZM17.2701 27.8247C17.1891 27.8247 17.1098 27.8487 17.0424 27.8937C16.975 27.9388 16.9225 28.0028 16.8914 28.0777C16.8604 28.1526 16.8523 28.235 16.8681 28.3145C16.8839 28.394 16.9229 28.467 16.9803 28.5244C17.0376 28.5817 17.1106 28.6207 17.1901 28.6365C17.2696 28.6524 17.352 28.6443 17.4269 28.6132C17.5018 28.5822 17.5659 28.5297 17.6109 28.4623C17.6559 28.3949 17.68 28.3156 17.68 28.2346C17.68 28.1807 17.6694 28.1274 17.6488 28.0777C17.6281 28.0279 17.5979 27.9827 17.5599 27.9447C17.5218 27.9066 17.4766 27.8764 17.4269 27.8558C17.3771 27.8353 17.3238 27.8247 17.27 27.8247H17.2701ZM17.2701 29.1801C17.1891 29.1801 17.1098 29.2041 17.0424 29.2492C16.975 29.2942 16.9225 29.3582 16.8914 29.4331C16.8604 29.508 16.8523 29.5904 16.8681 29.6699C16.8839 29.7494 16.9229 29.8224 16.9803 29.8798C17.0376 29.9371 17.1106 29.9761 17.1901 29.992C17.2696 30.0078 17.352 29.9997 17.4269 29.9686C17.5018 29.9376 17.5659 29.8851 17.6109 29.8177C17.6559 29.7503 17.68 29.671 17.68 29.59C17.68 29.4813 17.6368 29.377 17.5599 29.3002C17.4831 29.2233 17.3788 29.1801 17.2701 29.1801ZM13.2727 26.4693C13.1917 26.4693 13.1124 26.4933 13.045 26.5384C12.9776 26.5834 12.9251 26.6474 12.8941 26.7223C12.863 26.7972 12.8549 26.8796 12.8707 26.9591C12.8865 27.0386 12.9256 27.1116 12.9829 27.169C13.0402 27.2263 13.1133 27.2653 13.1928 27.2811C13.2723 27.297 13.3547 27.2888 13.4296 27.2578C13.5045 27.2268 13.5685 27.1743 13.6135 27.1069C13.6586 27.0395 13.6826 26.9602 13.6826 26.8791C13.6826 26.8253 13.672 26.772 13.6514 26.7223C13.6308 26.6725 13.6006 26.6273 13.5625 26.5893C13.5244 26.5512 13.4792 26.521 13.4294 26.5004C13.3797 26.4798 13.3264 26.4693 13.2725 26.4693H13.2727ZM13.2727 27.8247C13.1917 27.8247 13.1124 27.8487 13.045 27.8938C12.9776 27.9388 12.9251 28.0028 12.8941 28.0777C12.863 28.1526 12.8549 28.235 12.8707 28.3145C12.8865 28.394 12.9256 28.4671 12.9829 28.5244C13.0402 28.5817 13.1133 28.6207 13.1928 28.6366C13.2723 28.6524 13.3547 28.6443 13.4296 28.6132C13.5045 28.5822 13.5685 28.5297 13.6135 28.4623C13.6586 28.3949 13.6826 28.3156 13.6826 28.2346C13.6826 28.1807 13.672 28.1274 13.6514 28.0777C13.6308 28.0279 13.6006 27.9827 13.5625 27.9447C13.5244 27.9066 13.4792 27.8764 13.4294 27.8558C13.3797 27.8352 13.3264 27.8247 13.2725 27.8247H13.2727ZM13.2727 29.1801C13.1917 29.1801 13.1124 29.2041 13.045 29.2492C12.9776 29.2942 12.9251 29.3582 12.8941 29.4331C12.863 29.508 12.8549 29.5904 12.8707 29.6699C12.8865 29.7494 12.9256 29.8225 12.9829 29.8798C13.0402 29.9371 13.1133 29.9761 13.1928 29.992C13.2723 30.0078 13.3547 29.9997 13.4296 29.9686C13.5045 29.9376 13.5685 29.8851 13.6135 29.8177C13.6586 29.7503 13.6826 29.671 13.6826 29.59C13.6826 29.5361 13.672 29.4828 13.6514 29.4331C13.6308 29.3834 13.6006 29.3382 13.5625 29.3001C13.5245 29.2621 13.4793 29.2319 13.4296 29.2113C13.3798 29.1907 13.3265 29.1801 13.2727 29.1801ZM8.98552 26.4693C8.90446 26.4693 8.82521 26.4933 8.7578 26.5383C8.69039 26.5834 8.63785 26.6474 8.60682 26.7223C8.57579 26.7972 8.56767 26.8796 8.58348 26.9591C8.59929 27.0386 8.63832 27.1116 8.69564 27.169C8.75296 27.2263 8.82599 27.2653 8.9055 27.2811C8.98501 27.297 9.06742 27.2888 9.14232 27.2578C9.21721 27.2268 9.28123 27.1743 9.32627 27.1069C9.37131 27.0395 9.39535 26.9602 9.39535 26.8791C9.39535 26.8253 9.38474 26.772 9.36413 26.7223C9.34353 26.6725 9.31332 26.6273 9.27525 26.5893C9.23717 26.5512 9.19197 26.521 9.14223 26.5004C9.09249 26.4799 9.03917 26.4693 8.98534 26.4693H8.98552ZM8.98552 27.8247C8.90446 27.8247 8.82521 27.8487 8.7578 27.8937C8.69039 27.9388 8.63785 28.0028 8.60682 28.0777C8.57579 28.1526 8.56767 28.235 8.58348 28.3145C8.59929 28.394 8.63832 28.467 8.69564 28.5244C8.75296 28.5817 8.82599 28.6207 8.9055 28.6365C8.98501 28.6524 9.06742 28.6443 9.14232 28.6132C9.21721 28.5822 9.28123 28.5297 9.32627 28.4623C9.37131 28.3949 9.39535 28.3156 9.39535 28.2346C9.39535 28.1807 9.38474 28.1274 9.36413 28.0777C9.34353 28.0279 9.31332 27.9827 9.27525 27.9447C9.23717 27.9066 9.19197 27.8764 9.14223 27.8558C9.09249 27.8353 9.03917 27.8247 8.98534 27.8247H8.98552ZM8.98552 29.1801C8.90446 29.1801 8.82521 29.2041 8.7578 29.2492C8.69039 29.2942 8.63785 29.3582 8.60682 29.4331C8.57579 29.508 8.56767 29.5904 8.58348 29.6699C8.59929 29.7494 8.63832 29.8224 8.69564 29.8798C8.75296 29.9371 8.82599 29.9761 8.9055 29.992C8.98501 30.0078 9.06742 29.9997 9.14232 29.9686C9.21721 29.9376 9.28123 29.8851 9.32627 29.8177C9.37131 29.7503 9.39535 29.671 9.39535 29.59C9.39535 29.4813 9.35217 29.377 9.27532 29.3002C9.19846 29.2233 9.09422 29.1801 8.98552 29.1801ZM4.69809 26.4693C4.61703 26.4693 4.53778 26.4933 4.47038 26.5384C4.40298 26.5834 4.35044 26.6474 4.31942 26.7223C4.2884 26.7972 4.28028 26.8796 4.2961 26.9591C4.31191 27.0386 4.35095 27.1116 4.40827 27.169C4.46559 27.2263 4.53862 27.2653 4.61813 27.2811C4.69764 27.297 4.78005 27.2888 4.85494 27.2578C4.92984 27.2268 4.99385 27.1743 5.03889 27.1069C5.08392 27.0395 5.10796 26.9602 5.10796 26.8791C5.10796 26.7704 5.06478 26.6662 4.98791 26.5893C4.91105 26.5125 4.8068 26.4693 4.69809 26.4693ZM4.69809 27.8247C4.61703 27.8247 4.53778 27.8487 4.47038 27.8938C4.40298 27.9388 4.35044 28.0028 4.31942 28.0777C4.2884 28.1526 4.28028 28.235 4.2961 28.3145C4.31191 28.394 4.35095 28.4671 4.40827 28.5244C4.46559 28.5817 4.53862 28.6207 4.61813 28.6366C4.69764 28.6524 4.78005 28.6443 4.85494 28.6132C4.92984 28.5822 4.99385 28.5297 5.03889 28.4623C5.08392 28.3949 5.10796 28.3156 5.10796 28.2346C5.10796 28.1259 5.06478 28.0216 4.98791 27.9447C4.91105 27.8679 4.8068 27.8247 4.69809 27.8247ZM4.69809 29.1801C4.61703 29.1801 4.53778 29.2041 4.47038 29.2492C4.40298 29.2942 4.35044 29.3582 4.31942 29.4331C4.2884 29.508 4.28028 29.5904 4.2961 29.6699C4.31191 29.7494 4.35095 29.8225 4.40827 29.8798C4.46559 29.9371 4.53862 29.9761 4.61813 29.992C4.69764 30.0078 4.78005 29.9997 4.85494 29.9686C4.92984 29.9376 4.99385 29.8851 5.03889 29.8177C5.08392 29.7503 5.10796 29.671 5.10796 29.59C5.10796 29.5361 5.09736 29.4828 5.07676 29.4331C5.05616 29.3834 5.02597 29.3382 4.98791 29.3001C4.94985 29.2621 4.90467 29.2319 4.85494 29.2113C4.80521 29.1907 4.75192 29.1801 4.69809 29.1801ZM12.8629 2.34786V0.409744C12.8641 0.301808 12.9078 0.198686 12.9845 0.12277C13.0613 0.0468535 13.1648 0.00427246 13.2728 0.00427246C13.3807 0.00427246 13.4843 0.0468535 13.5611 0.12277C13.6378 0.198686 13.6815 0.301808 13.6826 0.409744V2.34786C17.1844 2.45409 20.3453 3.91686 22.6573 6.22875C25.0588 8.63041 26.5442 11.9483 26.5442 15.6131V24.5001H26.5112C26.4249 25.0283 26.1748 25.516 25.796 25.8942L25.7945 25.8957C25.3319 26.358 24.6938 26.6437 23.9906 26.6437C23.2858 26.6437 22.6473 26.3578 22.1852 25.8957C22.0581 25.7681 21.9447 25.6276 21.8468 25.4764C21.7491 25.6271 21.6358 25.7671 21.5089 25.8942L21.5073 25.8957C21.0447 26.358 20.4066 26.6437 19.7034 26.6437C18.9986 26.6437 18.3601 26.3578 17.898 25.8957C17.7709 25.7681 17.6574 25.6276 17.5596 25.4764C17.4618 25.6271 17.3486 25.7671 17.2216 25.8942L17.2201 25.8957C16.7574 26.358 16.1194 26.6437 15.4162 26.6437C14.7114 26.6437 14.0728 26.3578 13.6107 25.8957C13.4837 25.768 13.3703 25.6275 13.2723 25.4764C13.1743 25.6273 13.0608 25.7676 12.9336 25.8949C12.6971 26.1327 12.4159 26.3213 12.1062 26.4498C11.7964 26.5783 11.4643 26.6442 11.129 26.6437C10.4259 26.6437 9.78786 26.3578 9.32506 25.8957L9.32355 25.8942C9.19651 25.767 9.08312 25.6268 8.98524 25.476C8.88724 25.6271 8.77365 25.7675 8.64636 25.8949C8.40989 26.1327 8.12868 26.3213 7.81894 26.4498C7.5092 26.5783 7.17708 26.6442 6.84174 26.6437C6.13856 26.6437 5.50052 26.3578 5.03786 25.8957L5.03631 25.8942C4.90928 25.767 4.79591 25.6268 4.69804 25.476C4.60002 25.6271 4.48643 25.7675 4.35912 25.8949C4.12266 26.1327 3.84145 26.3212 3.53172 26.4498C3.22199 26.5783 2.88988 26.6442 2.55454 26.6437C1.85145 26.6437 1.21342 26.3578 0.750621 25.8957L0.749111 25.8942C0.370382 25.516 0.12022 25.0282 0.0340437 24.4999H0.00102392V15.6129C0.00102392 11.9483 1.48692 8.63032 3.88835 6.22875C6.20011 3.91686 9.3611 2.45409 12.8629 2.34786ZM22.3052 24.4999C22.3798 24.8089 22.5382 25.0913 22.763 25.316H22.7645C23.0898 25.6409 23.5306 25.8235 23.9903 25.8237C24.4499 25.824 24.891 25.642 25.2166 25.3175L25.2182 25.316C25.443 25.0913 25.6014 24.8089 25.676 24.4999H22.3052ZM18.018 24.4999C18.0925 24.8089 18.251 25.0913 18.4758 25.316H18.4774C18.8026 25.6409 19.2434 25.8235 19.7031 25.8237C20.1627 25.824 20.6038 25.642 20.9294 25.3175L20.9309 25.316C21.1558 25.0913 21.3142 24.8089 21.3888 24.4999H18.018ZM13.7308 24.4999C13.8053 24.8089 13.9638 25.0913 14.1886 25.316H14.1901C14.5153 25.6409 14.9561 25.8235 15.4158 25.8237C15.8755 25.824 16.3165 25.642 16.6422 25.3175L16.6437 25.316C16.8686 25.0913 17.027 24.8089 17.1016 24.4999H13.7308ZM9.44351 24.4999C9.51809 24.8089 9.67654 25.0913 9.9014 25.316L9.90291 25.3175C10.2285 25.642 10.6696 25.824 11.1292 25.8237C11.5889 25.8235 12.0297 25.6409 12.355 25.316H12.3565C12.5813 25.0913 12.7398 24.8089 12.8143 24.4999H9.44351ZM5.15631 24.4999C5.23088 24.8089 5.38931 25.0913 5.61415 25.316L5.61566 25.3175C5.94129 25.642 6.38232 25.824 6.842 25.8237C7.30169 25.8235 7.74249 25.6409 8.06771 25.316H8.06927C8.29411 25.0913 8.45255 24.8089 8.52711 24.4999H5.15631ZM0.869067 24.4999C0.94365 24.8089 1.1021 25.0913 1.32696 25.316L1.32847 25.3175C1.65409 25.642 2.09512 25.824 2.5548 25.8237C3.01449 25.8235 3.45529 25.6409 3.78052 25.316H3.78203C4.00688 25.0913 4.16532 24.8089 4.23987 24.4999H0.869067ZM13.6826 3.23745V23.6803H17.1501V15.6131C17.1501 12.1019 16.6788 8.93231 15.917 6.64654C15.2992 4.79324 14.5182 3.54845 13.6826 3.23745ZM12.8629 23.6803V3.23745C12.0272 3.54845 11.2462 4.79324 10.6287 6.64631C9.86673 8.93207 9.39539 12.1018 9.39539 15.613V23.6803H12.8629ZM8.57547 23.6803V15.6131C8.57547 12.021 9.06402 8.75919 9.8538 6.39022C10.2483 5.20693 10.726 4.23724 11.2659 3.54369C9.84399 4.09615 8.56735 5.22052 7.55062 6.7457C6.04157 9.00924 5.10806 12.1441 5.10806 15.6131V23.6803H8.57547ZM15.2795 3.54369C15.8195 4.2371 16.2972 5.20679 16.6917 6.39031C17.4813 8.75947 17.9701 12.021 17.9701 15.6131V23.6803H21.4375V15.6131C21.4375 12.1442 20.504 9.00948 18.9949 6.7457C17.9779 5.22038 16.7015 4.09601 15.2798 3.54369H15.2795ZM22.2572 23.6803H25.7247V15.6131C25.7247 12.1744 24.3309 9.06132 22.0777 6.80815C20.8008 5.53128 19.2474 4.53055 17.5157 3.90294C18.3171 4.53607 19.0451 5.34335 19.6769 6.29116C21.271 8.68239 22.2572 11.9788 22.2572 15.6131V23.6803Z" fill="#222222"/>
</g>
<defs>
<clipPath id="clip0_20_763">
<rect width="26.9532" height="30" fill="white"/>
</clipPath>
</defs>
</svg>
