<svg width="30" height="30" viewBox="0 0 30 30" fill="none" xmlns="http://www.w3.org/2000/svg">
<path d="M13.875 10.9605C13.635 11.2365 13.5 11.6175 13.5 12C13.5 12.1989 13.421 12.3897 13.2803 12.5303C13.1397 12.671 12.9489 12.75 12.75 12.75C12.5511 12.75 12.3603 12.671 12.2197 12.5303C12.079 12.3897 12 12.1989 12 12C12 11.2905 12.2415 10.545 12.75 9.969C13.2705 9.378 14.04 9 15 9C15.96 9 16.7295 9.378 17.25 9.969C17.7585 10.5465 18 11.289 18 12C18 12.735 17.826 13.305 17.547 13.785C17.3025 14.2035 16.983 14.535 16.7295 14.8005L16.6665 14.865C16.3875 15.1575 16.173 15.396 16.0155 15.696C15.8655 15.9825 15.75 16.362 15.75 16.9395C15.75 17.1384 15.671 17.3292 15.5303 17.4698C15.3897 17.6105 15.1989 17.6895 15 17.6895C14.8011 17.6895 14.6103 17.6105 14.4697 17.4698C14.329 17.3292 14.25 17.1384 14.25 16.9395C14.25 16.1415 14.415 15.519 14.6865 15C14.952 14.4945 15.3015 14.124 15.5835 13.8285L15.6165 13.794C15.8985 13.4985 16.0995 13.2885 16.251 13.029C16.3935 12.7845 16.5 12.4755 16.5 12C16.5 11.6175 16.3665 11.235 16.125 10.9605C15.8955 10.701 15.54 10.5 15 10.5C14.46 10.5 14.1045 10.701 13.875 10.9605ZM15 21.318C15.1411 21.3233 15.2819 21.3001 15.4139 21.2498C15.5458 21.1995 15.6663 21.1231 15.768 21.0251C15.8697 20.9271 15.9506 20.8097 16.0059 20.6797C16.0612 20.5498 16.0897 20.41 16.0897 20.2687C16.0897 20.1275 16.0612 19.9877 16.0059 19.8578C15.9506 19.7278 15.8697 19.6103 15.768 19.5124C15.6663 19.4144 15.5458 19.338 15.4139 19.2877C15.2819 19.2373 15.1411 19.2142 15 19.2195C14.7215 19.2195 14.4545 19.3301 14.2576 19.527C14.0606 19.7239 13.95 19.991 13.95 20.2695C13.95 20.548 14.0606 20.815 14.2576 21.012C14.4545 21.2089 14.7215 21.3195 15 21.3195V21.318ZM3.00001 15C3.00067 12.3777 3.86025 9.82786 5.44729 7.74038C7.03433 5.6529 9.26146 4.14273 11.788 3.44084C14.3146 2.73896 17.0016 2.884 19.4379 3.85378C21.8743 4.82357 23.9259 6.5647 25.279 8.81089C26.6321 11.0571 27.2122 13.6847 26.9306 16.2918C26.649 18.8989 25.5211 21.342 23.7196 23.2474C21.918 25.1528 19.5419 26.4156 16.9546 26.8427C14.3674 27.2699 11.7114 26.8378 9.39301 25.6125L3.93301 26.9775C3.80735 27.0091 3.67565 27.0076 3.55075 26.9731C3.42584 26.9387 3.31199 26.8724 3.2203 26.7809C3.1286 26.6893 3.06219 26.5756 3.02752 26.4508C2.99286 26.3259 2.99114 26.1942 3.02251 26.0685L4.38751 20.607C3.47355 18.8795 2.99714 16.9543 3.00001 15ZM15 4.5C13.1676 4.49944 11.3669 4.97844 9.77695 5.8894C8.18699 6.80035 6.86311 8.11155 5.93689 9.69266C5.01066 11.2738 4.51435 13.0698 4.49727 14.9021C4.48018 16.7345 4.94293 18.5394 5.83951 20.1375C5.93367 20.3042 5.96051 20.5006 5.91451 20.6865L4.78051 25.2195L9.31351 24.0855C9.49938 24.0395 9.6958 24.0663 9.86251 24.1605C11.2624 24.9447 12.8234 25.3977 14.4256 25.4846C16.0279 25.5715 17.6287 25.29 19.1052 24.6618C20.5817 24.0336 21.8946 23.0753 22.943 21.8606C23.9914 20.6459 24.7475 19.2071 25.1532 17.6546C25.5589 16.1022 25.6033 14.4774 25.2832 12.9051C24.963 11.3327 24.2868 9.85469 23.3064 8.58445C22.326 7.31422 21.0675 6.28558 19.6276 5.57753C18.1876 4.86948 16.6046 4.50087 15 4.5Z" fill="#222222"/>
</svg>
