<svg width="21" height="30" viewBox="0 0 21 30" fill="none" xmlns="http://www.w3.org/2000/svg">
<g clip-path="url(#clip0_20_695)">
<path d="M5.31918 0H15.6106C15.7189 3.73828e-05 15.8228 0.0430901 15.8994 0.119696C15.9761 0.196303 16.0191 0.300194 16.0192 0.408538V2.4153C16.0191 2.52364 15.9761 2.62753 15.8994 2.70414C15.8228 2.78075 15.7189 2.8238 15.6106 2.82384H5.31918C5.21084 2.8238 5.10695 2.78075 5.03034 2.70414C4.95374 2.62753 4.91068 2.52364 4.91064 2.4153V0.408538C4.91068 0.300198 4.95374 0.196307 5.03034 0.119699C5.10695 0.0430916 5.21084 3.73907e-05 5.31918 0V0ZM15.202 0.817122H5.72763V2.00681H15.202V0.817122Z" fill="#222222"/>
<path d="M0.408538 11.401H20.5209C20.6293 11.401 20.7332 11.4441 20.8098 11.5207C20.8864 11.5973 20.9295 11.7012 20.9295 11.8095V13.8163C20.9295 13.9246 20.8864 14.0285 20.8098 14.1051C20.7332 14.1817 20.6293 14.2248 20.5209 14.2248H0.408538C0.300198 14.2248 0.196307 14.1817 0.119699 14.1051C0.0430916 14.0285 3.73907e-05 13.9246 0 13.8163L0 11.8095C3.73907e-05 11.7012 0.0430916 11.5973 0.119699 11.5207C0.196307 11.4441 0.300198 11.401 0.408538 11.401ZM20.1122 12.2181H0.817122V13.4078H20.1122V12.2181Z" fill="#222222"/>
<path d="M15.3646 2.82371H5.56451L1.08109 11.401H19.848L15.3646 2.82371ZM5.31891 2.00659H15.6102V2.00824C15.6846 2.00822 15.7575 2.0286 15.8211 2.06714C15.8847 2.10568 15.9365 2.16092 15.9709 2.22685L20.8644 11.5888C20.904 11.6505 20.9263 11.7218 20.9289 11.7951C20.9315 11.8684 20.9144 11.941 20.8792 12.0054C20.8441 12.0697 20.7923 12.1235 20.7292 12.1609C20.6662 12.1983 20.5942 12.2181 20.5209 12.2181H0.408375V12.2166C0.338407 12.2166 0.269624 12.1985 0.208666 12.1642C0.147708 12.1298 0.0966348 12.0804 0.0603762 12.0205C0.0241177 11.9607 0.00389867 11.8925 0.00167118 11.8226C-0.000556314 11.7526 0.0152829 11.6833 0.0476598 11.6213L4.94094 2.25991C4.97179 2.18501 5.02417 2.12095 5.09146 2.07585C5.15875 2.03076 5.23791 2.00665 5.31891 2.00659Z" fill="#222222"/>
<path d="M5.99942 3.94652C6.02386 3.89867 6.05755 3.85613 6.09852 3.82137C6.13949 3.7866 6.18695 3.76029 6.23814 3.74397C6.28934 3.72764 6.34326 3.72162 6.3968 3.72624C6.45033 3.73087 6.50242 3.74605 6.55006 3.77092C6.5977 3.79578 6.63993 3.82984 6.67434 3.87112C6.70874 3.9124 6.73463 3.96008 6.7505 4.01142C6.76638 4.06275 6.77193 4.11673 6.76683 4.17022C6.76173 4.22371 6.74609 4.27567 6.7208 4.32308L3.60787 10.2784C3.58342 10.3263 3.54974 10.3688 3.50877 10.4036C3.46779 10.4384 3.42034 10.4647 3.36914 10.481C3.31795 10.4973 3.26403 10.5033 3.21049 10.4987C3.15695 10.4941 3.10486 10.4789 3.05723 10.454C3.00959 10.4292 2.96735 10.3951 2.93295 10.3538C2.89854 10.3126 2.87266 10.2649 2.85678 10.2135C2.84091 10.1622 2.83536 10.1082 2.84046 10.0547C2.84556 10.0012 2.8612 9.94929 2.88648 9.90187L5.99942 3.94652Z" fill="#222222"/>
<path d="M10.4647 21.572C10.4107 21.5726 10.3571 21.5625 10.307 21.5422C10.2569 21.5219 10.2114 21.4919 10.173 21.4539C10.1346 21.4159 10.1041 21.3707 10.0833 21.3208C10.0625 21.271 10.0518 21.2175 10.0518 21.1635C10.0518 21.1095 10.0625 21.056 10.0833 21.0061C10.1041 20.9563 10.1346 20.911 10.173 20.873C10.2114 20.835 10.2569 20.805 10.307 20.7848C10.3571 20.7645 10.4107 20.7543 10.4647 20.7549C12.5113 20.7549 12.733 19.2573 12.966 17.6818C13.2246 15.9328 13.4956 14.1033 15.7164 13.5083C16.8031 13.2172 17.5989 13.5858 18.0649 14.1907C18.295 14.4894 18.4404 14.8468 18.4965 15.2093C18.5534 15.5761 18.5203 15.9512 18.394 16.2809C18.1579 16.8965 17.6201 17.3588 16.7613 17.3588C15.9631 17.3588 15.4934 17.0151 15.2829 16.5847C15.1552 16.3238 15.1282 16.0348 15.1841 15.7699C15.2406 15.5013 15.3822 15.2526 15.5901 15.0765C15.9186 14.7984 16.3942 14.6964 16.9415 14.9668C17.0378 15.0149 17.1112 15.0993 17.1455 15.2014C17.1798 15.3034 17.1723 15.415 17.1246 15.5115C17.077 15.6081 16.993 15.6819 16.8911 15.7167C16.7892 15.7516 16.6777 15.7447 16.5809 15.6975C16.374 15.5952 16.2141 15.6165 16.1168 15.6989C16.0489 15.7564 16.0017 15.8416 15.9819 15.9359C15.9613 16.0335 15.9699 16.1373 16.0139 16.2274C16.0993 16.4021 16.3305 16.5417 16.7615 16.5417C17.2252 16.5417 17.5108 16.3054 17.6314 15.9905C17.708 15.7908 17.7275 15.5608 17.6926 15.3338C17.6568 15.1027 17.5652 14.8764 17.4207 14.6888C17.1391 14.3234 16.6374 14.1064 15.9273 14.2966C14.2247 14.7527 13.9941 16.3106 13.7737 17.8C13.4872 19.7338 13.215 21.572 10.4647 21.572Z" fill="#222222"/>
<path d="M15.4821 30H5.03882V27.1759H15.8907V30H15.4821ZM5.85593 29.1829H15.0736V27.9929H5.85593V29.1829Z" fill="#222222"/>
<path d="M7.31006 27.5846C7.31006 26.7181 7.66503 25.9294 8.23725 25.3573C8.80792 24.7849 9.59683 24.4299 10.4646 24.4299C11.3313 24.4299 12.1198 24.7849 12.6922 25.3571C13.2645 25.9279 13.6193 26.7167 13.6193 27.5846V27.9932H7.31006V27.5846ZM8.81248 25.9341C8.47398 26.2718 8.24734 26.7053 8.16319 27.176H12.7663C12.6807 26.6964 12.4473 26.2658 12.1155 25.9339V25.9324C11.6928 25.5096 11.1084 25.2471 10.465 25.2471C9.82235 25.2471 9.2379 25.5104 8.81413 25.934L8.81248 25.9341Z" fill="#222222"/>
<path d="M10.0562 24.8385V13.8163H10.8733V24.8385H10.0562Z" fill="#222222"/>
<path d="M10.4647 20.7548C10.5723 20.756 10.6751 20.7995 10.7508 20.876C10.8264 20.9525 10.8689 21.0558 10.8689 21.1634C10.8689 21.271 10.8264 21.3743 10.7508 21.4507C10.6751 21.5272 10.5723 21.5708 10.4647 21.5719C7.71435 21.5719 7.44213 19.7336 7.15604 17.7997C6.93564 16.3103 6.705 14.7526 5.00238 14.2962C4.29233 14.1061 3.79059 14.323 3.50916 14.6883C3.36451 14.8759 3.27301 15.1024 3.23718 15.3334C3.20205 15.5603 3.22152 15.7905 3.29831 15.9901C3.41911 16.3052 3.7044 16.5414 4.16823 16.5414C4.59873 16.5414 4.82985 16.4022 4.91553 16.2277L4.91426 16.2271C4.95898 16.1356 4.96796 16.0319 4.94779 15.9355C4.92794 15.8415 4.88078 15.7562 4.81283 15.6985C4.71549 15.6162 4.55604 15.5951 4.3488 15.6972C4.25198 15.7443 4.14044 15.7512 4.03854 15.7164C3.93664 15.6815 3.85269 15.6078 3.80503 15.5112C3.75736 15.4146 3.74987 15.3031 3.78418 15.201C3.81849 15.0989 3.89182 15.0146 3.98814 14.9664C4.53558 14.696 5.01103 14.7981 5.33954 15.0761C5.54743 15.2523 5.68887 15.5012 5.74549 15.7695C5.80154 16.036 5.77502 16.325 5.64829 16.5844L5.64697 16.5838C5.43617 17.0148 4.96645 17.3585 4.16823 17.3585C3.30922 17.3585 2.77165 16.8961 2.5354 16.2805C2.40896 15.9509 2.37604 15.5756 2.43289 15.2089C2.48932 14.8463 2.63439 14.4891 2.86456 14.1903C3.33056 13.5854 4.12657 13.2169 5.213 13.5079C7.43381 14.1032 7.70461 15.9325 7.96343 17.6815C8.19619 19.2572 8.41814 20.7548 10.4647 20.7548Z" fill="#222222"/>
<path d="M18.9238 13.8163C18.925 13.7087 18.9685 13.6059 19.045 13.5302C19.1216 13.4546 19.2248 13.4121 19.3324 13.4121C19.4401 13.4121 19.5433 13.4546 19.6198 13.5302C19.6963 13.6059 19.7399 13.7087 19.7411 13.8163V20.9637C19.7399 21.0713 19.6963 21.1741 19.6198 21.2498C19.5433 21.3255 19.4401 21.3679 19.3324 21.3679C19.2248 21.3679 19.1216 21.3255 19.045 21.2498C18.9685 21.1741 18.925 21.0713 18.9238 20.9637V13.8163Z" fill="#222222"/>
<path d="M18.9239 22.374C18.9233 22.32 18.9334 22.2664 18.9537 22.2163C18.974 22.1663 19.004 22.1207 19.042 22.0823C19.0799 22.0439 19.1252 22.0134 19.175 21.9926C19.2249 21.9718 19.2784 21.9611 19.3324 21.9611C19.3864 21.9611 19.4399 21.9718 19.4898 21.9926C19.5396 22.0134 19.5849 22.0439 19.6229 22.0823C19.6609 22.1207 19.6909 22.1663 19.7111 22.2163C19.7314 22.2664 19.7415 22.32 19.741 22.374V23.428C19.7398 23.5356 19.6963 23.6384 19.6198 23.7141C19.5433 23.7898 19.44 23.8322 19.3324 23.8322C19.2248 23.8322 19.1215 23.7898 19.0451 23.7141C18.9686 23.6384 18.925 23.5356 18.9239 23.428V22.374Z" fill="#222222"/>
</g>
<defs>
<clipPath id="clip0_20_695">
<rect width="20.9293" height="30" fill="white"/>
</clipPath>
</defs>
</svg>
