<svg width="19" height="30" viewBox="0 0 19 30" fill="none" xmlns="http://www.w3.org/2000/svg">
<g clip-path="url(#clip0_20_758)">
<path d="M9.04481 27.5066H7.00776C7.08838 27.9062 7.28522 28.2731 7.57357 28.5612L7.57513 28.5627C7.96541 28.9518 8.49409 29.1701 9.04517 29.1698C9.59624 29.1696 10.1247 28.9507 10.5146 28.5612H10.5161C10.8045 28.2731 11.0013 27.9062 11.0819 27.5066H9.04481ZM4.46403 19.2392H13.6257C13.7087 17.3684 14.3735 15.5702 15.5275 14.0954C16.0862 13.3792 16.5219 12.5752 16.8168 11.7161C17.1041 10.8797 17.2604 9.98111 17.2604 9.04559C17.2604 6.77689 16.3408 4.72282 14.8544 3.2364C13.3679 1.74998 11.3136 0.830403 9.04481 0.830403C6.77605 0.830403 4.72221 1.74974 3.23559 3.23631C1.74898 4.72287 0.829678 6.77665 0.829678 9.04549C0.829678 9.98111 0.98571 10.8797 1.27319 11.716C1.56819 12.575 2.00391 13.3791 2.56254 14.0953C3.17852 14.8835 3.65919 15.7687 3.98489 16.7145C4.26426 17.5289 4.42561 18.3791 4.46403 19.2392ZM13.6164 20.0696H4.47337V21.0987H13.6164V20.0696ZM6.16235 27.4804C5.51836 27.3931 4.93897 27.0925 4.49866 26.6526L4.49715 26.651C3.97022 26.1236 3.64315 25.3967 3.64315 24.5983V19.6543C3.64315 18.7187 3.48703 17.8202 3.19964 16.9838C2.90462 16.1247 2.46885 15.3206 1.91015 14.6044C1.29971 13.8219 0.815524 12.9385 0.488032 11.9854C0.163506 11.0392 -0.00166005 10.0457 -0.000728503 9.04549C-0.000728503 6.54777 1.01185 4.28634 2.64879 2.64936C4.28573 1.01238 6.54708 0 9.04481 0C11.5425 0 13.8041 1.01257 15.441 2.64936C17.0778 4.28615 18.0903 6.54777 18.0903 9.04549C18.0937 11.0601 17.4208 13.0176 16.1795 14.6044C15.6208 15.3206 15.185 16.1247 14.89 16.9838C14.6028 17.8202 14.4467 18.7187 14.4467 19.6543V24.5983C14.4467 25.3967 14.1196 26.1236 13.5927 26.651L13.5912 26.6527C13.151 27.0925 12.5715 27.3931 11.9277 27.4804C11.8409 28.1268 11.5411 28.7067 11.1008 29.1472C10.8314 29.418 10.511 29.6328 10.1582 29.7792C9.8054 29.9256 9.42707 30.0006 9.04509 30C8.24394 30 7.51719 29.6744 6.99012 29.148L6.98861 29.1465C6.54868 28.706 6.24931 28.1265 6.16264 27.4804H6.16235ZM9.04481 2.41572C9.15493 2.41572 9.26054 2.45946 9.3384 2.53733C9.41627 2.61519 9.46001 2.7208 9.46001 2.83092C9.46001 2.94104 9.41627 3.04665 9.3384 3.12451C9.26054 3.20238 9.15493 3.24612 9.04481 3.24612C7.44288 3.24612 5.99297 3.89501 4.94354 4.94434C3.89412 5.99367 3.24541 7.44357 3.24541 9.04549C3.24279 10.3366 3.67284 11.5913 4.46691 12.6093C4.96052 13.2408 5.3865 13.9224 5.73785 14.6428C6.08785 15.3628 6.36104 16.1176 6.55288 16.8948C6.56649 16.9478 6.56946 17.003 6.56161 17.0572C6.55376 17.1114 6.53524 17.1634 6.50714 17.2104C6.47903 17.2574 6.4419 17.2983 6.39787 17.3309C6.35384 17.3634 6.30381 17.3869 6.25065 17.4C6.19749 17.413 6.14227 17.4154 6.08817 17.407C6.03408 17.3986 5.98219 17.3796 5.9355 17.351C5.88881 17.3224 5.84825 17.2849 5.81616 17.2405C5.78407 17.1962 5.7611 17.1459 5.74856 17.0926C5.5702 16.3724 5.31647 15.6731 4.99157 15.006C4.66651 14.3373 4.27209 13.7046 3.8148 13.1183C3.35789 12.5322 3.00789 11.8851 2.77316 11.201C2.53548 10.5072 2.41445 9.77885 2.415 9.04549C2.415 7.21436 3.1568 5.55681 4.35641 4.35721C5.55601 3.15761 7.21367 2.41572 9.04481 2.41572ZM13.6164 21.9286H4.47337V22.9578H13.6164V21.9286ZM6.55142 26.6764H11.5383C12.1105 26.6764 12.63 26.443 13.0057 26.0674L13.0072 26.0657C13.1324 25.9406 13.2412 25.8 13.3309 25.6474H4.75868C4.84844 25.8 4.95724 25.9406 5.08245 26.0657L5.08396 26.0674C5.45957 26.443 5.97914 26.6764 6.55142 26.6764ZM13.6048 24.8172C13.6125 24.7444 13.6164 24.6714 13.6164 24.5983V23.788H4.47337V24.5983C4.47335 24.6714 4.47718 24.7444 4.48484 24.8172H13.6048Z" fill="#222222"/>
</g>
<defs>
<clipPath id="clip0_20_758">
<rect width="18.091" height="30" fill="white"/>
</clipPath>
</defs>
</svg>
