<svg width="34" height="30" viewBox="0 0 34 30" fill="none" xmlns="http://www.w3.org/2000/svg">
<g clip-path="url(#clip0_20_647)">
<path d="M10.8373 1.72278H22.4001V4.72502H10.4541V1.72278H10.8373ZM21.6336 2.48922H11.2205V3.95858H21.6336V2.48922Z" fill="#222222"/>
<path d="M18.1092 7.10954V11.6184H14.7446V6.50537L15.291 6.76366C15.8268 7.01518 16.4308 7.08236 17.0088 6.95473H17.0103C17.2009 6.91165 17.3862 6.8476 17.5627 6.76375L18.109 6.50546L18.1092 7.10954ZM17.3427 10.8519V7.65819C17.288 7.67339 17.2326 7.68727 17.1766 7.69982C16.6831 7.81222 16.1707 7.81233 15.6772 7.70013C15.6213 7.68766 15.566 7.6738 15.5112 7.65854V10.8519L17.3427 10.8519Z" fill="#222222"/>
<path d="M19.8698 4.34182C19.8698 5.28883 19.4826 6.14962 18.8588 6.77329C18.235 7.39696 17.3744 7.78435 16.4274 7.78435C15.4803 7.78435 14.6194 7.39709 13.9958 6.77329C13.3721 6.14949 12.9849 5.28883 12.9849 4.34182V3.95862H19.8698V4.34182ZM18.317 6.23153C18.7165 5.83223 18.9912 5.3082 19.0757 4.72506H13.7788C13.8634 5.3082 14.1382 5.83214 14.5374 6.23153C15.0226 6.7167 15.6915 7.0179 16.427 7.0179C17.1624 7.0179 17.8321 6.7167 18.3169 6.23153H18.317Z" fill="#222222"/>
<path d="M8.13469 19.1045C8.05367 18.6362 7.82713 18.216 7.5037 17.8926V17.8911C7.09519 17.4825 6.53045 17.2287 5.90863 17.2287C5.28682 17.2287 4.72186 17.4825 4.31334 17.8911V17.8926C3.98991 18.216 3.76338 18.6362 3.68236 19.1045H8.13469ZM8.04476 17.3516C8.59375 17.899 8.93403 18.6555 8.93403 19.4877V19.8709H2.88306V19.4877C2.88306 18.6555 3.22338 17.899 3.77158 17.3508C4.32111 16.8029 5.07762 16.4623 5.90841 16.4623C6.7392 16.4623 7.49594 16.8027 8.04476 17.3516Z" fill="#222222"/>
<path d="M8.76643 19.1719C9.64512 19.7728 10.3771 20.6434 10.8827 21.6878C11.3675 22.6894 11.6453 23.8516 11.6453 25.0884V29.8619H0.172119V25.0886C0.172119 23.8517 0.449988 22.6897 0.934715 21.688C1.44044 20.6434 2.17251 19.7728 3.05115 19.1719L3.64985 18.7624V19.105H8.16778V18.7623L8.76643 19.1719ZM10.1942 22.02C9.76588 21.1351 9.15823 20.3943 8.4325 19.8716H3.38512C2.6594 20.3943 2.05162 21.1353 1.62321 22.0202C1.18797 22.9195 0.938553 23.9677 0.938553 25.0886V29.0954H10.8789V25.0886C10.8789 23.9675 10.6294 22.9192 10.1942 22.02Z" fill="#222222"/>
<path d="M3.72092 21.2683C3.75702 21.2331 3.79972 21.2054 3.84656 21.1868C3.8934 21.1682 3.94347 21.159 3.99386 21.1598C4.04426 21.1607 4.094 21.1714 4.14022 21.1915C4.18644 21.2117 4.22822 21.2407 4.26317 21.277C4.29811 21.3134 4.32552 21.3562 4.34383 21.4032C4.36213 21.4502 4.37097 21.5003 4.36982 21.5507C4.36868 21.6011 4.35758 21.6508 4.33716 21.6968C4.31674 21.7429 4.28741 21.7845 4.25086 21.8192C3.84693 22.2065 3.54321 22.6989 3.33583 23.2338C3.10599 23.8265 2.99422 24.4722 2.99422 25.0887V27.4227C2.99314 27.5237 2.95229 27.6201 2.88054 27.6911C2.80879 27.762 2.71193 27.8019 2.611 27.8019C2.51007 27.8019 2.41322 27.762 2.34147 27.6911C2.26972 27.6201 2.22887 27.5237 2.22778 27.4227V25.0887C2.22778 24.3858 2.35719 23.6446 2.62324 22.9584C2.8694 22.3234 3.23345 21.7356 3.72092 21.2683Z" fill="#222222"/>
<path d="M5.18033 13.8792C5.12511 13.7951 5.10534 13.6925 5.12534 13.5938C5.14533 13.4952 5.20347 13.4084 5.28711 13.3524C5.37074 13.2963 5.47311 13.2756 5.57196 13.2947C5.6708 13.3137 5.75812 13.3711 5.81493 13.4542C6.13249 13.9302 6.53019 14.0769 6.87991 14.0137C7.11191 13.9718 7.32926 13.8423 7.49426 13.6583C7.65992 13.4736 7.77085 13.2349 7.78858 12.976C7.82064 12.5093 7.54472 11.9623 6.74644 11.5014C5.88638 11.0049 5.096 11.1441 4.52382 11.6072C4.1842 11.8822 3.91462 12.2681 3.74521 12.7043C3.5743 13.1444 3.50554 13.6333 3.56817 14.1094C3.69233 15.0513 4.34752 15.9533 5.77188 16.3386C8.02812 16.9488 9.12203 15.548 10.3078 14.0294C10.9562 13.1993 11.6298 12.3366 12.5319 11.6868C13.6899 10.8528 14.9984 10.8528 16.6624 10.8535V10.852H16.7832C16.8339 10.8514 16.8842 10.861 16.9311 10.88C16.9781 10.899 17.0209 10.9271 17.0569 10.9628C17.0929 10.9984 17.1215 11.0408 17.141 11.0876C17.1605 11.1344 17.1706 11.1845 17.1706 11.2352C17.1706 11.2859 17.1605 11.3361 17.141 11.3828C17.1215 11.4296 17.0929 11.472 17.0569 11.5077C17.0209 11.5433 16.9781 11.5714 16.9311 11.5905C16.8842 11.6095 16.8339 11.619 16.7832 11.6184H16.6624V11.6169C15.1363 11.6164 13.9366 11.6161 12.9779 12.3066C12.1644 12.8926 11.525 13.7116 10.9094 14.4995C9.5608 16.2265 8.31679 17.8197 5.5742 17.078C3.79541 16.5969 2.97195 15.4323 2.81079 14.2083C2.73095 13.6022 2.81736 12.9836 3.03273 12.429C3.24977 11.8705 3.59896 11.3732 4.04183 11.0146C4.84813 10.3618 5.94892 10.1581 7.12968 10.8399C8.22752 11.4738 8.6022 12.2964 8.55205 13.0268C8.52219 13.4621 8.33823 13.8604 8.06309 14.1672C7.7873 14.4747 7.41677 14.6923 7.01474 14.765C6.3861 14.8788 5.69456 14.65 5.18033 13.8792Z" fill="#222222"/>
<path d="M29.5275 19.1045C29.4467 18.6358 29.2203 18.2152 28.8971 17.8918C28.487 17.4831 27.9224 17.2287 27.3015 17.2287C26.6796 17.2287 26.1147 17.4825 25.7062 17.8911V17.8926C25.3828 18.216 25.1562 18.6362 25.0752 19.1045H29.5275ZM29.4383 17.3521C29.9864 17.9004 30.3267 18.6566 30.3267 19.4877V19.8709H24.2759V19.4877C24.2759 18.6555 24.6162 17.899 25.1644 17.3508C25.7139 16.8029 26.4704 16.4623 27.3012 16.4623C28.1336 16.4623 28.8902 16.8027 29.4382 17.3507L29.4383 17.3521Z" fill="#222222"/>
<path d="M30.1592 19.1719C31.0379 19.7728 31.7698 20.6435 32.2756 21.6879C32.7604 22.6895 33.0382 23.8517 33.0382 25.0885V29.8619H21.5649V25.0886C21.5649 23.8517 21.8428 22.6895 22.3276 21.688C22.8331 20.6435 23.5651 19.7729 24.4438 19.172L25.0425 18.7625V19.105H29.5605V18.7623L30.1592 19.1719ZM31.5871 22.0201C31.1588 21.1353 30.551 20.3943 29.8252 19.8716H24.7778C24.0521 20.3943 23.4444 21.1352 23.0161 22.0201C22.5808 22.9194 22.3314 23.9677 22.3314 25.0886V29.0954H32.2718V25.0886C32.2718 23.9677 32.0223 22.9194 31.5871 22.0201Z" fill="#222222"/>
<path d="M25.1137 21.2681C25.187 21.1986 25.2847 21.1609 25.3856 21.1632C25.4865 21.1655 25.5824 21.2076 25.6524 21.2803C25.7224 21.3531 25.7607 21.4506 25.7591 21.5515C25.7575 21.6524 25.716 21.7486 25.6437 21.8191C25.2398 22.2063 24.936 22.6987 24.7287 23.2337C24.4988 23.8264 24.387 24.4721 24.387 25.0886V27.4227C24.386 27.5236 24.3451 27.62 24.2734 27.691C24.2016 27.762 24.1048 27.8018 24.0038 27.8018C23.9029 27.8018 23.806 27.762 23.7343 27.691C23.6625 27.62 23.6217 27.5236 23.6206 27.4227V25.0886C23.6206 24.3857 23.75 23.6444 24.0161 22.9583C24.2622 22.3233 24.6262 21.7354 25.1137 21.2681Z" fill="#222222"/>
<path d="M27.3955 13.4542C27.4523 13.3711 27.5396 13.3138 27.6385 13.2948C27.7373 13.2757 27.8397 13.2964 27.9233 13.3524C28.007 13.4085 28.0651 13.4952 28.0851 13.5939C28.1051 13.6926 28.0853 13.7951 28.0301 13.8793C27.5158 14.6501 26.8243 14.8788 26.1958 14.7651C25.7937 14.6924 25.4232 14.4748 25.1474 14.1672C24.8723 13.8606 24.6883 13.4621 24.6584 13.0269C24.6082 12.2965 24.9826 11.474 26.0806 10.84C27.2615 10.1582 28.362 10.3621 29.1684 11.0147C29.6116 11.3733 29.9605 11.8706 30.1774 12.4291C30.3928 12.9838 30.4792 13.6023 30.3993 14.2084C30.2382 15.4325 29.4147 16.5969 27.6359 17.078C24.8936 17.8197 23.6492 16.2265 22.3006 14.4995C21.6853 13.7117 21.0458 12.8928 20.232 12.3067C19.2736 11.6162 18.0737 11.6166 16.5478 11.617V11.6185H16.4269C16.3762 11.6191 16.326 11.6096 16.279 11.5906C16.232 11.5715 16.1893 11.5434 16.1533 11.5078C16.1172 11.4721 16.0886 11.4297 16.0691 11.3829C16.0496 11.3362 16.0396 11.286 16.0396 11.2353C16.0396 11.1847 16.0496 11.1345 16.0691 11.0877C16.0886 11.041 16.1172 10.9985 16.1533 10.9629C16.1893 10.9273 16.232 10.8991 16.279 10.8801C16.326 10.8611 16.3762 10.8516 16.4269 10.8521H16.5478V10.8537C18.2118 10.8531 19.5201 10.8528 20.6781 11.687C21.5803 12.3369 22.2539 13.1995 22.9021 14.0296C24.0879 15.548 25.1822 16.9489 27.4382 16.3388C28.8625 15.9536 29.5179 15.0515 29.6419 14.1096C29.7045 13.6336 29.6358 13.1447 29.4649 12.7046C29.2955 12.2684 29.0261 11.8824 28.6863 11.6075C28.114 11.1444 27.3234 11.005 26.4637 11.5016C25.6653 11.9626 25.3895 12.5096 25.4216 12.9763C25.4393 13.2352 25.5503 13.4738 25.7159 13.6585C25.8809 13.8425 26.0983 13.9719 26.3303 14.0139C26.6802 14.077 27.0778 13.9303 27.3955 13.4542Z" fill="#222222"/>
</g>
<defs>
<clipPath id="clip0_20_647">
<rect width="33.038" height="30" fill="white"/>
</clipPath>
</defs>
</svg>
