<svg width="38" height="30" viewBox="0 0 38 30" fill="none" xmlns="http://www.w3.org/2000/svg">
<g clip-path="url(#clip0_20_621)">
<path d="M13.6192 0H24.062V2.82399H13.2107V0H13.6192ZM23.2449 0.817098H14.0278V2.00675H23.2449V0.817098Z" fill="white"/>
<path d="M20.2107 4.89954V9.01116H17.0618V4.25566L17.6442 4.53089C17.9543 4.67794 18.2931 4.75423 18.6363 4.75423C18.9795 4.75423 19.3183 4.67794 19.6284 4.53089L20.2109 4.25562L20.2107 4.89954ZM19.3936 8.19405V5.47581L19.3231 5.4925C18.8709 5.59545 18.4013 5.59545 17.9491 5.4925L17.8785 5.47581V8.19423L19.3936 8.19405Z" fill="white"/>
<path d="M21.7918 2.41524C21.7918 3.28303 21.4369 4.07186 20.8655 4.64337C20.2924 5.21473 19.5039 5.5697 18.6375 5.5697C17.7711 5.5697 16.9823 5.21473 16.4101 4.64252C15.8377 4.07201 15.4829 3.28303 15.4829 2.41524V2.00671H21.7918V2.41524ZM20.2879 4.0657C20.6198 3.73382 20.8531 3.30334 20.9387 2.82372H16.3359C16.4214 3.30334 16.6548 3.73382 16.9866 4.0657V4.0673C17.4093 4.49008 17.9936 4.7526 18.6371 4.7526C19.2805 4.7526 19.8651 4.49008 20.2875 4.0673L20.2879 4.0657Z" fill="white"/>
<path d="M15.7969 17.4093C15.8509 17.4087 15.9045 17.4189 15.9546 17.4392C16.0046 17.4594 16.0502 17.4894 16.0886 17.5274C16.127 17.5654 16.1575 17.6107 16.1783 17.6605C16.1991 17.7104 16.2098 17.7639 16.2098 17.8179C16.2098 17.8719 16.1991 17.9254 16.1783 17.9752C16.1575 18.0251 16.127 18.0703 16.0886 18.1083C16.0502 18.1463 16.0046 18.1763 15.9546 18.1966C15.9045 18.2169 15.8509 18.227 15.7969 18.2264C12.3057 18.2264 11.9353 20.7288 11.5458 23.3613C11.1427 26.0855 10.721 28.9351 7.31852 29.8468C5.69072 30.283 4.50403 29.7381 3.81281 28.8411C3.46955 28.396 3.25325 27.8631 3.16927 27.3214C3.08463 26.776 3.13334 26.2186 3.32091 25.7293C3.66478 24.8335 4.45009 24.1608 5.70778 24.1608C6.87628 24.1608 7.55715 24.6498 7.85668 25.2627C8.03597 25.6295 8.07369 26.0366 7.99502 26.4107C7.91541 26.7886 7.71717 27.1377 7.42605 27.3841C6.96933 27.7707 6.30266 27.9099 5.52797 27.5273C5.47971 27.5038 5.43656 27.471 5.40101 27.4307C5.36547 27.3905 5.33823 27.3436 5.32085 27.2928C5.30348 27.242 5.29631 27.1883 5.29977 27.1347C5.30323 27.0812 5.31724 27.0288 5.341 26.9806C5.36477 26.9325 5.39781 26.8895 5.43823 26.8542C5.47866 26.8189 5.52566 26.7919 5.57655 26.7748C5.62744 26.7577 5.68121 26.7508 5.73477 26.7545C5.78832 26.7583 5.84061 26.7725 5.88863 26.7966C6.32297 27.0111 6.67389 26.9526 6.8996 26.7616C7.05063 26.6337 7.15465 26.448 7.19748 26.2444C7.24102 26.0375 7.22175 25.8154 7.12615 25.6198C6.95113 25.263 6.50885 24.978 5.70778 24.978C4.84531 24.978 4.31223 25.425 4.08389 26.0199C3.94616 26.3791 3.9108 26.7911 3.97381 27.1971C4.03729 27.6072 4.20027 28.0092 4.45766 28.3433C4.96423 29.0007 5.85689 29.3941 7.10795 29.059C9.99255 28.286 10.374 25.7081 10.7386 23.2435C11.1811 20.2523 11.6017 17.4093 15.7969 17.4093Z" fill="white"/>
<path d="M21.476 18.2264C21.3684 18.2252 21.2656 18.1817 21.1899 18.1052C21.1142 18.0287 21.0718 17.9254 21.0718 17.8178C21.0718 17.7102 21.1142 17.607 21.1899 17.5305C21.2656 17.454 21.3684 17.4105 21.476 17.4093C25.6712 17.4093 26.0918 20.2522 26.5344 23.2431C26.899 25.7076 27.2805 28.2854 30.1651 29.0583C31.4162 29.3935 32.3088 29.0001 32.8154 28.3427C33.0728 28.0088 33.2357 27.6066 33.2993 27.1966C33.3623 26.7906 33.3269 26.3784 33.1892 26.0194C32.9609 25.4244 32.4278 24.9777 31.5653 24.9777C30.764 24.9777 30.3218 25.2628 30.1473 25.6199C30.0517 25.8155 30.0324 26.0374 30.0759 26.2444C30.1188 26.4479 30.2228 26.6336 30.3738 26.7617C30.5995 26.9527 30.9502 27.0109 31.3845 26.7966C31.4325 26.7729 31.4847 26.7589 31.5381 26.7554C31.5915 26.7519 31.645 26.7589 31.6957 26.7761C31.7464 26.7933 31.7932 26.8203 31.8334 26.8555C31.8737 26.8908 31.9066 26.9336 31.9303 26.9816C31.9539 27.0296 31.9679 27.0818 31.9715 27.1351C31.975 27.1885 31.968 27.2421 31.9508 27.2928C31.9336 27.3434 31.9066 27.3902 31.8713 27.4305C31.8361 27.4707 31.7932 27.5036 31.7452 27.5273C30.9705 27.9099 30.3039 27.7707 29.8471 27.3841C29.556 27.1375 29.3578 26.7884 29.2782 26.4108C29.1995 26.0367 29.2372 25.6295 29.4165 25.2628C29.7159 24.6501 30.3968 24.1609 31.5654 24.1609C32.8229 24.1609 33.6083 24.8336 33.952 25.7294C34.1396 26.2184 34.1883 26.7758 34.1036 27.3214C34.0197 27.8631 33.8032 28.396 33.4601 28.8411C32.7689 29.738 31.5823 30.2829 29.9547 29.8469C26.5521 28.9352 26.1303 26.0858 25.7274 23.3617C25.3376 20.7286 24.9672 18.2264 21.476 18.2264Z" fill="white"/>
<path d="M15.9443 8.19442L21.3303 8.19409C21.3987 8.19408 21.4659 8.21123 21.5259 8.24396C21.5858 8.27669 21.6366 8.32396 21.6736 8.38143C23.4937 10.891 24.3525 12.9242 24.3452 14.5282C24.3376 16.23 23.4005 17.4334 21.6376 18.1928C21.5867 18.2147 21.5319 18.2261 21.4764 18.2261L15.7978 18.2264C15.7347 18.2264 15.6724 18.2118 15.6159 18.1837C13.8667 17.4237 12.9367 16.2232 12.929 14.5282C12.9218 12.9204 13.7845 10.8812 15.6139 8.36332C15.6518 8.31113 15.7015 8.26862 15.7589 8.23927C15.8163 8.20992 15.8798 8.19455 15.9443 8.19442ZM21.122 9.01119H16.1526C14.5119 11.3049 13.7367 13.1278 13.743 14.5249C13.7489 15.8385 14.489 16.7869 15.8825 17.4093H21.3919C22.7856 16.7869 23.5258 15.8385 23.5316 14.5249C23.5379 13.1278 22.7627 11.3049 21.122 9.01119Z" fill="white"/>
<path d="M16.5019 10.0956C16.5624 10.007 16.6555 9.9459 16.7609 9.92558C16.8663 9.90526 16.9754 9.92736 17.0646 9.98709C17.1537 10.0468 17.2157 10.1393 17.237 10.2445C17.2583 10.3497 17.2373 10.459 17.1784 10.5487C16.7295 11.2191 16.1806 12.1208 15.8224 12.9999C15.4933 13.8081 15.3268 14.5795 15.5771 15.0637C15.6271 15.1584 15.6952 15.2461 15.7749 15.3259C15.8619 15.413 15.9648 15.4934 16.075 15.5665C16.1619 15.6275 16.2215 15.72 16.2412 15.8243C16.2609 15.9286 16.2392 16.0365 16.1806 16.125C16.122 16.2136 16.0311 16.2757 15.9274 16.2983C15.8237 16.3209 15.7152 16.3021 15.6251 16.246C15.4735 16.1453 15.3275 16.0305 15.1972 15.9001C15.0598 15.7625 14.9414 15.6092 14.8533 15.4396V15.4379C14.4717 14.7033 14.6561 13.6994 15.0659 12.6933C15.4475 11.7573 16.0277 10.8034 16.5019 10.0956Z" fill="white"/>
<path d="M21.6545 17.8182C21.6545 18.5902 21.3106 19.288 20.7548 19.7918C20.2099 20.2856 19.4607 20.5912 18.6373 20.5912C17.8139 20.5912 17.0647 20.2856 16.5198 19.7918C15.964 19.288 15.6201 18.5902 15.6201 17.8182C15.6202 17.7099 15.6632 17.606 15.7398 17.5294C15.8164 17.4528 15.9203 17.4097 16.0286 17.4097H21.2459C21.3543 17.4097 21.4582 17.4528 21.5348 17.5294C21.6114 17.606 21.6544 17.7099 21.6545 17.8182ZM20.2089 19.1886C20.4952 18.929 20.7011 18.5972 20.7894 18.2268H16.4852C16.5734 18.5972 16.7793 18.929 17.0657 19.1886C17.4647 19.5503 18.0202 19.7743 18.6373 19.7743C19.2543 19.7743 19.8098 19.5503 20.2089 19.1886Z" fill="white"/>
<path d="M18.6368 20.8156C19.1573 20.8156 19.5792 20.5321 19.5792 20.1825C19.5792 19.8328 19.1573 19.5493 18.6368 19.5493C18.1163 19.5493 17.6943 19.8328 17.6943 20.1825C17.6943 20.5321 18.1163 20.8156 18.6368 20.8156Z" fill="white"/>
<path d="M18.6373 19.9579C18.4586 19.9579 18.3034 20.002 18.1976 20.0731C18.1395 20.112 18.1035 20.1518 18.1035 20.1825C18.1035 20.2132 18.1395 20.253 18.1976 20.2919C18.3035 20.363 18.4584 20.4071 18.6373 20.4071C18.8161 20.4071 18.9711 20.363 19.077 20.2919C19.1351 20.2529 19.1711 20.2132 19.1711 20.1825C19.1711 20.1518 19.135 20.1119 19.077 20.0731C18.9711 20.002 18.8161 19.9579 18.6373 19.9579ZM17.7444 19.3964C17.9795 19.2384 18.2957 19.1406 18.6373 19.1406C18.9788 19.1406 19.2951 19.2384 19.5301 19.3964C19.8131 19.5863 19.9882 19.8636 19.9882 20.1824C19.9882 20.5012 19.813 20.7784 19.5301 20.9684C19.295 21.1263 18.9788 21.2242 18.6373 21.2242C18.2957 21.2242 17.9794 21.1263 17.7444 20.9684C17.4616 20.7784 17.2864 20.5013 17.2864 20.1824C17.2864 19.8635 17.4615 19.5864 17.7444 19.3964Z" fill="white"/>
<path d="M3.01527 11.9482L8.40124 11.9479C8.46957 11.9479 8.5368 11.965 8.59678 11.9977C8.65676 12.0305 8.70755 12.0777 8.7445 12.1352C10.5647 14.6448 11.4234 16.6782 11.4163 18.282C11.4086 19.9838 10.4714 21.1871 8.70858 21.9464C8.65766 21.9684 8.60279 21.9797 8.54734 21.9797L2.86889 21.9801C2.80574 21.9801 2.74344 21.9655 2.68692 21.9373C0.937659 21.1774 0.00780378 19.9769 4.51831e-05 18.282C-0.00719617 16.6744 0.855842 14.635 2.68499 12.1172C2.72283 12.065 2.77247 12.0225 2.82987 11.9931C2.88727 11.9637 2.9508 11.9484 3.01527 11.9482ZM8.19289 12.765H3.22367C1.58294 15.0587 0.807597 16.8817 0.813898 18.2787C0.819776 19.5922 1.56004 20.5405 2.95377 21.163H8.46275C9.85647 20.5406 10.5968 19.5924 10.6026 18.2787C10.6088 16.8816 9.83362 15.0586 8.19289 12.7649V12.765Z" fill="white"/>
<path d="M3.57305 13.8488C3.60256 13.8038 3.64069 13.7652 3.68524 13.735C3.72979 13.7049 3.77987 13.6838 3.83259 13.6732C3.88531 13.6625 3.93963 13.6623 3.9924 13.6728C4.04517 13.6832 4.09536 13.704 4.14005 13.7339C4.18475 13.7638 4.22306 13.8023 4.25279 13.8472C4.28253 13.892 4.30308 13.9423 4.31326 13.9951C4.32345 14.0479 4.32307 14.1022 4.31214 14.1549C4.30121 14.2076 4.27996 14.2575 4.2496 14.3019C3.80068 14.9723 3.2517 15.8742 2.89358 16.753C2.56392 17.562 2.39746 18.334 2.64907 18.8181C2.69713 18.9109 2.76545 18.9979 2.84609 19.0789C2.93304 19.166 3.03601 19.2464 3.14633 19.3195C3.19151 19.3488 3.23043 19.3867 3.26086 19.4312C3.29128 19.4756 3.3126 19.5256 3.32359 19.5783C3.33457 19.631 3.335 19.6854 3.32486 19.7383C3.31471 19.7912 3.29418 19.8415 3.26446 19.8864C3.23474 19.9313 3.19642 19.9699 3.15171 19.9999C3.107 20.0299 3.05679 20.0508 3.00397 20.0613C2.95116 20.0718 2.89678 20.0717 2.844 20.0611C2.79121 20.0504 2.74105 20.0294 2.69642 19.9993C2.54459 19.8987 2.39868 19.7838 2.26852 19.6535C2.13216 19.5168 2.01395 19.3634 1.92465 19.1913C1.54307 18.4566 1.72716 17.4527 2.13733 16.4467C2.51854 15.5107 3.09888 14.5567 3.57305 13.8488Z" fill="white"/>
<path d="M8.72493 21.5717C8.72493 22.3438 8.38101 23.0416 7.82531 23.5454C7.28042 24.0391 6.53122 24.345 5.70783 24.345C4.88443 24.345 4.13528 24.0393 3.59039 23.5454C3.03454 23.0416 2.69067 22.3438 2.69067 21.5717C2.69071 21.4634 2.73376 21.3595 2.81037 21.2829C2.88697 21.2063 2.99086 21.1632 3.0992 21.1632H8.31636C8.4247 21.1632 8.52859 21.2063 8.60521 21.2829C8.68182 21.3595 8.72488 21.4634 8.72493 21.5717ZM7.27948 22.942C7.5658 22.6825 7.77161 22.3506 7.85983 21.9802H3.55573C3.64399 22.3506 3.8499 22.6824 4.13622 22.942C4.53534 23.3037 5.09076 23.5277 5.70783 23.5277C6.32489 23.5277 6.88027 23.3041 7.27948 22.942Z" fill="white"/>
<path d="M5.70845 24.5693C6.22889 24.5693 6.65079 24.2858 6.65079 23.9361C6.65079 23.5865 6.22889 23.303 5.70845 23.303C5.18801 23.303 4.76611 23.5865 4.76611 23.9361C4.76611 24.2858 5.18801 24.5693 5.70845 24.5693Z" fill="white"/>
<path d="M5.70843 23.7115C5.52974 23.7115 5.37457 23.7556 5.26863 23.8267C5.2106 23.8657 5.17458 23.9054 5.17458 23.9362C5.17458 23.967 5.21065 24.0067 5.26863 24.0456C5.37447 24.1166 5.5296 24.1608 5.70843 24.1608C5.88725 24.1608 6.04229 24.1166 6.14818 24.0456C6.2063 24.0066 6.24223 23.9669 6.24223 23.9362C6.24223 23.9055 6.20616 23.8656 6.14818 23.8267C6.04229 23.7555 5.88711 23.7115 5.70843 23.7115ZM4.81547 23.1502C5.05058 22.9922 5.367 22.8944 5.70843 22.8944C6.04986 22.8944 6.36632 22.9922 6.60134 23.1502C6.88413 23.3402 7.05939 23.6174 7.05939 23.9362C7.05939 24.2549 6.88413 24.5322 6.60134 24.7221C6.36623 24.88 6.05 24.9779 5.70843 24.9779C5.36686 24.9779 5.05044 24.88 4.81547 24.7221C4.53263 24.5321 4.35742 24.2548 4.35742 23.9362C4.35742 23.6175 4.53244 23.3402 4.81528 23.1502H4.81547Z" fill="white"/>
<path d="M28.8722 11.9482L34.2582 11.9479C34.3265 11.9479 34.3938 11.965 34.4537 11.9977C34.5137 12.0305 34.5645 12.0777 34.6015 12.1352C36.4217 14.6448 37.2806 16.6782 37.2733 18.282C37.2658 19.9837 36.3288 21.187 34.5655 21.9464C34.5146 21.9683 34.4597 21.9796 34.4043 21.9796L28.7257 21.98C28.6626 21.98 28.6003 21.9654 28.5437 21.9372C26.7945 21.1774 25.8644 19.9769 25.8567 18.2819C25.8496 16.6742 26.7125 14.6348 28.5417 12.1171C28.5796 12.0649 28.6293 12.0223 28.6867 11.993C28.7441 11.9637 28.8077 11.9483 28.8722 11.9482ZM34.0498 12.765H29.0806C27.4398 15.0587 26.6646 16.8817 26.6708 18.2787C26.6766 19.5923 27.4169 20.5405 28.8106 21.163H34.3197C35.7135 20.5406 36.4538 19.5922 36.4596 18.2787C36.4659 16.8816 35.6906 15.0586 34.0498 12.7649V12.765Z" fill="white"/>
<path d="M29.4309 13.8488C29.4604 13.8039 29.4986 13.7652 29.5431 13.735C29.5877 13.7049 29.6377 13.6838 29.6905 13.6732C29.7432 13.6625 29.7975 13.6623 29.8503 13.6728C29.9031 13.6832 29.9532 13.704 29.9979 13.7339C30.0426 13.7638 30.0809 13.8023 30.1107 13.8472C30.1404 13.892 30.161 13.9423 30.1711 13.9951C30.1813 14.0479 30.1809 14.1022 30.17 14.1549C30.1591 14.2076 30.1378 14.2576 30.1075 14.302C29.6586 14.9724 29.1097 15.8741 28.7514 16.7532C28.4223 17.5616 28.2557 18.333 28.5061 18.8172C28.5562 18.9119 28.6242 18.9995 28.7039 19.0793C28.7908 19.1664 28.8938 19.2468 29.004 19.3199C29.0487 19.3494 29.0871 19.3875 29.117 19.4318C29.1469 19.4762 29.1679 19.526 29.1785 19.5785C29.1892 19.6309 29.1895 19.685 29.1792 19.7375C29.169 19.7901 29.1486 19.8401 29.119 19.8847C29.0895 19.9294 29.0515 19.9678 29.0071 19.9977C28.9627 20.0276 28.9129 20.0486 28.8604 20.0592C28.808 20.0699 28.7539 20.0702 28.7014 20.0599C28.6488 20.0497 28.5988 20.0293 28.5542 19.9997C28.4024 19.8991 28.2562 19.7841 28.1263 19.6539C27.9889 19.5161 27.8704 19.3631 27.7823 19.1934V19.1917C27.4007 18.4569 27.585 17.453 27.9949 16.4469C28.3765 15.5107 28.9567 14.5568 29.4309 13.8488Z" fill="white"/>
<path d="M34.5816 21.5717C34.5816 22.3438 34.2378 23.0416 33.6819 23.5454C33.137 24.0391 32.3878 24.345 31.5644 24.345C30.741 24.345 29.9919 24.0393 29.447 23.5454C28.8912 23.0416 28.5474 22.3438 28.5474 21.5717C28.5474 21.4634 28.5905 21.3595 28.6671 21.2829C28.7437 21.2063 28.8476 21.1632 28.9559 21.1632H34.1731C34.2814 21.1632 34.3853 21.2063 34.4619 21.2829C34.5385 21.3595 34.5816 21.4634 34.5816 21.5717ZM33.1361 22.942C33.4224 22.6824 33.6283 22.3506 33.7166 21.9802H29.4124C29.5007 22.3506 29.7065 22.6825 29.9928 22.942C30.392 23.3037 30.9474 23.5277 31.5644 23.5277C32.1815 23.5277 32.737 23.3041 33.1361 22.942Z" fill="white"/>
<path d="M31.5659 24.5693C32.0863 24.5693 32.5083 24.2858 32.5083 23.9361C32.5083 23.5865 32.0863 23.303 31.5659 23.303C31.0454 23.303 30.6235 23.5865 30.6235 23.9361C30.6235 24.2858 31.0454 24.5693 31.5659 24.5693Z" fill="white"/>
<path d="M31.5652 23.7115C31.3866 23.7115 31.2314 23.7556 31.1255 23.8267C31.0675 23.8657 31.0315 23.9054 31.0315 23.9362C31.0315 23.967 31.0675 24.0067 31.1255 24.0456C31.2314 24.1166 31.3864 24.1608 31.5652 24.1608C31.7441 24.1608 31.8991 24.1166 32.0051 24.0456C32.0631 24.0066 32.0991 23.9669 32.0991 23.9362C32.0991 23.9055 32.0631 23.8656 32.0051 23.8267C31.8991 23.7555 31.7443 23.7115 31.5652 23.7115ZM30.6724 23.1502C30.9075 22.9922 31.2237 22.8944 31.5652 22.8944C31.9068 22.8944 32.223 22.9922 32.4582 23.1502C32.7411 23.3402 32.9163 23.6174 32.9163 23.9362C32.9163 24.2549 32.7411 24.5321 32.4582 24.7221C32.2231 24.88 31.9068 24.9779 31.5652 24.9779C31.2237 24.9779 30.9074 24.88 30.6724 24.7221C30.3896 24.5322 30.2144 24.2551 30.2144 23.9362C30.2144 23.6173 30.3896 23.3402 30.6724 23.1502Z" fill="white"/>
<path d="M25.331 21.1647C25.3246 21.058 25.3604 20.953 25.4306 20.8723C25.5009 20.7916 25.5999 20.7418 25.7066 20.7334C25.8132 20.7251 25.9188 20.7589 26.0008 20.8276C26.0827 20.8964 26.1344 20.9945 26.1447 21.101C26.1663 21.3647 26.1968 21.6284 26.2273 21.8938C26.4295 23.6442 26.6408 25.4754 24.6537 26.6225C23.6819 27.1836 22.8199 27.0342 22.2153 26.572C21.9158 26.3431 21.6834 26.0366 21.5357 25.7021C21.3871 25.3654 21.3226 24.9955 21.3596 24.6429C21.4281 23.9889 21.8269 23.4047 22.6544 23.183C23.4248 22.9767 23.9666 23.1861 24.28 23.5459C24.4694 23.7635 24.5698 24.0363 24.5846 24.3091C24.5993 24.5805 24.5272 24.8556 24.3725 25.0789C24.1271 25.4328 23.6947 25.655 23.0978 25.5359C23.0448 25.5259 22.9943 25.5054 22.9493 25.4758C22.9042 25.4461 22.8654 25.4078 22.8353 25.3631C22.8051 25.3184 22.7841 25.2681 22.7734 25.2152C22.7628 25.1623 22.7627 25.1078 22.7733 25.0549C22.7838 25.002 22.8047 24.9517 22.8348 24.9069C22.8649 24.8621 22.9035 24.8238 22.9485 24.794C22.9936 24.7642 23.044 24.7437 23.097 24.7336C23.15 24.7234 23.2045 24.7239 23.2573 24.7349C23.4832 24.7799 23.6307 24.7194 23.7023 24.6162C23.7528 24.5432 23.7761 24.448 23.7708 24.3507C23.7661 24.2518 23.7285 24.1573 23.6641 24.0822C23.5366 23.9357 23.2783 23.8605 22.8648 23.9712C22.4186 24.0907 22.205 24.3918 22.1699 24.7258C22.148 24.9357 22.1891 25.162 22.2824 25.3734C22.3767 25.5872 22.5231 25.7815 22.7098 25.9242C23.0753 26.2035 23.6144 26.2833 24.2483 25.9173C25.7691 25.0395 25.589 23.4784 25.4167 21.9864C25.3848 21.7069 25.3527 21.4297 25.331 21.1647Z" fill="white"/>
<path d="M11.1926 21.1009C11.1962 21.0471 11.2105 20.9945 11.2346 20.9462C11.2587 20.8979 11.2922 20.8549 11.333 20.8196C11.3739 20.7844 11.4213 20.7575 11.4726 20.7407C11.5238 20.7239 11.5779 20.7174 11.6317 20.7216C11.6855 20.7258 11.738 20.7406 11.786 20.7653C11.834 20.7899 11.8767 20.8238 11.9116 20.865C11.9464 20.9062 11.9727 20.9539 11.989 21.0053C12.0053 21.0568 12.0112 21.111 12.0064 21.1647C11.9847 21.4297 11.9526 21.7069 11.9205 21.9862C11.7482 23.4784 11.5681 25.0395 13.089 25.9173C13.7229 26.2833 14.2621 26.2035 14.6275 25.9242C14.8143 25.7815 14.9607 25.5872 15.055 25.3734C15.1483 25.1618 15.1894 24.9356 15.1674 24.7258C15.1324 24.3919 14.9188 24.0906 14.4726 23.9711C14.0592 23.8604 13.8009 23.9355 13.6732 24.0821C13.6088 24.1572 13.5712 24.2517 13.5665 24.3506C13.5612 24.4479 13.5846 24.5434 13.6351 24.6162C13.7067 24.7193 13.8542 24.7799 14.0801 24.7348C14.1329 24.7238 14.1874 24.7234 14.2404 24.7335C14.2934 24.7436 14.3438 24.7642 14.3888 24.7939C14.4339 24.8237 14.4725 24.8621 14.5026 24.9069C14.5327 24.9517 14.5536 25.002 14.5641 25.0549C14.5747 25.1078 14.5746 25.1623 14.564 25.2152C14.5533 25.2681 14.5323 25.3183 14.5021 25.363C14.4719 25.4078 14.4332 25.4461 14.3881 25.4757C14.3431 25.5054 14.2926 25.5258 14.2396 25.5359C13.6427 25.655 13.2103 25.4328 12.9649 25.0789C12.8102 24.8558 12.738 24.5804 12.7527 24.309C12.7675 24.0363 12.8679 23.7635 13.0573 23.5458C13.371 23.186 13.9126 22.9765 14.6831 23.1829C15.5107 23.4046 15.9094 23.9888 15.978 24.6429C16.015 24.9955 15.9504 25.3654 15.8019 25.7021C15.6542 26.0366 15.4218 26.3432 15.1223 26.572C14.5175 27.0342 13.6556 27.1837 12.6837 26.6226C10.6965 25.4752 10.9079 23.6441 11.11 21.8936C11.1405 21.6283 11.171 21.3646 11.1926 21.1009Z" fill="white"/>
</g>
<defs>
<clipPath id="clip0_20_621">
<rect width="37.2737" height="30" fill="white"/>
</clipPath>
</defs>
</svg>
