<svg width="24" height="30" viewBox="0 0 24 30" fill="none" xmlns="http://www.w3.org/2000/svg">
<g clip-path="url(#clip0_20_768)">
<path fill-rule="evenodd" clip-rule="evenodd" d="M18.5896 21.6799C18.7349 21.6102 19.1608 21.4613 19.3514 21.4454C19.4034 21.5541 19.4305 21.6512 19.4843 21.7812C19.988 22.9987 20.9333 23.1666 20.9333 23.9651C20.9333 24.2317 20.6663 25.0093 20.5945 25.267L19.4684 29.1798H19.1755L20.2803 25.0658C20.6375 23.7987 19.18 22.781 19.0329 22.5843C18.6732 22.1038 18.7506 22.0155 18.5896 21.6799ZM21.4149 30.0002H20.7235C20.5035 29.9655 20.406 29.8356 20.406 29.4143C20.6223 29.2694 20.6093 29.1883 20.9919 29.1798V26.8947L20.282 29.2317C20.2266 29.4217 20.1332 29.8361 20.0544 30.0002H17.9203C17.3728 29.9353 17.2702 29.1799 18.3551 29.1799C18.3652 28.7311 18.7311 27.6088 18.8755 27.1221C18.9761 26.783 19.051 26.4608 19.1508 26.1083C19.3359 25.4542 19.654 24.7957 19.3429 24.1492C18.9604 23.3538 17.9262 23.0381 17.8278 21.8557C17.1973 21.8557 16.6762 22.0571 15.6043 21.9701C15.1237 21.9306 13.9384 21.7794 13.6091 21.6215C13.5247 21.7972 13.4905 21.9695 13.3946 22.1686C13.0485 22.8884 12.7121 23.0603 12.8031 23.7157C12.944 24.7342 13.1396 25.0618 13.5001 25.9492L14.8406 29.0034C14.9731 29.2978 15.1711 29.663 15.2498 30.0004H12.2801C12.0856 29.9393 11.9685 29.782 11.9685 29.4145C12.1849 29.2696 12.1718 29.1885 12.5546 29.18C12.5141 29.0065 12.3395 28.6376 12.2614 28.477L10.1521 23.8478C10.1521 25.1714 9.50753 28.8035 9.50753 30.0001H7.11687C7.0712 29.9886 7.03058 29.9617 6.96551 29.9037C6.56927 29.5502 7.01974 29.1896 7.45671 29.1798C7.45671 28.8596 7.4922 28.7735 7.51232 28.5322C7.56359 27.913 7.53251 27.1989 7.61651 26.5857L7.69346 25.2566C7.70568 24.1519 7.83989 23.825 7.54079 22.7678L6.62386 19.6418C6.32223 18.5624 6.02743 18.8711 5.74439 17.7671C5.38944 16.3812 5.71284 12.9352 5.57512 11.7254C5.55343 11.5355 5.49297 11.4099 5.46804 11.188C5.42328 10.7901 5.34725 10.3716 5.34725 9.96107C4.03924 9.96107 3.19452 9.24637 2.73353 8.06298C2.66581 7.88886 2.66108 7.7586 2.59336 7.61733C4.89596 6.39896 5.4542 8.02118 5.64031 7.32426C5.29452 7.29551 4.68591 7.0127 4.38989 6.87529C2.04967 5.7905 0.437638 3.58641 0.0703511 0.999566C-0.0181479 0.37569 -0.149674 0 0.601227 0C0.712127 0.165641 0.775819 0.14955 0.821844 0.365436C0.844126 0.470066 0.868854 0.776305 0.876742 0.837947C1.03331 2.06795 1.44765 2.95942 2.10133 3.9494C2.38261 4.37553 3.29532 5.39797 3.7069 5.50781C3.66328 5.34398 3.53877 5.18244 3.45213 5.00102C3.37215 4.83373 3.28649 4.63819 3.22193 4.46936C3.04343 4.00169 2.79777 2.292 3.02714 1.89821C3.11544 1.74578 3.32443 1.63859 3.55064 1.73135C3.75052 1.81318 3.76562 1.96742 3.76909 2.22279C3.7924 3.91319 4.00296 4.92649 5.21647 5.93185C5.34571 6.03881 5.47538 6.16714 5.64039 6.21107C5.47124 5.85881 5.52444 5.26502 5.52314 4.74613C5.52223 4.42988 5.41851 3.9492 5.78737 3.83116C6.79182 3.5097 5.97478 5.62727 6.6515 6.37163C6.85768 6.59836 7.33354 6.85995 7.77407 6.76704C8.96092 6.51688 8.86481 5.58653 8.86256 4.8047C8.86106 4.20827 8.77788 3.82229 9.39012 3.80857C9.8056 4.087 9.68319 4.26652 9.68295 4.92191C9.68295 5.72488 9.73915 5.46734 9.56582 6.21099C10.1592 5.89695 10.7006 5.29172 11.0126 4.66958C11.5946 3.50832 11.2826 2.82351 11.4017 2.129C11.4454 1.87494 11.5214 1.74203 11.748 1.70634C12.3711 1.6083 12.2449 2.55454 12.203 3.39896C12.1764 3.93445 11.9339 4.67408 11.695 5.11772C11.5974 5.29914 11.4945 5.36559 11.4408 5.56645C11.6775 5.40803 11.8944 5.2638 12.1007 5.05462C12.7199 4.42656 13.0795 4.17286 13.5893 3.14474C14.101 2.11275 14.2075 1.65318 14.3576 0.514434C14.4154 0.0785613 14.4824 0 14.9567 0C15.0925 0.202634 15.2279 0.24507 15.1788 0.625611C15.0674 1.48892 15.0159 1.79815 14.7156 2.62999C13.9938 4.63145 12.5953 5.99325 10.739 6.91505C10.4895 7.03896 9.83467 7.29697 9.50753 7.32422C9.59914 7.66734 9.83092 7.40566 10.1277 7.29997C10.973 6.99893 11.7752 7.23604 12.4959 7.61729C12.4885 7.9451 12.296 8.33578 12.1631 8.57359C11.6444 9.50189 10.9002 9.96099 9.80051 9.96099C9.80051 10.3691 9.64982 10.82 9.68362 11.247C9.71221 11.6107 9.88475 11.9476 9.99794 12.2831C10.246 13.0204 10.5056 13.5025 11.1456 13.8307C11.7124 14.1215 14.0155 14.0052 15.0152 14.004C15.6799 14.0032 16.2661 13.9764 16.086 14.6485C16.0243 14.8791 15.6704 14.8247 15.0739 14.8244C14.3174 14.8238 12.0034 14.8739 11.5718 14.811C11.2996 14.7716 10.8954 14.6237 10.6598 14.4925C9.9212 14.0813 9.26972 13.0836 9.21458 12.422C9.01069 12.5588 8.89612 12.7379 8.67791 12.8814C8.47622 13.0141 8.25411 13.109 7.96219 13.1619C7.30002 13.2815 6.75759 13.0702 6.40221 12.8322C6.40221 14.561 6.04333 17.4265 7.03196 18.5306C7.2512 18.7755 7.88615 19.3172 8.21857 19.3948C8.20347 19.2132 7.94002 18.6218 7.84336 18.4809C7.23503 17.5946 6.9295 18.0392 6.9295 15.6447C7.18877 15.4712 7.50459 15.2599 7.6974 15.697C8.00107 16.3849 7.34975 16.5948 8.24303 17.7296C8.45599 18 8.62289 18.1723 8.76309 18.4987L10.2862 22.0732C10.5496 22.6851 10.843 23.2692 11.0815 23.8561L11.6764 25.1947C12.1991 26.3661 12.6904 27.6132 13.2773 28.7501C13.361 28.9123 13.4161 28.971 13.4335 29.18H14.0194C13.9752 28.9907 13.7828 28.6121 13.6878 28.3982L12.3779 25.4308C12.1549 24.8695 11.7099 23.308 12.0731 22.7807C12.3941 22.3148 12.6669 21.928 12.8135 21.353C13.1354 20.0919 12.341 18.9406 13.0981 18.761C13.4115 18.6867 14.2127 19.1618 14.6629 19.2787C14.9669 19.3576 15.1762 19.4146 15.5321 19.4643C16.4392 19.5905 17.5159 19.6091 18.4143 19.3366C18.8973 19.1901 19.7033 18.697 19.8144 19.5176C19.9305 20.3741 20.0414 21.3045 20.5214 21.9746C21.3369 23.1134 21.8122 22.6605 21.8122 24.9611V29.1799H22.2224C22.2224 26.7838 22.1257 26.9368 22.3933 24.6046C22.448 24.1286 22.5145 23.6349 22.5674 23.1931C22.6156 22.7908 22.5856 22.7602 22.3862 22.5707C22.2408 22.4325 22.1439 22.338 22.0331 22.1621C21.4885 21.2963 21.7028 20.5102 21.9955 19.6366C22.4356 18.3229 22.4699 17.0612 21.5965 15.9776C20.0703 14.0831 17.6117 15.3845 17.5378 14.4673C17.4801 13.7501 18.9793 13.9802 19.3764 14.0374C20.3239 14.1742 19.8533 14.1136 20.6405 14.297C20.6405 13.8951 20.5956 13.1367 20.6439 12.7772C20.6999 12.3613 21.1917 12.137 21.5908 12.409C21.9089 12.6259 22.1149 12.891 22.3404 13.1828C23.1895 14.2805 23.1012 15.4138 23.1012 16.9337L23.1048 18.3407C23.0305 19.4147 22.5685 20.1129 22.5149 20.7446C22.4844 21.1034 22.5615 21.4367 22.7215 21.7081L22.8718 21.9095C23.1873 22.2278 23.3963 22.2526 23.3991 22.9096C23.4007 23.3062 23.3131 23.8213 23.2598 24.2407C22.98 26.4451 23.0429 27.7184 23.0429 30.0002H22.9403C22.4318 30.0001 21.9233 30.0001 21.4149 30.0002ZM7.57392 20.0392C7.93241 20.1228 8.57663 20.6273 8.82016 20.9024C9.74151 21.9441 9.23947 25.1706 9.06397 26.4511C8.9705 27.1331 8.86457 28.6704 8.74586 29.1798H8.27706L8.57005 23.4376C8.57005 23.3267 7.65272 20.2033 7.57392 20.0392ZM13.6677 19.8049C13.9371 19.8676 14.0963 19.9654 14.3627 20.0473C14.5922 20.1178 14.8786 20.191 15.1648 20.2412C16.1144 20.4079 17.1525 20.4638 18.1072 20.26C18.4429 20.1882 18.7314 20.0567 19.0582 19.9806C19.0582 20.306 19.1169 20.3282 19.1169 20.6251C17.7574 21.2774 15.8175 21.2336 14.3192 20.9698C14.1101 20.9329 13.9667 20.8648 13.7262 20.8594L13.6677 19.8049ZM21.4607 13.4182C21.5289 13.468 21.7252 13.7024 21.7878 13.7942C22.0796 14.2225 22.2811 14.8869 22.2811 15.4688C22.1254 15.3646 22.026 15.2429 21.8865 15.102C21.7144 14.9278 21.6532 14.8947 21.4605 14.7659L21.4607 13.4182ZM6.63644 11.8946C6.83063 11.061 7.89262 10.9111 8.35566 11.5816C8.4707 11.7481 8.43225 11.7295 8.51144 11.8946C8.11185 12.4913 7.09912 12.5855 6.63644 11.8946ZM8.86295 10.8985C8.25119 10.4888 8.38713 10.3712 7.33954 10.3712C6.80448 10.3712 6.57838 10.7121 6.22632 10.8985C6.22632 9.68567 5.71295 8.522 6.23981 7.92376C6.62311 7.48864 7.44961 7.61729 8.15981 7.61729C9.44912 7.61729 9.06973 9.14292 8.99069 9.85439C8.94944 10.2253 8.93788 10.5774 8.86295 10.8985ZM3.64821 8.08597C4.34788 7.7502 4.9781 8.21671 5.17151 8.26171C5.17151 8.63381 5.224 8.86634 5.23023 9.14071C4.40444 9.14071 3.9369 8.73213 3.64821 8.08597ZM9.91772 9.14071L9.9529 8.66406C9.95764 8.47196 9.91772 8.62265 9.91772 8.37896C9.91772 8.07296 11.3105 7.7974 11.4587 8.10155C11.5021 8.19088 11.2423 8.52386 11.159 8.62391C10.9305 8.8973 10.4178 9.14071 9.91772 9.14071Z" fill="#222222"/>
<path opacity="0.99" d="M7.66525 12.5681C8.28008 12.5681 8.7785 12.2323 8.7785 11.8179C8.7785 11.4036 8.28008 11.0677 7.66525 11.0677C7.05042 11.0677 6.552 11.4036 6.552 11.8179C6.552 12.2323 7.05042 12.5681 7.66525 12.5681Z" fill="#FF0000"/>
</g>
<defs>
<clipPath id="clip0_20_768">
<rect width="23.3978" height="30" fill="white"/>
</clipPath>
</defs>
</svg>
