<svg width="19" height="30" viewBox="0 0 19 30" fill="none" xmlns="http://www.w3.org/2000/svg">
<g clip-path="url(#clip0_20_664)">
<path d="M0 28.715V17.6202H2.95435V29.1236H0V28.715ZM0.817154 18.4373V28.3065H2.13719V18.4373H0.817154Z" fill="#222222"/>
<path d="M2.546 20.0389C3.46299 20.0389 4.29623 20.4139 4.90012 21.0178C5.50364 21.6232 5.87895 22.4564 5.87895 23.3719C5.87895 24.2874 5.50397 25.12 4.90012 25.7245L4.89857 25.726C4.29411 26.3299 3.46116 26.7048 2.546 26.7048H2.13745V20.0389H2.546ZM4.32252 21.5955C3.95817 21.2311 3.4834 20.9769 2.95461 20.8896V25.8544C3.47303 25.7685 3.95145 25.5221 4.32252 25.15L4.32402 25.1485C4.77918 24.6935 5.0618 24.0646 5.0618 23.3721C5.0618 22.6796 4.77918 22.0507 4.32402 21.5955L4.32252 21.5955Z" fill="#222222"/>
<path d="M5.75929 0.000329175L13.9522 0C14.0206 3.66531e-05 14.0878 0.01722 14.1478 0.0499759C14.2077 0.0827319 14.2585 0.130013 14.2955 0.187489C17.0418 3.97136 18.3374 7.02554 18.3265 9.42142C18.3153 11.915 16.9346 13.6819 14.3359 14.8011C14.285 14.8231 14.2301 14.8344 14.1747 14.8344L5.53681 14.8347C5.47366 14.8348 5.41135 14.8201 5.35483 14.792C2.76991 13.6722 1.39607 11.9085 1.38483 9.42142C1.37402 7.02168 2.6736 3.96181 5.42899 0.16929C5.46683 0.117092 5.51648 0.0745781 5.57388 0.0452154C5.63129 0.0158527 5.69481 0.000472573 5.75929 0.000329175ZM13.7441 0.817154H5.96738C3.40056 4.38588 2.18896 7.22935 2.19888 9.41803C2.20829 11.5233 3.39252 13.0347 5.62146 14.0174H14.0902C16.3192 13.0346 17.5033 11.5233 17.5126 9.41803C17.5226 7.22935 16.311 4.38588 13.7442 0.817154H13.7441Z" fill="#222222"/>
<path d="M6.78459 2.79718C6.84469 2.70745 6.93797 2.64527 7.04391 2.62432C7.14985 2.60336 7.25977 2.62535 7.3495 2.68545C7.43923 2.74554 7.50141 2.83882 7.52236 2.94477C7.54332 3.05071 7.52133 3.16063 7.46123 3.25036C6.77166 4.28022 5.9286 5.66506 5.37761 7.01732C4.85564 8.29867 4.59757 9.5328 5.01294 10.3345C5.09885 10.4982 5.21547 10.6484 5.3518 10.785C5.49541 10.9287 5.66315 11.06 5.84175 11.1783C5.93191 11.238 5.99467 11.331 6.01624 11.4369C6.0378 11.5429 6.0164 11.653 5.95675 11.7432C5.89709 11.8334 5.80406 11.8961 5.69812 11.9177C5.59218 11.9393 5.48202 11.9179 5.39186 11.8582C5.17179 11.7124 4.96112 11.5467 4.77419 11.3597C4.58007 11.1654 4.41314 10.9494 4.28918 10.7108V10.7091C3.7427 9.65666 4.01832 8.19018 4.62117 6.71105C5.19539 5.30189 6.06986 3.86442 6.78459 2.79718Z" fill="#222222"/>
<path d="M14.2326 14.4264C14.2326 15.5388 13.7366 16.5447 12.9347 17.2714C12.1439 17.9882 11.0551 18.4318 9.85599 18.4318C8.65689 18.4318 7.56806 17.9883 6.77715 17.2713C5.97541 16.5446 5.47925 15.5387 5.47925 14.4263C5.47929 14.3179 5.52234 14.214 5.59895 14.1374C5.67556 14.0608 5.77946 14.0177 5.8878 14.0177H13.8238C13.9322 14.0177 14.0361 14.0607 14.1128 14.1374C14.1895 14.214 14.2326 14.318 14.2326 14.4264ZM12.389 16.6682C12.9226 16.1843 13.285 15.546 13.3865 14.835H6.32551C6.42695 15.5461 6.78942 16.1843 7.32316 16.6681C7.96825 17.2529 8.86375 17.6147 9.85613 17.6147C10.8485 17.6147 11.744 17.2529 12.389 16.6682Z" fill="#222222"/>
<path d="M9.85583 18.9862C10.6475 18.9862 11.2893 18.555 11.2893 18.0231C11.2893 17.4911 10.6475 17.0599 9.85583 17.0599C9.06415 17.0599 8.42236 17.4911 8.42236 18.0231C8.42236 18.555 9.06415 18.9862 9.85583 18.9862Z" fill="white"/>
<path d="M9.85585 17.4684C9.54134 17.4684 9.26333 17.5494 9.06878 17.6803C8.92192 17.779 8.83088 17.9013 8.83088 18.023C8.83088 18.1447 8.92192 18.2669 9.06878 18.3656C9.26352 18.4963 9.54144 18.5774 9.85585 18.5774C10.1703 18.5774 10.448 18.4964 10.6428 18.3656C10.7896 18.2668 10.8807 18.1446 10.8807 18.023C10.8807 17.9014 10.7896 17.7789 10.6428 17.6803C10.448 17.5494 10.1702 17.4684 9.85585 17.4684ZM8.6156 17.0036C8.93956 16.7861 9.37873 16.6512 9.85585 16.6512C10.333 16.6512 10.7721 16.7861 11.0959 17.0036C11.4674 17.2533 11.6978 17.6133 11.6978 18.023C11.6978 18.4327 11.4674 18.7925 11.0959 19.0422C10.7721 19.2597 10.3328 19.3946 9.85585 19.3946C9.37887 19.3946 8.9397 19.2597 8.6156 19.0422C8.2441 18.7925 8.01367 18.4328 8.01367 18.023C8.01367 17.6131 8.24391 17.2535 8.6156 17.0036Z" fill="#222222"/>
<path d="M10.2643 18.9861C10.2643 19.465 10.2018 19.9168 10.0767 20.3464C9.95136 20.7774 9.76467 21.1787 9.51756 21.5556C9.07989 22.2225 8.4689 22.79 7.75214 23.1844C7.06845 23.5606 6.28807 23.7803 5.46997 23.7803V22.9632C6.14713 22.9632 6.7934 22.7812 7.35967 22.4694C7.95844 22.1399 8.46904 21.6656 8.83466 21.1086C9.04021 20.7953 9.19384 20.4669 9.29485 20.1196C9.39637 19.7708 9.44716 19.3942 9.44716 18.986L10.2643 18.9861Z" fill="#222222"/>
<path d="M5.50183 23.7791C5.44839 23.7833 5.39465 23.7769 5.34368 23.7603C5.2927 23.7437 5.24549 23.7173 5.20475 23.6824C5.164 23.6476 5.13051 23.6051 5.10619 23.5573C5.08187 23.5096 5.0672 23.4575 5.06301 23.404C5.05883 23.3506 5.06521 23.2969 5.08179 23.2459C5.09837 23.1949 5.12483 23.1477 5.15966 23.107C5.19448 23.0662 5.237 23.0327 5.28476 23.0084C5.33253 22.9841 5.38462 22.9694 5.43806 22.9652C5.85075 22.9315 6.26622 22.8834 6.6847 22.8351C9.34674 22.5279 12.1316 22.2067 13.8483 25.1791C14.6712 26.6027 14.4575 27.859 13.7866 28.737C13.4532 29.1734 13.0057 29.5125 12.5169 29.7281C12.026 29.9447 11.4883 30.039 10.9776 29.9854C10.0456 29.8878 9.21229 29.3168 8.8944 28.1307C8.59885 27.0272 8.88824 26.2607 9.39066 25.8232C9.69101 25.5617 10.0674 25.4231 10.444 25.4028C10.8194 25.3825 11.1985 25.4815 11.5051 25.6941C11.9878 26.0287 12.289 26.624 12.1238 27.4525C12.1027 27.5587 12.0402 27.6522 11.9502 27.7124C11.8601 27.7725 11.7498 27.7944 11.6436 27.7733C11.5374 27.7521 11.4439 27.6897 11.3838 27.5996C11.3236 27.5095 11.3017 27.3993 11.3228 27.293C11.414 26.8355 11.2741 26.525 11.0424 26.3644C10.886 26.2559 10.6868 26.2058 10.4856 26.2167C10.2855 26.2274 10.0859 26.3009 9.92698 26.4391C9.63796 26.6908 9.48283 27.1738 9.68268 27.9201C9.89829 28.7248 10.4483 29.1106 11.0605 29.1748C11.4285 29.2134 11.8226 29.1426 12.1882 28.9812C12.5561 28.8188 12.8913 28.5661 13.1386 28.2423C13.6259 27.6043 13.7699 26.6721 13.1436 25.5873V25.5856C11.6962 23.078 9.18121 23.3683 6.77701 23.6458C6.34499 23.6955 5.91565 23.7452 5.50183 23.7791Z" fill="#222222"/>
</g>
<defs>
<clipPath id="clip0_20_664">
<rect width="18.3267" height="30" fill="white"/>
</clipPath>
</defs>
</svg>
