<svg width="27" height="30" viewBox="0 0 27 30" fill="none" xmlns="http://www.w3.org/2000/svg">
<g clip-path="url(#clip0_20_710)">
<path d="M6.32089 24.3358C6.34742 24.2893 6.38287 24.2485 6.42521 24.2157C6.46754 24.1829 6.51593 24.1588 6.5676 24.1448C6.61927 24.1307 6.6732 24.127 6.7263 24.1339C6.77941 24.1407 6.83064 24.1579 6.87706 24.1846C6.92349 24.2113 6.96419 24.2469 6.99684 24.2893C7.02949 24.3317 7.05344 24.3802 7.06733 24.4319C7.08121 24.4836 7.08476 24.5376 7.07776 24.5906C7.07076 24.6437 7.05335 24.6949 7.02653 24.7413L5.30594 27.7215C5.252 27.8148 5.16329 27.8828 5.05927 27.9107C4.95525 27.9386 4.8444 27.9242 4.75101 27.8705C4.65763 27.8169 4.58933 27.7284 4.56107 27.6245C4.53282 27.5205 4.54693 27.4096 4.6003 27.3161L6.32089 24.3358ZM3.18361 22.5549C3.22994 22.5281 3.28111 22.5106 3.33419 22.5036C3.38726 22.4965 3.44121 22.5 3.49295 22.5137C3.54468 22.5275 3.5932 22.5514 3.63573 22.5839C3.67825 22.6164 3.71395 22.657 3.74078 22.7034C3.76762 22.7497 3.78507 22.8009 3.79213 22.8539C3.79919 22.907 3.79573 22.961 3.78195 23.0127C3.76816 23.0644 3.74432 23.113 3.71178 23.1555C3.67924 23.198 3.63865 23.2337 3.59232 23.2605L0.612118 24.9811C0.518544 25.0353 0.407271 25.0501 0.302776 25.0223C0.198281 24.9945 0.109125 24.9263 0.054921 24.8327C0.000716872 24.7391 -0.0140952 24.6278 0.0137433 24.5233C0.0415818 24.4188 0.10979 24.3297 0.203364 24.2755L3.18361 22.5549ZM8.59263 26.1475C8.59205 26.0937 8.60215 26.0403 8.62235 25.9904C8.64255 25.9405 8.67244 25.8951 8.7103 25.8568C8.74816 25.8185 8.79323 25.7882 8.84291 25.7674C8.89258 25.7467 8.94588 25.736 8.99971 25.736C9.05354 25.736 9.10684 25.7467 9.15651 25.7674C9.20619 25.7882 9.25126 25.8185 9.28912 25.8568C9.32698 25.8951 9.35687 25.9405 9.37707 25.9904C9.39727 26.0403 9.40737 26.0937 9.40679 26.1475V29.5887C9.40679 29.6967 9.3639 29.8003 9.28755 29.8766C9.21121 29.953 9.10766 29.9958 8.99969 29.9958C8.89171 29.9958 8.78816 29.953 8.71182 29.8766C8.63547 29.8003 8.59258 29.6967 8.59258 29.5887L8.59263 26.1475Z" fill="#222222"/>
<path d="M26.5485 0.393934V23.0692H23.6277V-0.0147705H26.5485V0.393934ZM25.731 22.2518V0.802686H24.4451V22.2518H25.731Z" fill="#222222"/>
<path d="M12.5518 7.84866L16.5813 10.1746L18.1429 7.46964C18.4621 6.91656 18.5257 6.28154 18.371 5.70452C18.2164 5.1275 17.8442 4.61031 17.2921 4.29174L17.2763 4.28262C16.727 3.97129 16.0984 3.91032 15.527 4.06345C14.9503 4.21793 14.4329 4.59032 14.1142 5.14222L12.5518 7.84866ZM16.5276 11.0833L11.4402 8.14667C11.8043 7.51569 13.1745 4.94845 13.441 4.68196C13.8756 3.96221 14.5588 3.47768 15.3163 3.27474C16.0925 3.06676 16.9487 3.15379 17.6975 3.58587L17.7519 3.6181C18.4714 4.05263 18.9565 4.73601 19.1596 5.49367C19.3675 6.26987 19.2806 7.12604 18.8485 7.87491L16.8792 11.2864L16.5276 11.0833Z" fill="#222222"/>
<path d="M24.0365 12.2079C23.258 12.2079 22.5505 11.8896 22.0379 11.377C21.5254 10.8645 21.207 10.1569 21.207 9.37855C21.207 8.60126 21.5256 7.89392 22.0387 7.38067C22.5505 6.86729 23.258 6.54895 24.0365 6.54895H24.4452V12.2079H24.0365ZM22.6158 10.7992C22.8926 11.0767 23.2443 11.2676 23.6278 11.3483V7.40857C23.2443 7.48933 22.8926 7.68016 22.6158 7.95771H22.6143C22.2505 8.32135 22.0245 8.82434 22.0245 9.37841C22.0245 9.9314 22.251 10.4345 22.6158 10.7992H22.6158Z" fill="#222222"/>
<path d="M21.4171 8.42H18.5338L17.434 10.3259L21.4172 10.3365C21.4019 10.281 21.388 10.225 21.3754 10.1686C21.2573 9.64832 21.2573 9.10819 21.3754 8.58794C21.3879 8.53149 21.4018 8.47551 21.4171 8.42ZM18.2999 7.60254H22.0021C22.0623 7.60326 22.1217 7.61688 22.1762 7.64248C22.274 7.68864 22.3494 7.77175 22.3859 7.87354C22.4225 7.97533 22.4171 8.08745 22.3709 8.18526C22.1942 8.55808 22.1025 8.96552 22.1025 9.37812C22.1025 9.79071 22.1942 10.1982 22.3709 10.571C22.3962 10.6255 22.4093 10.6849 22.4093 10.745C22.4093 10.853 22.3664 10.9565 22.29 11.0329C22.2137 11.1092 22.1101 11.1521 22.0022 11.1521L16.7303 11.138C16.6589 11.1379 16.5889 11.1191 16.5271 11.0834C16.4653 11.0477 16.414 10.9965 16.3782 10.9347C16.3425 10.8729 16.3236 10.8029 16.3235 10.7315C16.3234 10.6602 16.342 10.5901 16.3775 10.5282L17.9278 7.84203C17.9604 7.77065 18.0127 7.71013 18.0787 7.66769C18.1447 7.62525 18.2215 7.60268 18.2999 7.60268V7.60254Z" fill="#222222"/>
<path d="M5.75154 11.5358L5.75281 11.5512V11.5521L5.75399 11.5684L5.75502 11.5847V11.5854C5.75662 11.6125 5.7578 11.6396 5.75841 11.6667V11.6714C5.75902 11.6971 5.75888 11.7227 5.75841 11.7484V11.7575L5.75818 11.7648V11.7747V11.7812L5.75691 11.8137L5.75629 11.8261V11.8301L5.75559 11.8433V11.8464L5.75465 11.8606V11.8629L5.75347 11.8791L5.7523 11.8948V11.8954L5.74947 11.9252C5.77422 11.9164 5.79934 11.9076 5.82446 11.8993C6.37867 11.7167 7.00429 11.6894 7.73336 11.9009C8.79356 12.2082 9.27494 12.9222 9.35901 13.6669C9.3757 13.8159 9.37633 13.9662 9.36089 14.1154C9.38775 14.1057 9.41471 14.0963 9.44195 14.0871C9.99639 13.9043 10.6219 13.8771 11.3511 14.0886C12.4113 14.3959 12.8927 15.11 12.9767 15.8549C12.9936 16.0065 12.9939 16.1595 12.9777 16.3112C13.0074 16.3003 13.0374 16.2899 13.0676 16.2799C13.622 16.097 14.2477 16.0701 14.9766 16.2814C16.037 16.5889 16.5182 17.3027 16.6023 18.0475C16.6101 18.1168 16.6143 18.1865 16.6152 18.256C16.5665 18.3478 16.5162 18.439 16.4641 18.5297C16.0901 19.1781 15.6303 19.773 15.0971 20.2983C14.7275 20.366 14.3179 20.2995 13.8964 20.0442C13.225 19.6381 13.0048 19.1104 13.0465 18.642C13.0721 18.3563 13.1965 18.0986 13.3784 17.904C13.5624 17.7072 13.8083 17.57 14.0741 17.5276C14.4922 17.4607 14.9447 17.617 15.2679 18.1236C15.3252 18.2146 15.344 18.3245 15.3204 18.4294C15.2969 18.5343 15.2327 18.6256 15.1421 18.6834C15.0514 18.7412 14.9416 18.7607 14.8366 18.7378C14.7315 18.7149 14.6398 18.6514 14.5815 18.5611C14.4626 18.3748 14.3218 18.3132 14.2019 18.3323C14.1192 18.3455 14.0387 18.3921 13.9754 18.4598C13.9102 18.5296 13.8659 18.6182 13.8575 18.7125C13.8408 18.8993 13.962 19.1299 14.3177 19.3451C14.7015 19.5773 15.0563 19.5243 15.314 19.3241C15.477 19.1974 15.6083 19.0166 15.6929 18.8107C15.779 18.6013 15.8165 18.3669 15.7905 18.1373C15.7404 17.6936 15.433 17.2623 14.749 17.0639C14.1965 16.9037 13.7297 16.9217 13.3223 17.0561C12.9604 17.1755 12.6354 17.3887 12.3329 17.6522C12.3021 17.6816 12.2705 17.7098 12.2381 17.7368L12.1951 17.7768C12.1636 17.8065 12.1276 17.8309 12.0884 17.8493C11.5897 18.1854 10.9457 18.2595 10.2708 17.8514C9.59945 17.4452 9.3791 16.9176 9.42087 16.4492C9.44646 16.1636 9.57084 15.9061 9.75276 15.7112C9.93669 15.5144 10.1826 15.3772 10.4486 15.3348C10.8666 15.2679 11.3191 15.4242 11.6424 15.9308C11.6715 15.9758 11.6915 16.0262 11.701 16.079C11.7106 16.1318 11.7097 16.186 11.6982 16.2384C11.6868 16.2909 11.6651 16.3405 11.6344 16.3845C11.6037 16.4286 11.5646 16.4661 11.5193 16.4949C11.4741 16.5238 11.4236 16.5434 11.3707 16.5526C11.3178 16.5619 11.2637 16.5606 11.2113 16.5488C11.1589 16.537 11.1094 16.515 11.0656 16.484C11.0218 16.453 10.9845 16.4137 10.956 16.3683C10.8371 16.182 10.6962 16.1203 10.5763 16.1395C10.4935 16.1527 10.413 16.1993 10.3498 16.267C10.2846 16.3367 10.2402 16.4255 10.2318 16.5197C10.2152 16.7064 10.3365 16.9371 10.6922 17.1523C11.0759 17.3845 11.4307 17.3315 11.6883 17.1313C11.7014 17.1211 11.7141 17.1108 11.7267 17.0999L11.762 17.0683C11.891 16.9477 11.9958 16.7917 12.0673 16.618C12.1534 16.4084 12.1908 16.1742 12.165 15.9446C12.1149 15.5008 11.8074 15.0693 11.1234 14.871C10.5709 14.7108 10.1043 14.7289 9.69659 14.8633C9.36682 14.972 9.06753 15.1589 8.78796 15.3908C8.72121 15.4622 8.64897 15.5283 8.57189 15.5884C8.06087 15.9854 7.37466 16.1002 6.65321 15.6637C5.98186 15.2575 5.76147 14.7298 5.80329 14.2615C5.82874 13.9854 5.94553 13.7257 6.13518 13.5234C6.31911 13.3266 6.56505 13.1894 6.83094 13.1471C7.24915 13.0801 7.70123 13.2365 8.02469 13.743C8.0819 13.834 8.10077 13.9439 8.07719 14.0488C8.05361 14.1537 7.98949 14.245 7.89884 14.3028C7.80818 14.3606 7.69835 14.3801 7.59332 14.3572C7.48829 14.3343 7.39659 14.2708 7.33825 14.1805C7.21937 13.9942 7.07862 13.9325 6.9587 13.9517C6.87591 13.9649 6.79547 14.0115 6.73215 14.0792C6.66699 14.1489 6.62263 14.2377 6.61421 14.3319C6.59751 14.5187 6.71883 14.7493 7.07457 14.9645C7.4368 15.1839 7.77348 15.1488 8.02676 14.9755C8.08986 14.9167 8.15393 14.8595 8.21898 14.8039C8.31415 14.6967 8.39242 14.5691 8.44949 14.4301C8.53558 14.2207 8.57307 13.9862 8.5471 13.7567C8.497 13.3131 8.18958 12.8817 7.50558 12.6833C6.95306 12.5231 6.48654 12.5412 6.07896 12.6755C5.76283 12.7798 5.47498 12.9554 5.20557 13.1742C5.13065 13.258 5.04839 13.3349 4.95977 13.404L4.95615 13.4068L4.95252 13.4096L4.94899 13.4123L4.94537 13.4151L4.9418 13.4178L4.93817 13.4205L4.93568 13.4224L4.93455 13.4233L4.93093 13.426L4.92731 13.4287L4.92354 13.4314L4.91992 13.4341L4.9163 13.4368L4.91268 13.4394L4.91141 13.4404L4.90896 13.442L4.90534 13.4447L4.90162 13.4474L4.898 13.45L4.89424 13.4526L4.89061 13.4553L4.8869 13.4578L4.88328 13.4602L4.87965 13.4628L4.87594 13.4654L4.87222 13.468L4.86846 13.4705L4.86474 13.4731L4.86215 13.4748L4.86098 13.4757L4.85726 13.4781L4.8535 13.4807L4.84978 13.4832L4.8423 13.4881L4.83844 13.4906L4.83703 13.4915L4.83473 13.4931L4.83096 13.4955L4.82711 13.498L4.82339 13.5004L4.81953 13.5029L4.81196 13.5076L4.80834 13.5099L4.80457 13.5123L4.80072 13.5146L4.79686 13.517L4.793 13.5194L4.78919 13.5217L4.78637 13.5235L4.78543 13.524L4.78157 13.5264L4.77771 13.5287L4.77376 13.531L4.7699 13.5333L4.76605 13.5355L4.76219 13.5378L4.76068 13.5388L4.75833 13.54L4.75447 13.5424L4.75052 13.5446L4.74666 13.5468L4.74271 13.5491L4.73885 13.5513L4.73486 13.5535H4.73462L4.731 13.5555L4.72705 13.5577L4.72319 13.5599L4.71924 13.5621C4.89222 13.0645 5.112 12.5845 5.37562 12.1284C5.49354 11.9238 5.61885 11.7263 5.75154 11.5358Z" fill="#222222"/>
<path d="M17.0972 10.5523C17.7244 11.837 18.0269 13.2559 17.9784 14.6847C17.9314 16.0661 17.5542 17.4555 16.8159 18.7343C16.0776 20.013 15.0633 21.0341 13.8916 21.7651C12.6775 22.5216 11.2965 22.9689 9.86948 23.0678L9.74684 23.0763C8.09568 22.1249 6.44532 21.172 4.79576 20.2177L4.74124 20.1063C4.11419 18.8215 3.81161 17.4025 3.85999 15.9736C3.90731 14.5922 4.28436 13.2028 5.02264 11.9241C5.76258 10.6446 6.77658 9.62346 7.9468 8.89335C9.16087 8.13687 10.5419 7.68958 11.9689 7.59065L12.0917 7.58228L17.0427 10.4409L17.0972 10.5523ZM17.1643 14.6591C17.2063 13.4041 16.9499 12.157 16.416 11.0204L11.902 8.41423C10.6511 8.52049 9.44324 8.92214 8.37776 9.58615C7.31578 10.2487 6.39661 11.1737 5.72828 12.3313V12.3329C5.05891 13.4923 4.71687 14.7503 4.67425 15.9991C4.63125 17.2551 4.89064 18.5047 5.42255 19.6382L9.93642 22.2444C11.1874 22.1382 12.3953 21.7365 13.4607 21.0724C14.5219 20.4103 15.4409 19.4849 16.1103 18.3256C16.7797 17.1663 17.1216 15.9081 17.1643 14.6592V14.6591Z" fill="#222222"/>
</g>
<defs>
<clipPath id="clip0_20_710">
<rect width="26.5487" height="30" fill="white"/>
</clipPath>
</defs>
</svg>
