<svg width="22" height="30" viewBox="0 0 22 30" fill="none" xmlns="http://www.w3.org/2000/svg">
<g clip-path="url(#clip0_20_741)">
<path d="M14.1958 30H6.08032V27.6415H14.6044V30H14.1958ZM6.8973 29.1829H13.7874V28.4585H6.8973V29.1829Z" fill="#222222"/>
<path d="M7.82471 28.0501C7.82471 27.3585 8.10788 26.7294 8.56387 26.2732V26.2718C9.02 25.8157 9.64946 25.5326 10.3422 25.5326C11.0337 25.5326 11.6631 25.816 12.1199 26.2726C12.5768 26.7279 12.86 27.3576 12.86 28.0501V28.4587H7.82471V28.0501ZM9.14109 26.8489C8.92195 27.0673 8.76657 27.3414 8.69168 27.6415H11.9927C11.9175 27.3415 11.7621 27.0677 11.5431 26.8493V26.8478C11.3856 26.6898 11.1985 26.5644 10.9924 26.4789C10.7864 26.3934 10.5655 26.3495 10.3424 26.3496C9.87494 26.3496 9.44961 26.541 9.14095 26.8489H9.14109Z" fill="#222222"/>
<path d="M10.3419 0.817122C10.1941 0.816649 10.0477 0.845395 9.91106 0.901707C9.77441 0.958019 9.65024 1.04079 9.54569 1.14525V1.14675C9.33459 1.35798 9.21601 1.64438 9.21601 1.943C9.21601 2.24162 9.33459 2.52802 9.54569 2.73924V2.74075C9.67675 2.87164 9.83806 2.96819 10.0153 3.02187C10.1926 3.07554 10.3804 3.08466 10.5621 3.04844C10.7437 3.01222 10.9136 2.93176 11.0568 2.8142C11.1999 2.69664 11.3118 2.54559 11.3827 2.37444C11.4535 2.20329 11.481 2.01732 11.4628 1.83299C11.4446 1.64866 11.3813 1.47166 11.2783 1.31766C11.1754 1.16366 11.0361 1.03742 10.8727 0.950113C10.7094 0.862806 10.527 0.817127 10.3418 0.817122H10.3419ZM8.96885 0.569639C9.32134 0.217952 9.80681 0 10.3419 0C10.8572 7.67879e-09 11.3515 0.204708 11.7158 0.569091C12.0802 0.933474 12.2849 1.42768 12.2849 1.943C12.2849 2.45831 12.0802 2.95252 11.7158 3.31691C11.3515 3.68129 10.8572 3.886 10.3419 3.886C9.80681 3.886 9.32153 3.66804 8.96885 3.31598C8.78822 3.13585 8.64491 2.92186 8.54711 2.68625C8.44931 2.45065 8.39896 2.19807 8.39893 1.94297C8.3989 1.68788 8.44919 1.43528 8.54693 1.19966C8.64467 0.964029 8.78794 0.75 8.96852 0.569827L8.96885 0.569639Z" fill="#222222"/>
<path d="M9.12841 3.06897H11.5559C11.9172 3.07109 12.2629 3.21609 12.5177 3.47231C12.7724 3.72853 12.9154 4.07514 12.9154 4.43643C12.9154 4.79772 12.7724 5.14433 12.5177 5.40054C12.2629 5.65676 11.9172 5.80177 11.5559 5.80388H9.12841C8.94891 5.80385 8.77118 5.76838 8.60543 5.69951C8.43967 5.63064 8.28914 5.52972 8.16247 5.40254C7.91475 5.15482 7.76099 4.81292 7.76099 4.43659C7.76176 4.07415 7.90606 3.72676 8.16233 3.47045C8.4186 3.21415 8.76596 3.06979 9.12841 3.06897ZM11.5559 3.88609H9.12841C8.98245 3.88609 8.84247 3.94407 8.73926 4.04728C8.63606 4.15049 8.57808 4.29047 8.57808 4.43643C8.57808 4.58239 8.63606 4.72237 8.73926 4.82557C8.84247 4.92878 8.98245 4.98676 9.12841 4.98676H11.5559C11.7019 4.98676 11.8418 4.92878 11.9451 4.82557C12.0483 4.72237 12.1062 4.58239 12.1062 4.43643C12.1062 4.29047 12.0483 4.15049 11.9451 4.04728C11.8418 3.94407 11.7019 3.88609 11.5559 3.88609Z" fill="#222222"/>
<path d="M4.44533 8.67833C3.77391 8.67835 3.12487 8.91973 2.6166 9.35845C2.10833 9.79716 1.7747 10.404 1.67657 11.0682H7.21394C7.12663 10.4733 6.84955 9.92257 6.42396 9.4979C5.91785 8.99164 5.21806 8.67833 4.44533 8.67833ZM1.88893 8.92036C2.54307 8.26603 3.44699 7.86121 4.44533 7.86121C5.44367 7.86121 6.34745 8.26603 7.00192 8.92036C7.65638 9.57468 8.06087 10.4786 8.06087 11.4768V11.8854H0.829834V11.4768C0.829834 10.4785 1.23465 9.5745 1.88893 8.92036Z" fill="#222222"/>
<path d="M0.40884 11.8851C0.301242 11.884 0.198443 11.8404 0.122765 11.7639C0.0470864 11.6874 0.00463867 11.5842 0.00463867 11.4766C0.00463867 11.369 0.0470864 11.2657 0.122765 11.1892C0.198443 11.1127 0.301242 11.0691 0.40884 11.068H8.48178C8.58938 11.0691 8.69218 11.1127 8.76786 11.1892C8.84353 11.2657 8.88598 11.369 8.88598 11.4766C8.88598 11.5842 8.84353 11.6874 8.76786 11.7639C8.69218 11.8404 8.58938 11.884 8.48178 11.8851H0.40884Z" fill="#222222"/>
<path d="M4.44594 13.2514C4.21284 13.2517 3.98198 13.2059 3.76664 13.1167C3.55129 13.0275 3.35569 12.8966 3.19108 12.7315V12.73C2.86982 12.4086 2.67114 11.9654 2.67114 11.4765V11.068H6.22059V11.4765C6.22059 11.9656 6.02192 12.4086 5.70066 12.73V12.7315C5.53607 12.8966 5.34049 13.0274 5.12517 13.1167C4.90984 13.2059 4.67901 13.2517 4.44594 13.2514ZM3.76796 12.1546C3.94794 12.3338 4.19164 12.4344 4.44565 12.4343C4.69966 12.4342 4.94326 12.3334 5.12307 12.1539C5.20174 12.0763 5.26601 11.9852 5.31291 11.8851H3.57883C3.62583 11.9852 3.68982 12.0764 3.76796 12.1546Z" fill="#222222"/>
<path d="M4.6472 6.71631C4.6634 6.76751 4.66932 6.8214 4.66463 6.87489C4.65995 6.92838 4.64474 6.98041 4.61989 7.02801C4.59503 7.07561 4.56102 7.11783 4.51981 7.15225C4.4786 7.18666 4.43099 7.2126 4.37973 7.22857C4.32846 7.24454 4.27455 7.25023 4.22108 7.24531C4.16761 7.24039 4.11564 7.22495 4.06815 7.19989C4.02066 7.17483 3.97859 7.14064 3.94435 7.09928C3.91012 7.05791 3.88439 7.01019 3.86864 6.95886C3.67006 6.3263 3.85848 5.83383 4.21078 5.52879C4.43428 5.33524 4.72437 5.22507 5.02137 5.20955C5.31526 5.19398 5.62101 5.27115 5.87954 5.45177C6.30642 5.74989 6.59641 6.31525 6.46159 7.18114C6.32523 8.05535 5.75154 8.5157 5.0462 8.64356C4.65002 8.71536 4.21497 8.67554 3.80361 8.54086C3.39643 8.40755 3.00515 8.17977 2.69184 7.87478C2.04809 7.24829 1.72429 6.31196 2.21441 5.20386C3.17594 3.02974 5.63944 3.04667 8.56358 3.06675C8.72816 3.06793 8.90116 3.06905 9.41409 3.06905H11.8076V3.07065L12.2865 3.07009C15.3751 3.06426 18.0585 3.05923 19.0072 5.20381C19.4974 6.31196 19.1736 7.24824 18.5299 7.87473C18.2164 8.17972 17.8253 8.4075 17.418 8.54081C17.0067 8.67539 16.5716 8.71532 16.1755 8.64351C15.4701 8.51556 14.8964 8.05572 14.7601 7.18109C14.6251 6.31506 14.9152 5.74971 15.3419 5.45172C15.6005 5.27124 15.9062 5.19394 16.2 5.2095C16.4968 5.22502 16.7869 5.3351 17.0106 5.52874C17.3631 5.83378 17.5514 6.32626 17.3529 6.95881C17.3208 7.06206 17.2489 7.14831 17.1531 7.19857C17.0574 7.24884 16.9456 7.25901 16.8423 7.22684C16.7391 7.19468 16.6528 7.12282 16.6026 7.02707C16.5523 6.93131 16.5421 6.81952 16.5743 6.71627C16.6597 6.44414 16.6006 6.25074 16.4777 6.14461C16.393 6.07153 16.2786 6.02963 16.1585 6.02333C16.0355 6.0168 15.9102 6.04727 15.8079 6.1187C15.6125 6.25506 15.486 6.55413 15.5643 7.05667C15.6377 7.5269 15.9437 7.77429 16.3193 7.84238C16.5797 7.8894 16.8767 7.85978 17.1661 7.76507C17.4598 7.669 17.7398 7.50644 17.9621 7.29047C18.3797 6.884 18.5867 6.26931 18.2606 5.53227C17.527 3.87386 15.0908 3.87842 12.2868 3.88364L11.8078 3.88425V3.88585H9.41432L8.56052 3.88025C5.92553 3.86219 3.70603 3.84691 2.96081 5.53232C2.63475 6.26945 2.84184 6.88414 3.25941 7.29051C3.4814 7.50659 3.76171 7.66905 4.05528 7.76512C4.34475 7.85992 4.64161 7.88959 4.90216 7.84242C5.27778 7.77448 5.58362 7.52737 5.65707 7.05671C5.73541 6.55427 5.60897 6.25511 5.41354 6.11874C5.31117 6.04731 5.18595 6.01684 5.06289 6.02338C4.94265 6.02968 4.82815 6.07158 4.74374 6.14465C4.62082 6.25102 4.56186 6.4441 4.6472 6.71631Z" fill="#222222"/>
<path d="M10.6503 25.5531V22.9691H10.034V25.553C10.1236 25.542 10.2137 25.5358 10.304 25.5345L10.3391 25.534L10.3422 25.5324L10.3456 25.534L10.3804 25.5344C10.4706 25.5358 10.5608 25.5421 10.6503 25.5531ZM11.4675 22.5606V26.6494L10.9201 26.45C10.8314 26.4177 10.7402 26.3929 10.6474 26.3758C10.5546 26.3586 10.4604 26.3494 10.366 26.3482L10.3425 26.3479V26.3495L10.3423 26.3479L10.3185 26.3482C10.1293 26.3509 9.94201 26.3853 9.76433 26.4502L9.2168 26.6492V22.152H11.4674L11.4675 22.5606Z" fill="#222222"/>
<path d="M9.93286 22.5605V5.39514H10.75V22.5605H9.93286Z" fill="#222222"/>
<path d="M16.7746 7.86121C17.7729 7.86121 18.6768 8.26603 19.331 8.92031C19.9852 9.57459 20.3901 10.4785 20.3901 11.4768V11.8853H13.1592V11.4768C13.1592 10.4786 13.564 9.5745 14.2182 8.92031C14.8724 8.26612 15.7764 7.86121 16.7746 7.86121ZM18.7534 9.49789C18.2473 8.99164 17.5475 8.67833 16.7746 8.67833C16.0017 8.67833 15.302 8.99164 14.7958 9.49789C14.3702 9.92257 14.0931 10.4733 14.0058 11.0682H19.5433C19.4561 10.4733 19.179 9.92256 18.7534 9.49789Z" fill="#222222"/>
<path d="M20.812 11.068C20.9196 11.0691 21.0224 11.1127 21.098 11.1892C21.1737 11.2657 21.2162 11.369 21.2162 11.4766C21.2162 11.5842 21.1737 11.6874 21.098 11.7639C21.0224 11.8404 20.9196 11.884 20.812 11.8851H12.7389C12.6313 11.884 12.5285 11.8404 12.4528 11.7639C12.3772 11.6874 12.3347 11.5842 12.3347 11.4766C12.3347 11.369 12.3772 11.2657 12.4528 11.1892C12.5285 11.1127 12.6313 11.0691 12.7389 11.068H20.812Z" fill="#222222"/>
<path d="M16.7758 13.2514C16.5427 13.2517 16.3118 13.2059 16.0965 13.1167C15.8811 13.0275 15.6855 12.8966 15.5209 12.7315V12.73C15.1997 12.4086 15.001 11.9654 15.001 11.4765V11.068H18.5505V11.4765C18.5505 11.9656 18.3519 12.4086 18.0306 12.73V12.7315C17.866 12.8966 17.6704 13.0274 17.4551 13.1167C17.2397 13.2059 17.0089 13.2517 16.7758 13.2514ZM16.0978 12.1546C16.2778 12.3338 16.5215 12.4344 16.7755 12.4343C17.0295 12.4342 17.2732 12.3334 17.453 12.1539C17.5316 12.0762 17.5959 11.9852 17.6428 11.8851H15.9089C15.9558 11.9852 16.0197 12.0764 16.0978 12.1546Z" fill="#222222"/>
</g>
<defs>
<clipPath id="clip0_20_741">
<rect width="21.2197" height="30" fill="white"/>
</clipPath>
</defs>
</svg>
