<svg width="16" height="30" viewBox="0 0 16 30" fill="none" xmlns="http://www.w3.org/2000/svg">
<g clip-path="url(#clip0_20_677)">
<path d="M10.9563 2.42821H4.16666L1.03092 9.59205H14.0922L10.9563 2.42821ZM3.90074 1.61108H11.2223C11.3016 1.6116 11.3791 1.63508 11.4454 1.67869C11.5117 1.7223 11.5639 1.78417 11.5958 1.85683L15.0767 9.80902C15.1097 9.87127 15.1261 9.94103 15.1242 10.0115C15.1223 10.082 15.1023 10.1507 15.066 10.2112C15.0296 10.2716 14.9783 10.3216 14.917 10.3563C14.8556 10.391 14.7863 10.4092 14.7158 10.4093H0.407343C0.351255 10.4083 0.295904 10.3963 0.244408 10.374C0.145452 10.3308 0.0676964 10.2501 0.0282158 10.1496C-0.0112648 10.0491 -0.0092428 9.937 0.0338378 9.83798L3.51473 1.88561C3.54265 1.80546 3.5948 1.73598 3.66396 1.6868C3.73313 1.63761 3.81587 1.61115 3.90074 1.61108Z" fill="#222222"/>
<path d="M4.75657 3.31741C4.77795 3.26837 4.80879 3.22403 4.84731 3.18691C4.88583 3.14978 4.93129 3.12061 4.98108 3.10106C5.03088 3.08151 5.08404 3.07195 5.13753 3.07295C5.19101 3.07394 5.24378 3.08545 5.29282 3.10684C5.34186 3.12822 5.3862 3.15906 5.42332 3.19758C5.46044 3.2361 5.48961 3.28156 5.50917 3.33135C5.52872 3.38115 5.53827 3.43431 5.53728 3.4878C5.53629 3.54128 5.52477 3.59405 5.50339 3.64309L3.2886 8.70279C3.24541 8.80182 3.16465 8.87964 3.06408 8.91913C2.96351 8.95862 2.85138 8.95654 2.75234 8.91336C2.65331 8.87017 2.57549 8.78941 2.536 8.68884C2.49651 8.58827 2.49859 8.47614 2.54177 8.3771L4.75657 3.31741ZM9.61971 3.64309C9.59832 3.59405 9.5868 3.54128 9.58581 3.4878C9.58482 3.43431 9.59438 3.38115 9.61393 3.33135C9.63348 3.28156 9.66265 3.2361 9.69977 3.19758C9.73689 3.15906 9.78124 3.12822 9.83028 3.10684C9.87931 3.08545 9.93208 3.07394 9.98557 3.07295C10.0391 3.07195 10.0922 3.08151 10.142 3.10106C10.1918 3.12061 10.2373 3.14978 10.2758 3.18691C10.3143 3.22403 10.3451 3.26837 10.3665 3.31741L12.5813 8.3771C12.6235 8.47597 12.6248 8.58747 12.5851 8.68735C12.5454 8.78722 12.4679 8.86736 12.3694 8.91031C12.2709 8.95327 12.1594 8.95556 12.0592 8.91669C11.959 8.87782 11.8782 8.80094 11.8345 8.70279L9.61971 3.64309Z" fill="#222222"/>
<path d="M7.56189 15.6375C7.50787 15.6381 7.45427 15.6279 7.40419 15.6076C7.35412 15.5874 7.30856 15.5574 7.27015 15.5194C7.23175 15.4814 7.20126 15.4361 7.18045 15.3863C7.15964 15.3364 7.14893 15.2829 7.14893 15.2289C7.14893 15.1749 7.15964 15.1214 7.18045 15.0715C7.20126 15.0217 7.23175 14.9765 7.27015 14.9385C7.30856 14.9005 7.35412 14.8705 7.40419 14.8502C7.45427 14.8299 7.50787 14.8198 7.56189 14.8204C8.91676 14.8204 9.06747 13.8036 9.22575 12.7339C9.41535 11.4518 9.61411 10.1108 11.2691 9.66736C12.0967 9.44579 12.7054 9.72981 13.0636 10.1946C13.2398 10.4231 13.3509 10.6963 13.3939 10.9735C13.4374 11.2545 13.4121 11.5425 13.315 11.7958L13.2976 11.8353C13.1055 12.2971 12.6917 12.639 12.0428 12.639C11.4221 12.639 11.0532 12.3649 10.8853 12.0218H10.8837C10.7816 11.813 10.7602 11.5804 10.8052 11.3664C10.8508 11.1501 10.9651 10.9495 11.1332 10.8071C11.4003 10.5809 11.7845 10.4968 12.223 10.7134C12.271 10.7371 12.3139 10.77 12.3491 10.8102C12.3844 10.8505 12.4114 10.8973 12.4286 10.9479C12.4457 10.9986 12.4528 11.0522 12.4493 11.1056C12.4457 11.159 12.4317 11.2111 12.4081 11.2591C12.3844 11.3071 12.3515 11.3499 12.3112 11.3852C12.271 11.4205 12.2242 11.4475 12.1735 11.4647C12.1228 11.4818 12.0693 11.4889 12.0159 11.4853C11.9625 11.4818 11.9103 11.4678 11.8623 11.4441C11.764 11.3956 11.6959 11.3991 11.6601 11.4296C11.6319 11.4534 11.6119 11.4907 11.6031 11.5324C11.5933 11.5768 11.5985 11.6232 11.6179 11.6644L11.6166 11.665C11.6597 11.7522 11.7898 11.8219 12.043 11.8219C12.305 11.8219 12.4694 11.6979 12.544 11.5295L12.5523 11.5054C12.5993 11.3822 12.6116 11.2393 12.5896 11.0979C12.5671 10.9521 12.5097 10.81 12.4191 10.6926C12.2454 10.4672 11.9307 10.3348 11.4797 10.4555C10.3427 10.7602 10.1843 11.8297 10.0331 12.852C9.82167 14.2801 9.62079 15.6375 7.56189 15.6375Z" fill="#222222"/>
<path d="M11.4456 30H3.2688V27.6293H11.8542V30H11.4456ZM4.08597 29.1829H11.037V28.4464H4.08597V29.1829Z" fill="#222222"/>
<path d="M5.0271 28.0378C5.0271 27.3405 5.31215 26.7067 5.77128 26.2476C6.23041 25.7885 6.86409 25.5034 7.56135 25.5034C8.2586 25.5034 8.89266 25.7886 9.35165 26.2476C9.81064 26.7066 10.0958 27.3405 10.0958 28.0378V28.4463H5.0271V28.0378ZM6.34886 26.8252C6.12674 27.0468 5.96937 27.3248 5.89373 27.6293H9.2292C9.15356 27.3248 8.99619 27.0468 8.77407 26.8252C8.46287 26.5139 8.03341 26.3205 7.56158 26.3205C7.08976 26.3205 6.66006 26.5139 6.34886 26.8252Z" fill="#222222"/>
<path d="M7.15308 25.9119V10.0005H7.9702V25.9119H7.15308Z" fill="#222222"/>
<path d="M7.56163 14.8203C7.66922 14.8215 7.77202 14.865 7.8477 14.9415C7.92338 15.018 7.96583 15.1213 7.96583 15.2289C7.96583 15.3365 7.92338 15.4397 7.8477 15.5162C7.77202 15.5927 7.66922 15.6363 7.56163 15.6374C5.50272 15.6374 5.30183 14.28 5.09051 12.8521C4.93924 11.8296 4.78072 10.76 3.64375 10.4555C3.1928 10.3348 2.87812 10.4673 2.70441 10.6926C2.61394 10.8101 2.55638 10.9523 2.53386 11.0978C2.51195 11.2392 2.52408 11.3821 2.57148 11.5054L2.57975 11.5294C2.65433 11.6979 2.81868 11.8218 3.08074 11.8218C3.33466 11.8218 3.46482 11.7518 3.50752 11.6643C3.52666 11.6251 3.53019 11.5779 3.52059 11.5327C3.51185 11.4908 3.49177 11.4535 3.46365 11.4297C3.42768 11.3993 3.35949 11.3957 3.26145 11.4443C3.16463 11.4915 3.05308 11.4984 2.95119 11.4635C2.84929 11.4287 2.76534 11.3549 2.71767 11.2583C2.67001 11.1618 2.66251 11.0502 2.69683 10.9482C2.73114 10.8461 2.80447 10.7617 2.90078 10.7136C3.33932 10.497 3.72369 10.5811 3.99059 10.8073C4.15879 10.9497 4.27306 11.1506 4.31858 11.3669C4.36549 11.5881 4.33736 11.8187 4.23864 12.0222C4.07091 12.3655 3.70224 12.6394 3.08112 12.6394C2.4322 12.6394 2.01863 12.2975 1.82649 11.8357L1.80909 11.7962C1.71199 11.543 1.68683 11.2549 1.73019 10.9738C1.77317 10.6967 1.88428 10.4234 2.06043 10.195C2.4187 9.73018 3.02746 9.44616 3.85493 9.66773C5.51015 10.1112 5.70877 11.4522 5.89846 12.7344C6.05599 13.8036 6.20661 14.8203 7.56163 14.8203Z" fill="#222222"/>
<path d="M12.6299 10.0005C12.6293 9.94647 12.6395 9.89287 12.6597 9.84279C12.68 9.79272 12.71 9.74716 12.748 9.70875C12.786 9.67034 12.8312 9.63986 12.8811 9.61905C12.931 9.59824 12.9844 9.58752 13.0385 9.58752C13.0925 9.58752 13.146 9.59824 13.1958 9.61905C13.2457 9.63986 13.2909 9.67034 13.3289 9.70875C13.3669 9.74716 13.3969 9.79272 13.4172 9.84279C13.4375 9.89287 13.4476 9.94647 13.447 10.0005V16.2845C13.4476 16.3385 13.4375 16.3921 13.4172 16.4422C13.3969 16.4923 13.3669 16.5379 13.3289 16.5763C13.2909 16.6147 13.2457 16.6452 13.1958 16.666C13.146 16.6868 13.0925 16.6975 13.0385 16.6975C12.9844 16.6975 12.931 16.6868 12.8811 16.666C12.8312 16.6452 12.786 16.6147 12.748 16.5763C12.71 16.5379 12.68 16.4923 12.6597 16.4422C12.6395 16.3921 12.6293 16.3385 12.6299 16.2845V10.0005Z" fill="#222222"/>
<path d="M12.6296 17.5243C12.6308 17.4167 12.6743 17.3139 12.7508 17.2382C12.8273 17.1626 12.9306 17.1201 13.0382 17.1201C13.1458 17.1201 13.2491 17.1626 13.3256 17.2382C13.4021 17.3139 13.4456 17.4167 13.4468 17.5243V18.451C13.4456 18.5586 13.4021 18.6614 13.3256 18.7371C13.2491 18.8128 13.1458 18.8552 13.0382 18.8552C12.9306 18.8552 12.8273 18.8128 12.7508 18.7371C12.6743 18.6614 12.6308 18.5586 12.6296 18.451V17.5243Z" fill="#222222"/>
<path d="M7.56157 18.4509C8.45879 18.4509 9.18613 17.7296 9.18613 16.8399C9.18613 15.9502 8.45879 15.2289 7.56157 15.2289C6.66435 15.2289 5.93701 15.9502 5.93701 16.8399C5.93701 17.7296 6.66435 18.4509 7.56157 18.4509Z" fill="white"/>
<path d="M7.56156 15.6375C7.22398 15.6375 6.91941 15.7722 6.70004 15.9896C6.58772 16.1009 6.49856 16.2333 6.43771 16.3793C6.37687 16.5252 6.34554 16.6818 6.34554 16.8399C6.34554 16.9981 6.37687 17.1546 6.43771 17.3006C6.49856 17.4466 6.58772 17.579 6.70004 17.6903C6.91941 17.9078 7.22407 18.0425 7.56156 18.0425C7.89904 18.0425 8.20371 17.9078 8.42302 17.6904C8.53535 17.5791 8.62451 17.4466 8.68536 17.3007C8.74621 17.1547 8.77754 16.9981 8.77754 16.84C8.77754 16.6818 8.74621 16.5253 8.68536 16.3793C8.62451 16.2333 8.53535 16.1009 8.42302 15.9896C8.2038 15.7721 7.89914 15.6375 7.56156 15.6375ZM6.12551 15.4118C6.50739 15.0328 7.02357 14.8202 7.56156 14.8202C8.09954 14.8202 8.61572 15.0328 8.9976 15.4118C9.36654 15.7775 9.59479 16.2826 9.59479 16.8397C9.59479 17.3969 9.3665 17.902 8.9976 18.2678C8.61574 18.6468 8.09955 18.8595 7.56156 18.8595C7.02356 18.8595 6.50737 18.6468 6.12551 18.2678C5.75676 17.9022 5.52832 17.397 5.52832 16.8398C5.52832 16.2826 5.75676 15.7776 6.12551 15.412V15.4118Z" fill="#222222"/>
<path fill-rule="evenodd" clip-rule="evenodd" d="M7.56159 0.408691C6.66437 0.408691 5.93701 1.12998 5.93701 2.0197H9.18635C9.18616 1.12998 8.45889 0.408691 7.56159 0.408691Z" fill="white"/>
<path d="M7.56171 0.817077C7.22422 0.817077 6.91956 0.951798 6.70019 1.16923C6.57446 1.29389 6.47788 1.44484 6.4174 1.61125H8.70601C8.6455 1.44485 8.54891 1.2939 8.42317 1.16923C8.20385 0.951798 7.89928 0.817077 7.56171 0.817077ZM6.12566 0.591648C6.50752 0.212668 7.02371 0 7.56171 0C8.0997 0 8.61589 0.212668 8.99775 0.591648C9.3665 0.957488 9.59494 1.46256 9.59494 2.01974V2.42828H5.52856V2.01965C5.52856 1.46238 5.75691 0.957253 6.12566 0.591648Z" fill="#222222"/>
<path d="M7.15308 3.48037C7.15423 3.37277 7.19778 3.26998 7.27428 3.1943C7.35077 3.11862 7.45403 3.07617 7.56164 3.07617C7.66924 3.07617 7.7725 3.11862 7.849 3.1943C7.92549 3.26998 7.96904 3.37277 7.9702 3.48037V8.54004C7.96904 8.64763 7.92549 8.75043 7.849 8.82611C7.7725 8.90179 7.66924 8.94423 7.56164 8.94423C7.45403 8.94423 7.35077 8.90179 7.27428 8.82611C7.19778 8.75043 7.15423 8.64763 7.15308 8.54004V3.48037Z" fill="#222222"/>
</g>
<defs>
<clipPath id="clip0_20_677">
<rect width="15.1245" height="30" fill="white"/>
</clipPath>
</defs>
</svg>
