<svg width="18" height="18" viewBox="0 0 18 18" fill="none" xmlns="http://www.w3.org/2000/svg">
<path d="M10.8799 8.99999L16.6133 3.27999C16.8643 3.02892 17.0054 2.6884 17.0054 2.33333C17.0054 1.97826 16.8643 1.63773 16.6133 1.38666C16.3622 1.13559 16.0217 0.994537 15.6666 0.994537C15.3115 0.994537 14.971 1.13559 14.7199 1.38666L8.99992 7.11999L3.27992 1.38666C3.02885 1.13559 2.68832 0.994537 2.33325 0.994537C1.97818 0.994537 1.63766 1.13559 1.38659 1.38666C1.13551 1.63773 0.994463 1.97826 0.994463 2.33333C0.994463 2.6884 1.13551 3.02892 1.38659 3.27999L7.11992 8.99999L1.38659 14.72C1.26161 14.8439 1.16242 14.9914 1.09473 15.1539C1.02704 15.3164 0.992188 15.4906 0.992188 15.6667C0.992188 15.8427 1.02704 16.017 1.09473 16.1794C1.16242 16.3419 1.26161 16.4894 1.38659 16.6133C1.51054 16.7383 1.658 16.8375 1.82048 16.9052C1.98296 16.9729 2.15724 17.0077 2.33325 17.0077C2.50927 17.0077 2.68354 16.9729 2.84602 16.9052C3.0085 16.8375 3.15597 16.7383 3.27992 16.6133L8.99992 10.88L14.7199 16.6133C14.8439 16.7383 14.9913 16.8375 15.1538 16.9052C15.3163 16.9729 15.4906 17.0077 15.6666 17.0077C15.8426 17.0077 16.0169 16.9729 16.1794 16.9052C16.3418 16.8375 16.4893 16.7383 16.6133 16.6133C16.7382 16.4894 16.8374 16.3419 16.9051 16.1794C16.9728 16.017 17.0077 15.8427 17.0077 15.6667C17.0077 15.4906 16.9728 15.3164 16.9051 15.1539C16.8374 14.9914 16.7382 14.8439 16.6133 14.72L10.8799 8.99999Z" fill="white"/>
</svg>
