<svg width="24" height="24" viewBox="0 0 24 24" fill="none" xmlns="http://www.w3.org/2000/svg">
<path fill-rule="evenodd" clip-rule="evenodd" d="M19.4287 7.42857C19.4287 7.73168 19.3083 8.02237 19.094 8.23669C18.8796 8.45102 18.589 8.57143 18.2859 8.57143L16.0001 8.57143C15.697 8.57143 15.4063 8.45102 15.192 8.23669C14.9777 8.02237 14.8573 7.73168 14.8573 7.42857C14.8573 7.12547 14.9777 6.83478 15.192 6.62045C15.4063 6.40612 15.697 6.28571 16.0001 6.28571L18.2859 6.28571C18.589 6.28571 18.8796 6.40612 19.094 6.62045C19.3083 6.83478 19.4287 7.12547 19.4287 7.42857V7.42857Z" stroke="white" stroke-width="1.42857" stroke-linecap="round" stroke-linejoin="round"/>
<path d="M17.1431 21.1429L17.1431 8.57143" stroke="white" stroke-width="1.42857" stroke-linecap="round" stroke-linejoin="round"/>
<path d="M17.1431 6.28571L17.1431 2.85714" stroke="white" stroke-width="1.42857" stroke-linecap="round" stroke-linejoin="round"/>
<path fill-rule="evenodd" clip-rule="evenodd" d="M8 7.42857C8 7.73168 7.87959 8.02237 7.66526 8.23669C7.45094 8.45102 7.16025 8.57143 6.85714 8.57143L4.57143 8.57143C4.26833 8.57143 3.97763 8.45102 3.76331 8.23669C3.54898 8.02237 3.42857 7.73168 3.42857 7.42857C3.42857 7.12547 3.54898 6.83478 3.76331 6.62045C3.97763 6.40612 4.26833 6.28571 4.57143 6.28571L6.85714 6.28571C7.16025 6.28571 7.45094 6.40612 7.66526 6.62045C7.87959 6.83478 8 7.12547 8 7.42857Z" stroke="white" stroke-width="1.42857" stroke-linecap="round" stroke-linejoin="round"/>
<path d="M5.71435 21.1429L5.71436 8.57143" stroke="white" stroke-width="1.42857" stroke-linecap="round" stroke-linejoin="round"/>
<path d="M5.71436 6.28571L5.71436 2.85714" stroke="white" stroke-width="1.42857" stroke-linecap="round" stroke-linejoin="round"/>
<path fill-rule="evenodd" clip-rule="evenodd" d="M13.7144 16.5714C13.7144 16.8745 13.5939 17.1652 13.3796 17.3796C13.1653 17.5939 12.8746 17.7143 12.5715 17.7143L10.2858 17.7143C9.98268 17.7143 9.69199 17.5939 9.47766 17.3796C9.26334 17.1652 9.14293 16.8745 9.14293 16.5714C9.14293 16.2683 9.26334 15.9776 9.47766 15.7633C9.69199 15.549 9.98268 15.4286 10.2858 15.4286L12.5715 15.4286C12.8746 15.4286 13.1653 15.549 13.3796 15.7633C13.5939 15.9776 13.7144 16.2683 13.7144 16.5714V16.5714Z" stroke="white" stroke-width="1.42857" stroke-linecap="round" stroke-linejoin="round"/>
<path d="M11.4287 15.4286L11.4287 2.85714" stroke="white" stroke-width="1.42857" stroke-linecap="round" stroke-linejoin="round"/>
<path d="M11.4287 21.1428L11.4287 17.7143" stroke="white" stroke-width="1.42857" stroke-linecap="round" stroke-linejoin="round"/>
</svg>
