<svg width="20" height="20" viewBox="0 0 20 20" fill="none" xmlns="http://www.w3.org/2000/svg">
<path d="M4.99999 7.5C5.1947 7.49962 5.38339 7.56743 5.53332 7.69166L9.99999 11.425L14.475 7.825C14.5602 7.75577 14.6583 7.70408 14.7636 7.67289C14.8689 7.64169 14.9793 7.63162 15.0885 7.64323C15.1977 7.65485 15.3035 7.68793 15.3998 7.74057C15.4962 7.79322 15.5812 7.86439 15.65 7.94999C15.7192 8.03523 15.7709 8.13331 15.8021 8.2386C15.8333 8.34388 15.8434 8.45429 15.8317 8.56348C15.8201 8.67267 15.7871 8.77849 15.7344 8.87485C15.6818 8.97122 15.6106 9.05623 15.525 9.125L10.525 13.15C10.3759 13.2726 10.1888 13.3396 9.99582 13.3396C9.8028 13.3396 9.61577 13.2726 9.46665 13.15L4.46666 8.98333C4.38227 8.91337 4.31252 8.82745 4.2614 8.7305C4.21027 8.63354 4.17877 8.52745 4.16871 8.41831C4.15864 8.30916 4.17021 8.1991 4.20275 8.09443C4.23529 7.98976 4.28815 7.89254 4.35832 7.80833C4.43587 7.71273 4.53363 7.63551 4.64457 7.58219C4.75552 7.52888 4.8769 7.50081 4.99999 7.5Z" fill="white"/>
</svg>
