<svg width="248" height="34" viewBox="0 0 248 34" fill="none" xmlns="http://www.w3.org/2000/svg">
<path d="M233.551 1.14767H14.3177C6.9906 1.14767 1.05078 8.21289 1.05078 16.9283C1.05078 25.6436 6.9906 32.7089 14.3177 32.7089H233.551C240.878 32.7089 246.818 25.6436 246.818 16.9283C246.818 8.21289 240.878 1.14767 233.551 1.14767Z" fill="#222222"/>
<path fill-rule="evenodd" clip-rule="evenodd" d="M15.5 0H232.5C236.703 0 240.644 1.86498 243.403 5.0211C246.292 8.03376 248 12.3376 248 17.0717C248 21.6624 246.292 25.9662 243.403 28.9789C240.644 32.135 236.703 34 232.5 34H15.5C11.2966 34 7.35593 32.135 4.59746 28.9789C1.70763 25.9662 0 21.6624 0 17.0717C0 12.3376 1.70763 8.03376 4.59746 5.0211C7.35593 1.86498 11.2966 0 15.5 0ZM232.5 2.43882H15.5C11.9534 2.43882 8.53814 4.01688 6.17373 6.74262C4.91067 8.08314 3.9101 9.68991 3.23271 11.4655C2.55532 13.241 2.21522 15.1483 2.23305 17.0717C2.23305 20.9451 3.67797 24.6751 6.17373 27.2574C8.53814 29.9831 11.9534 31.5612 15.5 31.5612H232.5C236.047 31.5612 239.462 29.9831 241.826 27.2574C244.322 24.6751 245.767 20.9451 245.767 17.0717C245.767 13.0549 244.322 9.32489 241.826 6.74262C240.619 5.37402 239.17 4.28702 237.567 3.54729C235.964 2.80757 234.24 2.43048 232.5 2.43882Z" fill="url(#paint0_linear_74_3737)"/>
<path fill-rule="evenodd" clip-rule="evenodd" d="M140.682 26.3966H127.809V28.9789C127.809 29.2658 127.809 29.5527 127.547 29.6962C127.415 29.9831 127.153 29.9831 126.89 29.9831C126.627 29.9831 126.365 29.9831 126.102 29.6962L125.839 28.9789V25.2489L126.102 24.5316L126.89 24.2447H127.021L133.326 8.32066L133.589 7.89028L134.246 7.60336L135.034 8.03374L135.297 8.32066L141.47 24.2447H141.733L142.39 24.5316C142.653 24.6751 142.784 24.962 142.784 25.2489V28.9789C142.784 29.2658 142.653 29.5527 142.39 29.6962C142.259 29.9831 141.996 29.9831 141.733 29.9831C141.47 29.9831 141.208 29.9831 140.945 29.6962L140.682 28.9789V26.3966ZM129.254 24.2447H139.237L134.246 11.4768L129.254 24.2447ZM147.644 9.75526V15.924H155L155.657 16.211C155.92 16.4979 155.92 16.6413 155.92 17.0717C155.92 17.3586 155.92 17.5021 155.657 17.789L155 18.0759H147.644V24.2447H157.759L158.415 24.5316C158.678 24.6751 158.809 24.962 158.809 25.2489L158.415 26.1097L157.759 26.3966H146.593L145.937 26.1097L145.542 25.2489V8.75104L145.937 7.89028L146.593 7.60336H157.759L158.415 7.89028L158.809 8.75104C158.809 9.03796 158.678 9.32488 158.415 9.46834L157.759 9.75526H147.644ZM172.733 9.75526H163.67V25.2489L163.407 26.1097L162.619 26.3966L161.962 26.1097L161.568 25.2489V8.75104L161.962 7.89028L162.619 7.60336H173.784L174.441 7.89028L174.835 8.75104V25.2489L174.441 26.1097L173.784 26.3966L172.996 26.1097L172.733 25.2489V9.75526ZM196.377 17.0717C196.377 19.654 195.458 21.8059 193.619 23.6709C192.258 24.9761 190.598 25.8525 188.816 26.2063C187.035 26.5601 185.198 26.3779 183.504 25.6793C182.322 25.1055 181.271 24.5316 180.352 23.6709C179.564 22.8101 178.907 21.8059 178.381 20.6582C177.856 19.5105 177.593 18.2194 177.593 17.0717C177.593 14.346 178.644 12.1941 180.352 10.3291C182.322 8.46412 184.555 7.60336 187.051 7.60336C189.547 7.60336 191.78 8.46412 193.619 10.3291C195.458 12.1941 196.377 14.346 196.377 17.0717ZM187.051 9.75526C185.081 9.75526 183.242 10.4726 181.797 11.9072C181.132 12.5566 180.601 13.3528 180.238 14.2431C179.876 15.1334 179.691 16.0975 179.695 17.0717C179.695 19.0802 180.483 20.8017 181.797 22.0928C183.242 23.5274 185.081 24.2447 187.051 24.2447C189.021 24.2447 190.729 23.5274 192.174 22.0928C193.619 20.8017 194.407 19.0802 194.407 17.0717C194.407 14.9198 193.619 13.3418 192.174 11.9072C190.784 10.4949 188.949 9.72385 187.051 9.75526Z" fill="url(#paint1_linear_74_3737)"/>
<path fill-rule="evenodd" clip-rule="evenodd" d="M66.5974 22.5232C66.8601 22.5232 67.1228 22.5232 67.2542 22.8101C67.5169 22.9536 67.6482 23.2405 67.6482 23.5274C67.6482 23.8143 67.5169 24.1013 67.2542 24.2447C66.466 24.962 65.5465 25.5359 64.4957 25.8228C63.4448 26.2532 62.394 26.3966 61.3431 26.3966C58.8891 26.3591 56.5223 25.3961 54.644 23.6709C53.8558 22.8101 53.0677 21.8059 52.6736 20.6582C51.9284 18.9368 51.7176 16.997 52.0732 15.1329C52.4288 13.2688 53.3314 11.5823 54.644 10.3291C56.6143 8.46412 58.8474 7.60336 61.3431 7.60336C63.5762 7.60336 65.5465 8.32066 67.3855 9.75526L67.6482 10.616L67.3855 11.3333L66.5974 11.6202L65.8092 11.3333C64.4957 10.1856 63.0508 9.75526 61.3431 9.75526C59.3728 9.75526 57.5338 10.4726 56.0889 11.9072C55.424 12.5566 54.8929 13.3528 54.5306 14.2431C54.1683 15.1334 53.9831 16.0975 53.9872 17.0717C53.9872 19.0802 54.7753 20.8017 56.0889 22.0928C57.5338 23.5274 59.3728 24.2447 61.3431 24.2447C63.0508 24.2447 64.627 23.8143 66.072 22.6667L66.5974 22.5232ZM78.8135 15.6371L80.2584 16.6413C81.4406 17.789 81.966 19.0802 81.966 20.6582C81.966 22.2363 81.4406 23.6709 80.2584 24.6751C79.2075 25.8228 77.7626 26.3966 76.3177 26.3966H71.5889L70.8008 26.1097L70.5381 25.2489V8.75104L70.8008 7.89028L71.5889 7.60336H75.2669C76.5804 7.60336 77.7626 8.03374 78.6821 9.03796C79.6016 9.89872 80.127 11.0464 80.127 12.3375C80.127 13.6287 79.6016 14.7764 78.8135 15.6371ZM72.6397 17.0717V24.2447H76.3177C77.2372 24.2447 78.1567 23.9578 78.8135 23.2405C79.4703 22.5232 79.8643 21.6624 79.8643 20.6582C79.8643 19.654 79.4703 18.9367 78.8135 18.2194C78.1567 17.5021 77.2372 17.0717 76.3177 17.0717H72.6397ZM72.6397 9.75526V15.0633H75.2669C76.055 15.0633 76.7118 14.7764 77.2372 14.2025C77.7626 13.7721 78.0253 13.1983 78.0253 12.3375C78.0253 11.6202 77.7626 11.0464 77.2372 10.616C76.7118 10.0422 76.055 9.75526 75.2669 9.75526H72.6397ZM86.6948 9.75526V15.924H94.1821L94.8389 16.211C95.1016 16.4979 95.1016 16.6413 95.1016 17.0717C95.1016 17.3586 95.1016 17.5021 94.8389 17.789L94.1821 18.0759H86.6948V24.2447H96.9406L97.5974 24.5316C97.8601 24.6751 97.9914 24.962 97.9914 25.2489L97.5974 26.1097L96.9406 26.3966H85.644L84.9872 26.1097L84.5931 25.2489V8.75104L84.9872 7.89028L85.644 7.60336H96.9406L97.5974 7.89028L97.9914 8.75104C97.9914 9.03796 97.8601 9.32488 97.5974 9.46834L96.9406 9.75526H86.6948ZM108.369 9.75526V25.2489L108.106 26.1097L107.318 26.3966L106.661 26.1097L106.267 25.2489V9.75526H101.275L100.487 9.46834L100.224 8.75104L100.487 7.89028L101.275 7.60336H113.491L114.148 7.89028L114.542 8.75104C114.542 9.03796 114.411 9.32488 114.148 9.46834L113.491 9.75526H108.369Z" fill="url(#paint2_linear_74_3737)"/>
<path fill-rule="evenodd" clip-rule="evenodd" d="M22.5931 17.0717C21.4109 19.7975 17.4702 17.2152 17.4702 17.2152C21.4109 14.9198 22.5931 17.0717 22.5931 17.0717ZM31.394 18.5063C30.6058 18.5063 30.0804 17.789 30.0804 17.0717C30.0804 16.211 30.6058 15.6371 31.394 15.6371C32.0507 15.6371 32.7075 16.211 32.7075 17.0717C32.7075 17.789 32.0507 18.5063 31.394 18.5063ZM38.0931 17.2152C38.0931 17.2152 37.5677 15.3502 34.5465 17.2152C34.5465 17.2152 37.4363 18.9367 38.0931 17.2152ZM33.1016 17.0717C33.1016 17.0717 34.1524 11.3333 40.7202 17.0717C40.7202 17.0717 34.5465 22.9536 33.1016 17.0717ZM22.7245 8.1772C22.199 8.60758 21.6736 9.32488 21.5423 10.0422L21.2796 11.4768L21.4109 12.9114L21.805 13.7721C17.9957 13.6287 13.7923 16.7848 13.2668 17.0717C13.7923 17.5021 18.2584 20.5148 22.199 20.0844L21.5423 21.519L21.4109 22.9536L21.6736 24.3882C21.9363 25.1055 22.3304 25.8228 22.8558 26.2532C23.3813 26.5401 24.038 26.827 24.5635 26.6835H24.9575L25.3516 26.5401L25.7457 26.3966L25.877 26.2532H26.0084C26.5338 25.8228 26.7965 25.3924 26.9279 24.962C27.1906 24.5316 27.1906 24.1013 27.1906 23.6709L26.9279 22.9536L26.7965 22.8101L26.6652 22.6667L26.4024 22.5232H25.7457L25.4829 22.8101L25.2202 23.384L25.877 23.5274C25.7457 23.5274 25.877 23.5274 25.877 23.5274H25.7457V23.6709L25.4829 24.1013L25.0889 24.5316H24.9575L24.8262 24.6751H24.5635L24.038 24.3882L23.3813 23.6709L23.2499 22.8101V21.9494C23.3813 21.3755 23.644 20.6582 24.1694 20.0844C24.5635 19.5105 25.0889 18.9367 25.7457 18.5063C26.4024 18.2194 27.0592 17.9325 27.716 17.9325L28.6355 18.0759L29.0296 18.2194L29.4236 18.3629L30.2118 19.3671L30.6058 19.7975L30.4745 19.2236L29.6863 17.9325L29.2923 17.6456L28.8982 17.3586L28.5041 17.2152L28.7668 16.9283L29.2923 16.6413L29.555 16.3544C30.0804 15.924 30.2118 15.4937 30.3431 15.0633L30.4745 14.6329L30.2118 15.0633L29.2923 15.924L28.8982 16.211L28.5041 16.3544L27.716 16.4979L26.5338 16.211C25.6143 15.7806 24.8262 15.2067 24.1694 14.346H24.038C23.5126 13.7721 23.2499 13.0548 23.1185 12.481V11.6202L23.2499 10.7595C23.3813 10.3291 23.644 10.0422 23.9067 9.89872L24.3007 9.75526H24.6948L24.8262 9.89872H24.9575L25.3516 10.1856L25.6143 10.7595L25.7457 10.9029H25.6143L25.0889 11.0464L25.3516 11.6202L25.6143 11.9072H26.2711L26.5338 11.7637L26.6652 11.6202L26.7965 11.3333L27.0592 10.7595L26.7965 9.32488C26.6652 8.8945 26.2711 8.46412 25.877 8.1772L25.7457 8.03374H25.4829L25.2202 7.89028L24.8262 7.74682H24.6948L24.5635 7.60336H24.4321C23.7753 7.60336 23.1185 7.89028 22.7245 8.1772Z" fill="url(#paint3_linear_74_3737)"/>
<path fill-rule="evenodd" clip-rule="evenodd" d="M225.276 16.9283C226.458 19.5105 230.267 17.0717 230.267 17.0717C226.458 14.7764 225.276 16.9283 225.276 16.9283ZM216.737 18.2194C217.394 18.2194 217.92 17.6456 217.92 16.7848C217.92 16.0675 217.394 15.4937 216.737 15.4937C215.949 15.4937 215.424 16.0675 215.424 16.7848C215.424 17.6456 215.949 18.2194 216.737 18.2194ZM210.17 16.9283C210.17 16.9283 210.564 15.2067 213.585 16.9283C213.585 16.9283 210.826 18.6498 210.17 16.9283ZM215.03 16.9283C215.03 16.9283 213.979 11.3333 207.542 16.9283C207.542 16.9283 213.585 22.6667 215.03 16.9283ZM225.276 8.1772C225.67 8.60758 226.195 9.18142 226.458 10.0422L226.589 11.3333L226.458 12.7679L226.064 13.7721C229.873 13.4852 233.945 16.4979 234.47 16.9283C233.945 17.3586 229.479 20.3713 225.67 19.7975L226.326 21.2321L226.458 22.6667L226.195 23.9578C226.064 24.8186 225.538 25.3924 225.013 25.8228C224.619 26.2532 223.962 26.3966 223.437 26.3966H223.174L223.042 26.2532H222.911L222.648 26.1097L222.254 25.9662H222.123L221.992 25.8228C221.466 25.5359 221.204 25.1055 221.072 24.6751C220.809 24.2447 220.809 23.8143 220.809 23.384L221.072 22.6667L221.204 22.5232L221.335 22.3797L221.598 22.0928L222.254 22.2363L222.517 22.3797C222.78 22.6667 222.78 22.9536 222.648 23.097H222.123H221.992L222.123 23.2405L222.254 23.384L222.386 23.8143L222.911 24.1013V24.2447H223.437L223.962 24.1013L224.487 23.2405L224.619 22.5232V21.6624C224.619 21.0886 224.225 20.3713 223.831 19.7975C223.437 19.2236 222.78 18.6498 222.254 18.3629C221.598 17.9325 220.941 17.6456 220.284 17.6456L219.365 17.789L218.97 17.9325L218.708 18.2194L217.788 19.0802L217.526 19.5105L217.657 18.9367L218.314 17.789L218.708 17.3586L219.102 17.0717L219.627 16.9283L219.233 16.7848L218.839 16.4979L218.445 16.211L217.657 14.9198V14.4894L217.92 14.7764L218.708 15.7806L219.102 15.924L219.496 16.211H220.415L221.466 16.0675C222.386 15.4937 223.174 15.0633 223.831 14.2025H223.962C224.356 13.6287 224.619 12.9114 224.75 12.3375V11.4768L224.619 10.7595L224.093 9.89872L223.568 9.75526H223.437H223.305H223.174H223.042V9.89872L222.648 10.1856L222.386 10.616L222.254 10.7595H222.123L222.254 10.9029H222.78C222.911 11.0464 222.911 11.3333 222.648 11.6202L222.386 11.7637H221.729L221.466 11.6202L221.335 11.4768L221.204 11.3333L220.941 10.616L221.204 9.32488C221.335 8.8945 221.729 8.46412 222.123 8.1772L222.254 8.03374H222.386L222.78 7.89028L223.174 7.74682H223.305V7.60336H223.568C224.093 7.60336 224.75 7.89028 225.276 8.1772Z" fill="url(#paint4_linear_74_3737)"/>
<defs>
<linearGradient id="paint0_linear_74_3737" x1="184.227" y1="46.7392" x2="187.562" y2="-11.4173" gradientUnits="userSpaceOnUse">
<stop stop-color="#FDB52D"/>
<stop offset="0.2" stop-color="#F4E070"/>
<stop offset="0.5" stop-color="#FFAF24"/>
<stop offset="0.7" stop-color="#F2E16E"/>
<stop offset="0.9" stop-color="#F4D860"/>
<stop offset="1" stop-color="#FDB52D"/>
</linearGradient>
<linearGradient id="paint1_linear_74_3737" x1="195.602" y1="28.1468" x2="191.03" y2="-0.0981696" gradientUnits="userSpaceOnUse">
<stop stop-color="#EDD585"/>
<stop offset="0.2" stop-color="#F4E070"/>
<stop offset="0.5" stop-color="#FFAF24"/>
<stop offset="0.8" stop-color="#F2E16E"/>
<stop offset="1" stop-color="#F9DF76"/>
</linearGradient>
<linearGradient id="paint2_linear_74_3737" x1="113.597" y1="24.8186" x2="109.99" y2="1.13429" gradientUnits="userSpaceOnUse">
<stop stop-color="#EDD585"/>
<stop offset="0.2" stop-color="#F4E070"/>
<stop offset="0.5" stop-color="#FFAF24"/>
<stop offset="0.8" stop-color="#F2E16E"/>
<stop offset="1" stop-color="#F9DF76"/>
</linearGradient>
<linearGradient id="paint3_linear_74_3737" x1="43.0321" y1="21.9207" x2="36.1682" y2="2.37586" gradientUnits="userSpaceOnUse">
<stop stop-color="#EDD585"/>
<stop offset="0.2" stop-color="#F4E070"/>
<stop offset="0.5" stop-color="#FFAF24"/>
<stop offset="0.8" stop-color="#F2E16E"/>
<stop offset="1" stop-color="#F9DF76"/>
</linearGradient>
<linearGradient id="paint4_linear_74_3737" x1="236.638" y1="21.6194" x2="229.913" y2="2.4837" gradientUnits="userSpaceOnUse">
<stop stop-color="#EDD585"/>
<stop offset="0.2" stop-color="#F4E070"/>
<stop offset="0.5" stop-color="#FFAF24"/>
<stop offset="0.8" stop-color="#F2E16E"/>
<stop offset="1" stop-color="#F9DF76"/>
</linearGradient>
</defs>
</svg>
