<svg width="100" height="72" viewBox="0 0 100 72" fill="none" xmlns="http://www.w3.org/2000/svg">
<path fill-rule="evenodd" clip-rule="evenodd" d="M53.5507 48.5731H46.4492L43.0601 60.1415H56.9396L53.5507 48.5731Z" fill="white"/>
<path d="M52.9711 49.3509H47.0287L44.0953 59.3638H55.9042L52.9711 49.3509ZM46.4491 47.7953H54.1302L57.9747 60.9193H42.0249L45.8696 47.7953H46.4491Z" fill="#222222"/>
<path d="M48.8431 48.728L47.0266 60.2964L45.8762 59.9867L47.6927 48.4182L48.8431 48.728ZM50.3069 48.4182L52.1233 59.9867L50.973 60.2964L49.1565 48.728L50.3069 48.4182Z" fill="#222222"/>
<path d="M50.9998 63.882C52.585 63.882 53.87 63.0447 53.87 62.0118C53.87 60.9789 52.585 60.1416 50.9998 60.1416C49.4147 60.1416 48.1296 60.9789 48.1296 62.0118C48.1296 63.0447 49.4147 63.882 50.9998 63.882Z" fill="white"/>
<path d="M50.9998 60.9193C50.5841 60.9193 50.2072 61.0418 49.9353 61.2391C49.6635 61.4364 49.4948 61.71 49.4948 62.0118C49.4948 62.3135 49.6635 62.5871 49.9353 62.7844C50.2072 62.9818 50.5841 63.1042 50.9998 63.1042C51.4155 63.1042 51.7924 62.9818 52.0643 62.7844C52.3361 62.5871 52.5048 62.3135 52.5048 62.0118C52.5048 61.71 52.3361 61.4364 52.0643 61.2391C51.7924 61.0418 51.4155 60.9193 50.9998 60.9193ZM48.4206 60.1395C49.0806 59.6604 49.9929 59.3638 50.9998 59.3638C52.0067 59.3638 52.919 59.6604 53.5791 60.1395C54.2391 60.6187 54.6478 61.2809 54.6478 62.0118C54.6478 62.7427 54.2391 63.4049 53.5791 63.884C52.919 64.3631 52.0067 64.6598 50.9998 64.6598C49.9929 64.6598 49.0806 64.3631 48.4206 63.884C47.7605 63.4049 47.3518 62.7427 47.3518 62.0118C47.3518 61.2809 47.7605 60.6187 48.4206 60.1395Z" fill="#222222"/>
<path d="M49.9999 38.2318C49.2602 40.4222 48.0235 42.3842 46.4244 43.9833C43.735 46.6729 40.0193 48.3367 35.9157 48.3367C31.8122 48.3367 28.0964 46.6729 25.407 43.9833C22.7175 41.294 21.0537 37.5782 21.0537 33.4747H22.6093C22.6093 37.1491 24.0988 40.4762 26.5066 42.8838C28.9142 45.2915 32.2413 46.7811 35.9157 46.7811C39.5902 46.7811 42.9173 45.2915 45.3248 42.8838C47.3093 40.8993 48.6699 38.2902 49.087 35.3769C49.3664 35.5022 49.6753 35.5724 49.9999 35.5724C50.3246 35.5724 50.6337 35.5024 50.9128 35.3769C51.3299 38.2902 52.6906 40.8993 54.675 42.8838C57.0828 45.2915 60.4099 46.7811 64.0844 46.7811C67.7588 46.7811 71.0859 45.2915 73.4935 42.8838C75.9013 40.4762 77.3908 37.1491 77.3908 33.4747H78.9464C78.9464 37.5782 77.2826 41.294 74.593 43.9833C71.9037 46.6729 68.1879 48.3367 64.0844 48.3367C59.9808 48.3367 56.265 46.6729 53.5755 43.9833C51.9764 42.3842 50.7397 40.4222 49.9999 38.2318Z" fill="#222222"/>
<path d="M67.0556 30.6452H61.1131L58.1798 41.421H69.9887L67.0556 30.6452ZM60.5336 28.9711H68.2147L72.0591 43.0951H56.1091L59.9538 28.9711H60.5336Z" fill="#222222"/>
<path d="M63.8774 30.9038L61.4796 42.4722L59.9609 42.1624L62.3587 30.594L63.8774 30.9038ZM65.8101 30.594L68.2078 42.1624L66.6892 42.4722L64.2914 30.9038L65.8101 30.594Z" fill="#222222"/>
<path d="M64.0843 43.0951C63.7825 43.0951 63.5092 43.2176 63.3119 43.4149C63.1145 43.6122 62.9921 43.8858 62.9921 44.1876C62.9921 44.4893 63.1145 44.7629 63.3119 44.9602C63.5092 45.1576 63.7825 45.28 64.0843 45.28C64.3861 45.28 64.6596 45.1576 64.857 44.9602C65.0543 44.7629 65.1767 44.4893 65.1767 44.1876C65.1767 43.8858 65.0543 43.6122 64.857 43.4149C64.6596 43.2176 64.3861 43.0951 64.0843 43.0951ZM62.2123 42.3153C62.6914 41.8362 63.3534 41.5396 64.0843 41.5396C64.8152 41.5396 65.4774 41.8362 65.9565 42.3153C66.4356 42.7944 66.7323 43.4567 66.7323 44.1876C66.7323 44.9184 66.4356 45.5807 65.9565 46.0598C65.4774 46.5389 64.8152 46.8356 64.0843 46.8356C63.3534 46.8356 62.6914 46.5389 62.2123 46.0598C61.7332 45.5807 61.4365 44.9184 61.4365 44.1876C61.4365 43.4567 61.7332 42.7944 62.2123 42.3153Z" fill="#222222"/>
<path d="M81.1398 18.9438H75.1976L72.2643 28.9567H84.0732L81.1398 18.9438ZM74.6181 17.3882H82.2989L86.1436 30.5122H70.1936L74.0383 17.3882H74.6181Z" fill="#222222"/>
<path d="M77.9618 19.2948L75.5638 29.8893L74.0452 29.6056L76.4432 19.0111L77.9618 19.2948ZM79.8943 19.0111L82.2923 29.6056L80.7736 29.8893L78.3756 19.2948L79.8943 19.0111Z" fill="#222222"/>
<path d="M78.1688 30.5122C77.867 30.5122 77.5934 30.6347 77.3961 30.832C77.1988 31.0293 77.0763 31.3029 77.0763 31.6047C77.0763 31.9064 77.1988 32.18 77.3961 32.3773C77.5934 32.5747 77.867 32.6971 78.1688 32.6971C78.4705 32.6971 78.7441 32.5747 78.9414 32.3773C79.1388 32.18 79.2612 31.9064 79.2612 31.6047C79.2612 31.3029 79.1388 31.0293 78.9414 30.832C78.7441 30.6347 78.4705 30.5122 78.1688 30.5122ZM76.2965 29.7324C76.7756 29.2533 77.4379 28.9567 78.1688 28.9567C78.8996 28.9567 79.5619 29.2533 80.041 29.7324C80.5201 30.2116 80.8167 30.8738 80.8167 31.6047C80.8167 32.3356 80.5201 32.9978 80.041 33.4769C79.5619 33.956 78.8996 34.2527 78.1688 34.2527C77.4379 34.2527 76.7756 33.956 76.2965 33.4769C75.8174 32.9978 75.5208 32.3356 75.5208 31.6047C75.5208 30.8738 75.8174 30.2116 76.2965 29.7324Z" fill="#222222"/>
<path d="M38.5734 30.6452H32.2584L29.1412 41.421H41.6904L38.5734 30.6452ZM31.6425 28.9711H39.8054L43.8909 43.0951H26.9409L31.0266 28.9711H31.6425Z" fill="#222222"/>
<path d="M35.7089 30.9038L33.3109 42.4722L31.7922 42.1624L34.1902 30.594L35.7089 30.9038ZM37.6413 30.594L40.0393 42.1624L38.5207 42.4722L36.1227 30.9038L37.6413 30.594Z" fill="#222222"/>
<path d="M35.9158 43.0951C35.614 43.0951 35.3405 43.2176 35.1432 43.4149C34.9458 43.6122 34.8234 43.8858 34.8234 44.1876C34.8234 44.4893 34.9458 44.7629 35.1432 44.9602C35.3405 45.1576 35.614 45.28 35.9158 45.28C36.2176 45.28 36.4912 45.1576 36.6885 44.9602C36.8858 44.7629 37.0083 44.4893 37.0083 44.1876C37.0083 43.8858 36.8858 43.6122 36.6885 43.4149C36.4912 43.2176 36.2176 43.0951 35.9158 43.0951ZM34.0436 42.3153C34.5227 41.8362 35.1849 41.5396 35.9158 41.5396C36.6467 41.5396 37.3089 41.8362 37.788 42.3153C38.2672 42.7944 38.5638 43.4567 38.5638 44.1876C38.5638 44.9184 38.2672 45.5807 37.788 46.0598C37.3089 46.5389 36.6467 46.8356 35.9158 46.8356C35.1849 46.8356 34.5227 46.5389 34.0436 46.0598C33.5645 45.5807 33.2678 44.9184 33.2678 44.1876C33.2678 43.4567 33.5645 42.7944 34.0436 42.3153Z" fill="#222222"/>
<path d="M24.6458 18.9438H18.5173L15.492 28.9567H27.6711L24.6458 18.9438ZM17.9196 17.3882H25.8415L29.8067 30.5122H13.3567L17.3219 17.3882H17.9196Z" fill="#222222"/>
<path d="M21.6247 19.2948L19.2267 29.8893L17.708 29.6056L20.106 19.0111L21.6247 19.2948ZM23.5571 19.0111L25.9551 29.6056L24.4365 29.8893L22.0385 19.2948L23.5571 19.0111Z" fill="#222222"/>
<path d="M21.8316 30.5122C21.5298 30.5122 21.2563 30.6347 21.0589 30.832C20.8616 31.0293 20.7391 31.3029 20.7391 31.6047C20.7391 31.9064 20.8616 32.18 21.0589 32.3773C21.2563 32.5747 21.5298 32.6971 21.8316 32.6971C22.1334 32.6971 22.4069 32.5747 22.6043 32.3773C22.8016 32.18 22.924 31.9064 22.924 31.6047C22.924 31.3029 22.8016 31.0293 22.6043 30.832C22.4069 30.6347 22.1334 30.5122 21.8316 30.5122ZM19.9594 29.7324C20.4385 29.2533 21.1007 28.9567 21.8316 28.9567C22.5625 28.9567 23.2247 29.2533 23.7038 29.7324C24.1829 30.2116 24.4796 30.8738 24.4796 31.6047C24.4796 32.3356 24.1829 32.9978 23.7038 33.4769C23.2247 33.956 22.5625 34.2527 21.8316 34.2527C21.1007 34.2527 20.4385 33.956 19.9594 33.4769C19.4803 32.9978 19.1836 32.3356 19.1836 31.6047C19.1836 30.8738 19.4803 30.2116 19.9594 29.7324Z" fill="#222222"/>
<path d="M49.9999 18.9438C49.6079 18.9438 49.2533 19.1015 48.9975 19.3564C48.7433 19.6138 48.5846 19.9682 48.5846 20.3589C48.5846 20.7518 48.7422 21.1058 48.9962 21.3598H48.9991C49.2548 21.6155 49.6093 21.7742 49.9999 21.7742C50.3919 21.7742 50.7466 21.6162 51.0024 21.3613C51.2566 21.1042 51.4151 20.75 51.4151 20.3589C51.4151 19.9682 51.2566 19.6138 51.0008 19.358C50.7451 19.1022 50.3906 18.9438 49.9999 18.9438ZM47.9024 18.2584C48.4399 17.7211 49.1819 17.3882 49.9999 17.3882C50.8199 17.3882 51.5628 17.7209 52.1004 18.2584C52.6379 18.796 52.9706 19.5389 52.9706 20.3589C52.9706 21.1787 52.6379 21.922 52.1004 22.4595H52.0975C51.5599 22.9969 50.8179 23.3298 49.9999 23.3298C49.1799 23.3298 48.4371 22.9969 47.8995 22.4593C47.3626 21.9189 47.0291 21.1762 47.0291 20.3589C47.0291 19.5389 47.3619 18.796 47.8995 18.2584H47.9024Z" fill="#222222"/>
<path d="M38.455 6.45132H62.323V12.6249H37.6772V6.45132H38.455ZM60.7675 8.00688H39.2328V11.0693H60.7675V8.00688Z" fill="#222222"/>
<path d="M57.0967 11.3965C57.0967 13.4727 56.2983 15.36 55.0127 16.7272C53.7271 18.0946 51.9525 18.9438 50.0005 18.9438C48.048 18.9438 46.2734 18.0946 44.9878 16.7272C43.7023 15.36 42.9038 13.4727 42.9038 11.3965V10.5693H57.0967V11.3965ZM53.9131 15.5578C54.7434 14.6749 55.3136 13.5145 55.4863 12.2237H44.5143C44.6869 13.5145 45.2571 14.6749 46.0874 15.5578C47.0916 16.6261 48.4771 17.2895 50 17.2895C51.5234 17.2895 52.9089 16.6261 53.9131 15.5578Z" fill="#222222"/>
<path d="M36.6935 46.0576C36.6935 48.5716 37.3899 50.9222 38.5997 52.9258C39.8526 55.0011 41.6555 56.7069 43.8055 57.8396L43.0824 59.2124C40.6802 57.9469 38.6668 56.0429 37.2691 53.7276C35.9164 51.4876 35.1379 48.8624 35.1379 46.0576H36.6935ZM56.179 57.8496C58.3313 56.7198 60.1379 55.0136 61.395 52.9351C62.6082 50.9291 63.3066 48.5753 63.3066 46.0576H64.8622C64.8622 48.8667 64.0815 51.4949 62.7257 53.7369C61.3248 56.0529 59.3057 57.9576 56.8959 59.2224L56.179 57.8496Z" fill="#222222"/>
<path d="M17.5039 18.166C17.5039 16.974 17.9888 15.892 18.7735 15.1071C19.5552 14.3222 20.6375 13.8376 21.8326 13.8376C23.0239 13.8376 24.1052 14.3216 24.8901 15.1056L24.893 15.1084C25.677 15.8933 26.161 16.9742 26.161 18.166V18.9438H17.5039V18.166ZM19.8686 16.2051C19.5448 16.5289 19.301 16.934 19.1695 17.3882H24.4957C24.3641 16.934 24.1203 16.5289 23.7963 16.2051L23.7935 16.2022C23.2939 15.7024 22.6003 15.3931 21.8326 15.3931C21.0666 15.3931 20.373 15.7036 19.8715 16.2051H19.8686Z" fill="#222222"/>
<path d="M31 30.3284C31 29.1366 31.484 28.0557 32.268 27.2708L32.2709 27.2679C33.0558 26.4839 34.1367 25.9999 35.3284 25.9999C36.5198 25.9999 37.6011 26.4839 38.386 27.2679L38.3889 27.2708C39.1729 28.0557 39.6569 29.1366 39.6569 30.3284V31.1061H31V30.3284ZM33.3647 28.3675C33.0407 28.6912 32.7969 29.0964 32.6653 29.5506H37.9916C37.86 29.0964 37.6162 28.6912 37.2922 28.3675L37.2893 28.3646C36.7898 27.8648 36.0962 27.5555 35.3284 27.5555C34.5604 27.5555 33.8671 27.8648 33.3676 28.3646L33.3647 28.3675Z" fill="#222222"/>
<path d="M59.7559 30.7489C59.7559 29.5569 60.2407 28.4749 61.0254 27.69C61.8072 26.9051 62.8894 26.4204 64.0845 26.4204C65.2763 26.4204 66.3572 26.9044 67.1421 27.6884L67.145 27.6913C67.929 28.4762 68.413 29.5571 68.413 30.7489V31.5267H59.7559V30.7489ZM62.1205 28.788C61.7967 29.1118 61.553 29.5169 61.4214 29.9711H66.7476C66.6161 29.5169 66.3723 29.1118 66.0483 28.788L66.0454 28.7851C65.5459 28.2853 64.8525 27.976 64.0845 27.976C63.3185 27.976 62.625 28.2864 62.1234 28.788H62.1205Z" fill="#222222"/>
<path d="M73.8401 18.166C73.8401 16.9726 74.325 15.8915 75.1081 15.1082V15.1053C75.8914 14.322 76.9739 13.8373 78.1688 13.8373C79.3608 13.8373 80.4428 14.3222 81.2276 15.1069C82.0125 15.8886 82.4972 16.9709 82.4972 18.166V18.9438H73.8401V18.166ZM76.207 16.2042C75.8821 16.5284 75.6376 16.9342 75.5059 17.3882H80.8312C80.699 16.9349 80.4543 16.5295 80.1296 16.2049V16.202C79.6301 15.7022 78.9365 15.3929 78.1688 15.3929C77.403 15.3929 76.7092 15.7033 76.207 16.2042Z" fill="#222222"/>
<path d="M45.6714 49.9638C45.6714 47.8393 46.2672 45.9108 47.2323 44.5111L47.2359 44.506C48.2021 43.1078 49.5327 42.2447 50.9998 42.2447C52.471 42.2447 53.8033 43.109 54.7676 44.506C55.7316 45.9085 56.3285 47.8381 56.3285 49.9638V51.3509H45.6714V49.9638ZM48.5823 46.4669C48.1838 47.0443 47.8837 47.7667 47.7217 48.5768H54.2782C54.1162 47.7667 53.8161 47.0443 53.4175 46.4669H53.414C52.7966 45.5724 51.9428 45.0188 50.9998 45.0188C50.0544 45.0188 49.2009 45.5704 48.5859 46.4617L48.5823 46.4669Z" fill="#222222"/>
<path d="M47.3376 23.3295C47.4699 23.7829 47.7145 24.1882 48.0392 24.5129V24.5158C48.5387 25.0155 49.2323 25.3249 50.0001 25.3249C50.7672 25.3249 51.4612 25.0147 51.9625 24.5142C52.2859 24.1882 52.5305 23.7829 52.6627 23.3295H47.3376ZM46.9412 25.6109C46.1563 24.8291 45.6716 23.7469 45.6716 22.5518V21.774H54.3287V22.5518C54.3287 23.7467 53.8441 24.8291 53.0607 25.6124H53.0579C52.2745 26.3955 51.1934 26.8804 50.0001 26.8804C48.8081 26.8804 47.7261 26.3955 46.9412 25.6109Z" fill="#222222"/>
<path d="M49.0001 26.8802C48.7314 26.8802 48.4866 27.0451 48.3092 27.3104H48.3073C48.131 27.5738 48.0215 27.9398 48.0215 28.3433V33.3318C48.0215 33.7333 48.1318 34.0993 48.3092 34.3647C48.4854 34.6304 48.7305 34.7947 49.0001 34.7947C49.2688 34.7947 49.5135 34.6298 49.691 34.3644H49.6929C49.8692 34.1011 49.9787 33.7353 49.9787 33.3318V28.3433C49.9787 27.9409 49.8689 27.574 49.692 27.3089C49.5135 27.0451 49.2686 26.8802 49.0001 26.8802ZM47.5749 26.2124C47.9394 25.6642 48.4444 25.3247 49.0001 25.3247C49.5553 25.3247 50.0607 25.6642 50.4263 26.2109V26.2138C50.7918 26.7604 51.019 27.5147 51.019 28.3433V33.3318C51.019 34.1598 50.7915 34.9144 50.4253 35.4624C50.0607 36.0107 49.5558 36.3502 49.0001 36.3502C48.4458 36.3502 47.9415 36.0109 47.5758 35.4642H47.5739C47.2083 34.9175 46.9812 34.1624 46.9812 33.3318V28.3433C46.9812 27.5153 47.2087 26.7604 47.5749 26.2124Z" fill="#222222"/>
<path fill-rule="evenodd" clip-rule="evenodd" d="M21.8317 48.1978C22.349 48.1978 22.7686 48.6171 22.7686 49.1344C22.7686 49.652 22.349 50.0713 21.8317 50.0713C21.3143 50.0713 20.8948 49.652 20.8948 49.1344C20.8948 48.6171 21.3143 48.1978 21.8317 48.1978ZM21.8317 42.3195C22.349 42.3195 22.7686 42.7389 22.7686 43.2562C22.7686 43.7736 22.349 44.1931 21.8317 44.1931C21.3143 44.1931 20.8948 43.7736 20.8948 43.2562C20.8948 42.7389 21.3143 42.3195 21.8317 42.3195ZM21.8317 45.2587C22.349 45.2587 22.7686 45.678 22.7686 46.1953C22.7686 46.7127 22.349 47.1322 21.8317 47.1322C21.3143 47.1322 20.8948 46.7127 20.8948 46.1953C20.8948 45.678 21.3143 45.2587 21.8317 45.2587Z" fill="#222222"/>
<path fill-rule="evenodd" clip-rule="evenodd" d="M78.1686 48.1978C77.5815 48.1978 77.1055 48.6171 77.1055 49.1344C77.1055 49.652 77.5815 50.0713 78.1686 50.0713C78.7556 50.0713 79.2317 49.652 79.2317 49.1344C79.2317 48.6171 78.7556 48.1978 78.1686 48.1978ZM78.1686 42.3195C77.5815 42.3195 77.1055 42.7389 77.1055 43.2562C77.1055 43.7736 77.5815 44.1931 78.1686 44.1931C78.7556 44.1931 79.2317 43.7736 79.2317 43.2562C79.2317 42.7389 78.7556 42.3195 78.1686 42.3195ZM78.1686 45.2587C77.5815 45.2587 77.1055 45.678 77.1055 46.1953C77.1055 46.7127 77.5815 47.1322 78.1686 47.1322C78.7556 47.1322 79.2317 46.7127 79.2317 46.1953C79.2317 45.678 78.7556 45.2587 78.1686 45.2587Z" fill="#222222"/>
<path fill-rule="evenodd" clip-rule="evenodd" d="M63.0843 60.8887C64.1539 60.8887 65.0212 61.308 65.0212 61.8253C65.0212 62.3429 64.1539 62.7622 63.0843 62.7622C62.0148 62.7622 61.1475 62.3429 61.1475 61.8253C61.1475 61.308 62.0148 60.8887 63.0843 60.8887ZM63.0843 55.0104C64.1539 55.0104 65.0212 55.4298 65.0212 55.9471C65.0212 56.4644 64.1539 56.884 63.0843 56.884C62.0148 56.884 61.1475 56.4644 61.1475 55.9471C61.1475 55.4298 62.0148 55.0104 63.0843 55.0104ZM63.0843 57.9495C64.1539 57.9495 65.0212 58.3689 65.0212 58.8862C65.0212 59.4036 64.1539 59.8231 63.0843 59.8231C62.0148 59.8231 61.1475 59.4036 61.1475 58.8862C61.1475 58.3689 62.0148 57.9495 63.0843 57.9495Z" fill="#222222"/>
<path fill-rule="evenodd" clip-rule="evenodd" d="M35.9332 60.8887C36.4506 60.8887 36.8701 61.308 36.8701 61.8253C36.8701 62.3429 36.4506 62.7622 35.9332 62.7622C35.4159 62.7622 34.9963 62.3429 34.9963 61.8253C34.9963 61.308 35.4159 60.8887 35.9332 60.8887ZM35.9332 55.0104C36.4506 55.0104 36.8701 55.4298 36.8701 55.9471C36.8701 56.4644 36.4506 56.884 35.9332 56.884C35.4159 56.884 34.9963 56.4644 34.9963 55.9471C34.9963 55.4298 35.4159 55.0104 35.9332 55.0104ZM35.9332 57.9495C36.4506 57.9495 36.8701 58.3689 36.8701 58.8862C36.8701 59.4036 36.4506 59.8231 35.9332 59.8231C35.4159 59.8231 34.9963 59.4036 34.9963 58.8862C34.9963 58.3689 35.4159 57.9495 35.9332 57.9495Z" fill="#222222"/>
</svg>
