<svg width="100" height="72" viewBox="0 0 100 72" fill="none" xmlns="http://www.w3.org/2000/svg">
<path d="M41.6716 6.88889H63.927V12.7398H59.0196C58.8407 14.2613 58.1434 15.6302 57.111 16.6627C56.0783 17.6953 54.7098 18.3927 53.1883 18.5716V19.3882H57.9916L63.319 37.5727H62.2838H55.1341C55.3998 38.0222 55.5572 38.5431 55.571 39.0998C62.0516 39.5633 63.0796 45.8991 64.1174 52.3056C65.113 58.4502 66.1203 64.6664 72.4438 64.6664H76.0574C77.3081 64.6664 78.4421 64.1678 79.2701 63.3593L79.3058 63.3209C80.137 62.4898 80.6514 61.3411 80.6514 60.0729C80.6514 58.8033 80.1376 57.654 79.3074 56.8229C78.6498 56.166 77.7932 55.7076 76.8352 55.5444V60.0729C76.8352 60.5022 76.4867 60.8507 76.0574 60.8507C75.6281 60.8507 75.2796 60.5022 75.2796 60.0729V55.5447C74.323 55.708 73.4667 56.1671 72.8094 56.8244C71.9776 57.654 71.4638 58.8033 71.4638 60.0729C71.4638 60.5022 71.1154 60.8507 70.6861 60.8507C70.2567 60.8507 69.9083 60.5022 69.9083 60.0729C69.9083 58.3769 70.5967 56.8404 71.7094 55.7276V55.7244C72.2696 55.1642 72.9376 54.7116 73.6794 54.4002C73.1918 53.844 72.8958 53.1149 72.8958 52.3173C72.8958 51.7311 73.0556 51.182 73.3338 50.7113H65.1487L70.4758 32.5269H81.6387L86.9661 50.7113H85.931H78.7796C79.0585 51.1831 79.219 51.7322 79.219 52.3173C79.219 53.1136 78.9221 53.8427 78.4327 54.4C79.1743 54.7116 79.8423 55.1642 80.4027 55.7244L80.4058 55.7276C81.5185 56.8404 82.207 58.3769 82.207 60.0729C82.207 61.7707 81.5185 63.3082 80.4058 64.4209L80.3598 64.4633C79.2507 65.5509 77.7316 66.222 76.0574 66.222H72.4438C64.8021 66.222 63.6874 59.3458 62.5863 52.5487C61.639 46.7011 60.701 40.9182 55.2152 40.6387C55.097 40.8653 54.9523 41.0758 54.7847 41.266C55.5085 41.5736 56.1607 42.0176 56.7085 42.5653C57.8081 43.6684 58.4892 45.1878 58.4892 46.8633C58.4892 47.8313 57.5438 51.1651 56.6596 54.1067H57.8847V54.8844C57.8847 56.3871 57.2692 57.7553 56.2772 58.7482L56.2743 58.7511C55.4556 59.5689 54.3821 60.1307 53.1883 60.3029V65.4442C53.1883 65.8736 52.8398 66.222 52.4105 66.222C51.9812 66.222 51.6327 65.8736 51.6327 65.4442V60.3029C50.439 60.1307 49.3654 59.5689 48.5467 58.7511L48.5438 58.7482C47.5518 57.7553 46.9363 56.3871 46.9363 54.8844V54.1067H48.1612C47.277 51.1651 46.3316 47.8313 46.3316 46.8633C46.3316 45.1851 47.0123 43.6653 48.1123 42.5653C48.6614 42.018 49.3138 41.5744 50.0372 41.2669C49.8461 41.0498 49.6843 40.8062 49.5578 40.5424C49.4518 40.5967 49.3321 40.6271 49.205 40.6271C43.3445 40.6271 42.3838 46.5544 41.4127 52.5489C40.3116 59.346 39.1972 66.222 31.5554 66.222H27.9416C26.2436 66.222 24.7061 65.5336 23.5934 64.4209C22.4812 63.3051 21.7921 61.7678 21.7921 60.0729C21.7921 58.3769 22.4805 56.8404 23.5932 55.7276L23.5963 55.7244C24.1567 55.1642 24.8247 54.7116 25.5663 54.4C25.077 53.8427 24.7801 53.1136 24.7801 52.3173C24.7801 51.732 24.9405 51.1827 25.2201 50.7113H17.033L22.3603 32.5269H33.5232L38.8503 50.7113H37.815H30.6652C30.9434 51.182 31.1032 51.7311 31.1032 52.3173C31.1032 53.1151 30.8072 53.844 30.3196 54.4002C31.0614 54.7116 31.7294 55.1642 32.2896 55.7244V55.7276C33.4023 56.8404 34.0907 58.3769 34.0907 60.0729C34.0907 60.5022 33.7423 60.8507 33.313 60.8507C32.8836 60.8507 32.5352 60.5022 32.5352 60.0729C32.5352 58.8033 32.0214 57.654 31.1912 56.8229C30.5325 56.1667 29.6763 55.708 28.7194 55.5447V60.0729C28.7194 60.5022 28.371 60.8507 27.9416 60.8507C27.5123 60.8507 27.1638 60.5022 27.1638 60.0729V55.5444C26.2058 55.7076 25.3492 56.166 24.6916 56.8229C23.8614 57.654 23.3476 58.8033 23.3476 60.0729C23.3476 61.3431 23.861 62.4918 24.6903 63.3209H24.6934C25.5245 64.152 26.6732 64.6664 27.9416 64.6664H31.5554C37.879 64.6664 38.8861 58.4504 39.8816 52.3058C40.9596 45.6513 42.0265 39.0716 49.205 39.0716L49.2507 39.0729C49.2687 38.5273 49.4263 38.0156 49.689 37.5727H41.5018L46.8292 19.3882H51.6327V18.5716C50.1107 18.3927 48.7423 17.6956 47.7094 16.6627C46.677 15.6302 45.9796 14.2616 45.8007 12.7398H40.8938V6.88889H41.6716ZM55.0407 54.1067C55.9318 51.1667 56.9336 47.7091 56.9336 46.8633C56.9336 45.6122 56.4283 44.4811 55.6118 43.6649H55.609C54.7907 42.8467 53.6596 42.3402 52.4105 42.3402H52.4103C51.1592 42.3402 50.0281 42.8456 49.2118 43.662V43.6649C48.3936 44.4831 47.8872 45.6142 47.8872 46.8633C47.8872 47.7091 48.889 51.1667 49.7801 54.1067H55.0407ZM55.1805 57.6516C55.7143 57.1178 56.0958 56.4302 56.2514 55.6622H48.5696C48.7252 56.4302 49.1067 57.1178 49.6405 57.6516L49.6434 57.6544C50.3518 58.3631 51.3316 58.8031 52.4105 58.8031C53.4894 58.8031 54.4692 58.3631 55.1776 57.6544L55.1805 57.6516ZM77.1932 51.1816C76.903 50.8913 76.5012 50.7113 76.0574 50.7113C75.6138 50.7113 75.2118 50.8913 74.9216 51.1816C74.6314 51.4718 74.4514 51.8738 74.4514 52.3173C74.4514 52.7609 74.6314 53.1629 74.9216 53.4531C75.2118 53.7433 75.6138 53.9233 76.0574 53.9233C76.5032 53.9233 76.9047 53.7447 77.1932 53.456L77.1961 53.4531C77.4847 53.1647 77.6634 52.7631 77.6634 52.3173C77.6634 51.8718 77.4847 51.47 77.1961 51.1816H77.1932ZM78.1503 34.0824L81.2747 49.1558H84.8956L80.4796 34.0824H78.1503ZM79.6918 49.1558L76.5674 34.0824H75.5478L72.4234 49.1558H76.0574H79.6918ZM70.8405 49.1558L73.965 34.0824H71.6352L67.2194 49.1558H70.8405ZM27.9416 50.7113C27.4978 50.7113 27.0961 50.8913 26.8058 51.1816H26.803C26.5143 51.47 26.3356 51.8718 26.3356 52.3173C26.3356 52.7631 26.5143 53.1647 26.803 53.4531L26.8058 53.456C27.0943 53.7447 27.4958 53.9233 27.9416 53.9233C28.3872 53.9233 28.789 53.7447 29.0774 53.456V53.4531C29.3676 53.1629 29.5476 52.7611 29.5476 52.3173C29.5476 51.8738 29.3676 51.4718 29.0774 51.1816C28.7872 50.8913 28.3852 50.7113 27.9416 50.7113ZM27.4316 34.0824L24.3072 49.1558H27.9416H31.5756L28.4514 34.0824H27.4316ZM22.7243 49.1558L25.8487 34.0824H23.5194L19.1034 49.1558H22.7243ZM30.0343 34.0824L33.1585 49.1558H36.7796L32.3638 34.0824H30.0343ZM53.5463 38.0429C53.2561 37.7527 52.8541 37.5727 52.4105 37.5727C51.9667 37.5727 51.565 37.7527 51.2747 38.0429H51.2718C50.9832 38.3313 50.8045 38.7331 50.8045 39.1787C50.8045 39.6222 50.9845 40.0242 51.2747 40.3144C51.565 40.6047 51.9667 40.7847 52.4103 40.7847H52.4105C52.8541 40.7847 53.2561 40.6047 53.5463 40.3144C53.8365 40.0242 54.0165 39.6222 54.0165 39.1787C54.0165 38.7351 53.8365 38.3331 53.5463 38.0429ZM54.5032 20.9438L57.6276 36.0171H61.2485L56.8325 20.9438H54.5032ZM56.0447 36.0171L52.9203 20.9438H51.9007L48.7763 36.0171H52.4105H56.0447ZM47.1934 36.0171L50.3178 20.9438H47.9883L43.5723 36.0171H47.1934ZM57.4498 12.7398H47.3705C47.5396 13.8322 48.059 14.8131 48.809 15.5631C49.7334 16.4876 51.0083 17.0616 52.4098 17.0616C53.8121 17.0616 55.087 16.4876 56.0114 15.5631C56.7614 14.8129 57.2807 13.832 57.4498 12.7398ZM62.3714 8.44444H42.4494V11.1842H45.7552H59.0652H62.3714V8.44444Z" fill="#222222"/>
</svg>
