<svg width="100" height="72" viewBox="0 0 100 72" fill="none" xmlns="http://www.w3.org/2000/svg">
<path d="M53.9607 21.308C53.798 20.3924 53.3535 19.5716 52.7215 18.9389C51.9142 18.1324 50.8002 17.6316 49.5746 17.6316C48.3489 17.6316 47.2349 18.1324 46.4275 18.9389C45.7955 19.5716 45.3511 20.3924 45.1884 21.308H53.9607ZM39.8175 5.88889H60.1095V11.3473H52.7015C53.1993 12.0047 53.4949 12.8238 53.4949 13.7116C53.4949 14.7913 53.0553 15.7707 52.3449 16.4816C52.2831 16.5436 52.2191 16.6036 52.1533 16.6616C52.7733 16.9589 53.3355 17.3593 53.8169 17.8407L53.8198 17.8436C54.8098 18.8338 55.4586 20.1656 55.5682 21.6404C58.1067 23.1498 61.6633 24.4887 65.3693 25.8833C73.8633 29.0802 83.1155 32.564 83.7784 39.4124C83.918 39.8422 83.9415 40.2878 83.8638 40.7418C83.7818 41.2193 83.5875 41.7049 83.3011 42.19C83.0831 42.5591 82.6069 42.6816 82.2378 42.4636C81.8686 42.2456 81.7462 41.7693 81.9642 41.4002C82.1562 41.0751 82.2838 40.7656 82.3326 40.4804C82.3673 40.2771 82.362 40.0853 82.3102 39.9104C80.0993 36.1587 62.9102 30.8462 54.4326 28.2264C53.1646 27.8347 52.0891 27.5022 51.2607 27.2351C50.8531 27.1044 50.6287 26.6676 50.7593 26.26C50.89 25.8524 51.3269 25.628 51.7344 25.7587C52.5198 26.0118 53.6062 26.3478 54.8882 26.7438C62.1886 28.9998 75.8033 33.2078 81.43 37.0387C79.0002 32.672 71.6526 29.9064 64.8227 27.3358C60.9593 25.8818 57.2553 24.4873 54.5886 22.8636H44.4767C43.4769 23.2449 42.5144 23.582 41.5878 23.9069C38.7282 24.9089 36.2282 25.7851 35.9033 26.6118C35.6953 27.1407 36.802 27.9393 40.1533 29.2564C47.3967 32.1033 61.0449 35.9244 69.748 38.3611C73.2504 39.3416 75.956 40.0993 77.1422 40.4847C78.3206 40.8678 79.1975 41.3438 79.7789 41.8851C80.3482 42.4151 80.6529 43.0127 80.6991 43.6578C80.7447 44.2896 80.5369 44.9276 80.0829 45.5522C79.5609 46.2713 78.6891 46.9918 77.4851 47.6767C77.1126 47.888 76.6391 47.7576 76.4278 47.3851C76.2164 47.0127 76.3469 46.5391 76.7193 46.3278C77.7242 45.7562 78.4302 45.1844 78.8251 44.6407C79.0586 44.3191 79.1682 44.0244 79.1498 43.7671C79.1322 43.5229 78.9904 43.2718 78.7215 43.0216C78.3031 42.632 77.6198 42.2724 76.6622 41.9611C75.5022 41.5842 72.8115 40.8307 69.3289 39.8558C60.5951 37.4104 46.8993 33.576 39.5884 30.7027C35.1773 28.9691 33.8938 27.4796 34.4571 26.0469C35.0422 24.5578 37.8575 23.5709 41.0775 22.4424C41.9104 22.1507 42.772 21.8487 43.5891 21.5436C43.7193 20.1071 44.3611 18.812 45.3293 17.8436L45.3322 17.8407C45.8138 17.3591 46.3762 16.9582 46.9967 16.6611C46.9307 16.6033 46.8666 16.5436 46.8046 16.4816C46.0938 15.7738 45.6546 14.7936 45.6546 13.7116C45.6546 12.824 45.9511 12.0049 46.45 11.3473H39.0398V5.88889H39.8175ZM49.6053 11.3473H49.544C48.9018 11.3553 48.322 11.618 47.9011 12.038C47.4744 12.4656 47.2102 13.0571 47.2102 13.7116C47.2102 14.3644 47.4751 14.956 47.9027 15.3836V15.3864C48.3215 15.8056 48.9011 16.0678 49.544 16.0758H49.5744L49.5746 16.076L49.6053 16.0758C50.2462 16.0678 50.826 15.8044 51.2469 15.3836H51.2498C51.6755 14.958 51.9393 14.3667 51.9393 13.7116C51.9393 13.0584 51.6744 12.4669 51.2469 12.0393C50.8273 11.618 50.2475 11.3553 49.6053 11.3473ZM58.554 7.44444H40.5953V9.79177H49.524L49.5746 9.79155L49.6253 9.79177H58.554V7.44444ZM49.5746 17.6316V17.6313V17.6316ZM55.5731 59.5849C55.48 61.0907 54.826 62.4509 53.8198 63.4571C52.7309 64.546 51.228 65.2222 49.5746 65.2222C47.9211 65.2222 46.4182 64.546 45.3293 63.4571C44.3389 62.4667 43.69 61.1333 43.5809 59.656C41.2518 58.2558 38.1598 56.9082 34.9093 55.4924C26.4927 51.8256 17.0449 47.7082 16.0784 40.6787C16.0684 40.6349 16.0624 40.5907 16.0602 40.5464C15.9938 39.9713 16.0402 39.3884 16.2047 38.8016C16.3669 38.2244 16.6429 37.644 17.0382 37.0649C17.2798 36.7109 17.7629 36.6198 18.1169 36.8613C18.4709 37.1029 18.562 37.586 18.3204 37.94C18.0218 38.3776 17.816 38.8056 17.6993 39.2207C17.6011 39.5711 17.5655 39.9144 17.5889 40.2489C20.1593 44.3176 37.8924 49.9931 45.1111 52.3029L46.3864 52.712C46.794 52.8427 47.0184 53.2796 46.8878 53.6871C46.7571 54.0947 46.3202 54.3191 45.9126 54.1884L44.6373 53.7793C38.4029 51.7842 24.5024 47.3356 18.5964 43.2387C21.2978 47.8689 28.7624 51.1224 35.5293 54.0707C38.916 55.546 42.134 56.9482 44.5609 58.4342H54.2715C55.3082 58.0327 56.3693 57.5853 57.3873 57.102C59.0426 56.3164 60.5284 55.456 61.5004 54.582C62.2909 53.8716 62.7055 53.1949 62.4873 52.6267L62.4529 52.5513C62.1953 52.0089 61.224 51.4447 59.8233 50.8831C58.2822 50.2653 56.2858 49.6984 54.1373 49.1836C48.8393 47.9133 44.1064 46.6453 39.4658 45.4022L36.6031 44.6358C35.9222 44.4544 35.4133 44.322 34.9102 44.1913C30.7795 43.1178 26.6331 42.0398 22.3 39.4916C21.3378 38.926 20.6229 38.3351 20.1575 37.7282C19.622 37.03 19.4009 36.304 19.4951 35.5609C19.5855 34.8467 19.9693 34.1618 20.6455 33.5164C21.4013 32.7951 22.5458 32.1042 24.0762 31.4611C24.4722 31.2951 24.9282 31.4813 25.0942 31.8773C25.2602 32.2733 25.074 32.7293 24.678 32.8953C23.3184 33.4667 22.3307 34.0529 21.7149 34.6404C21.3044 35.0322 21.0767 35.4058 21.0324 35.7556C20.9918 36.0767 21.1113 36.422 21.3909 36.7864C21.7353 37.2356 22.3 37.6938 23.084 38.1547C27.2302 40.5929 31.2724 41.6438 35.2991 42.6904L36.9982 43.1349L39.8666 43.9013C44.576 45.1629 49.3789 46.4496 54.496 47.6764C56.7204 48.2096 58.7922 48.7984 60.4007 49.4431C62.1498 50.1444 63.4115 50.9518 63.8564 51.8891C63.8778 51.9347 63.9038 51.996 63.9335 52.0738C64.426 53.356 63.8135 54.5916 62.5395 55.7367C61.4475 56.7184 59.8311 57.66 58.0495 58.5056C57.2571 58.8816 56.4193 59.2438 55.5731 59.5849ZM52.7202 62.3576C53.3526 61.7251 53.7975 60.9042 53.9604 59.9898H45.1887C45.3515 60.9042 45.7964 61.7251 46.4289 62.3576C47.2364 63.1651 48.3502 63.6667 49.5744 63.6667C50.7989 63.6667 51.9127 63.1651 52.7202 62.3576ZM31.6693 26.8853C32.0804 26.7662 32.5104 27.0029 32.6295 27.414C32.7487 27.8251 32.512 28.2551 32.1009 28.3742C28.3075 29.4767 27.16 30.5027 27.574 31.4456C28.1089 32.6644 30.4604 34.0036 33.3626 35.302C39.3038 37.9602 48.1786 39.9198 56.1375 41.6771C62.1786 43.0109 67.6984 44.2298 71.0911 45.5633C74.1389 46.7616 74.9175 48.0084 74.4018 49.3209C73.8884 50.6269 71.8764 51.6907 69.7133 52.834C69.1491 53.1324 68.5731 53.4371 67.9835 53.7684C67.6095 53.978 67.1358 53.8447 66.9262 53.4707C66.7166 53.0967 66.85 52.6229 67.224 52.4133C67.7811 52.1002 68.3922 51.7769 68.9902 51.4607C70.8882 50.4573 72.6538 49.5238 72.9555 48.756C73.1218 48.3331 72.5095 47.7893 70.5262 47.0096C67.2249 45.7118 61.7715 44.5076 55.8033 43.19C47.7687 41.416 38.8095 39.4378 32.7306 36.718C29.5164 35.28 26.8742 33.7109 26.1522 32.0656C25.3087 30.144 26.6387 28.3473 31.6693 26.8853Z" fill="#222222"/>
</svg>
