<svg width="100" height="72" viewBox="0 0 100 72" fill="none" xmlns="http://www.w3.org/2000/svg">
<path d="M46.1849 41.7255C45.3791 40.6736 45.1522 39.1895 44.9194 37.6652C44.6002 35.5767 44.2665 33.3913 41.8471 32.7635C40.872 32.511 40.1885 32.7919 39.8094 33.2684C39.6131 33.5157 39.4878 33.8151 39.4394 34.1206C39.3909 34.4223 39.4162 34.7232 39.5178 34.98H39.5209C39.6762 35.372 40.0469 35.6662 40.6529 35.6662C41.2158 35.6662 41.5087 35.5067 41.6096 35.3072C41.6571 35.2125 41.6656 35.1016 41.6427 34.9951C41.6211 34.8946 41.5711 34.805 41.4996 34.7463C41.4034 34.6681 41.2327 34.6531 40.9967 34.7663C40.612 34.9503 40.1469 34.7977 39.9578 34.4251C39.7678 34.0536 39.9254 33.6029 40.31 33.4189C41.1936 32.9959 41.9656 33.1591 42.5022 33.5984C42.8398 33.8763 43.0698 34.2665 43.1614 34.6888C43.2514 35.1029 43.2076 35.5567 43.0007 35.9663C42.6622 36.6374 41.9149 37.1729 40.6529 37.1729C39.2949 37.1729 38.4436 36.4624 38.0691 35.5158L38.0714 35.5149C37.8722 35.0114 37.8198 34.443 37.9082 33.8911C37.996 33.3429 38.2229 32.8022 38.5827 32.3502C38.7887 32.0913 39.0356 31.8605 39.3218 31.6728V27.6605H33.8234L33.7449 27.6487C31.9471 27.3784 30.1785 27.0811 28.3405 26.7505C26.368 26.3958 24.4718 26.0355 22.4647 25.6459L1.92714 21.6618L0.854248 19.3572L3.97647 16.4023C9.08958 16.3496 14.2025 16.2921 19.3149 16.2467L34.3709 20.7657L40.7136 22.5481C41.188 22.6814 41.7349 22.8185 42.2969 22.9592C43.6791 23.3056 45.1498 23.6741 46.2189 24.1859V16.141C45.5698 15.793 44.9762 15.3586 44.4556 14.8539C43.2065 13.6438 42.3727 12.0293 42.1885 10.2366H36.3005V3.72379H37.0787H63.6996V10.2366H57.8116C57.6276 12.0293 56.7945 13.6438 55.5454 14.8539C55.0242 15.3586 54.4305 15.7932 53.7811 16.1413V24.1859C54.8502 23.6741 56.3209 23.3056 57.7031 22.9592C58.2651 22.8185 58.812 22.6814 59.2865 22.5481L65.6291 20.7657L80.6851 16.2467C85.7976 16.2921 90.9105 16.3496 96.0236 16.4023L99.1458 19.3572L98.0729 21.6618L77.5354 25.6459C75.5282 26.0355 73.632 26.3958 71.6596 26.7505C69.8216 27.0811 68.0529 27.3784 66.2551 27.6487L66.1767 27.6605H60.6791V31.6728C60.9656 31.8605 61.2127 32.0911 61.4189 32.3502C61.778 32.8022 62.0056 33.3429 62.0931 33.8911C62.1816 34.443 62.1287 35.0114 61.9294 35.5149L61.9325 35.5158C61.5574 36.4624 60.706 37.1729 59.3487 37.1729C58.0867 37.1729 57.3394 36.6374 57.0002 35.9663C56.7934 35.5567 56.7496 35.1029 56.8394 34.6888C56.9309 34.2665 57.1609 33.8763 57.4994 33.5984C58.0354 33.1591 58.8074 32.9959 59.6916 33.4189C60.0754 33.6029 60.2331 34.0536 60.0438 34.4251C59.854 34.7977 59.3887 34.9503 59.0049 34.7663C58.768 34.6531 58.5982 34.6681 58.502 34.7463C58.4305 34.805 58.3798 34.8946 58.3582 34.9951C58.3351 35.1016 58.3436 35.2125 58.3914 35.3072C58.492 35.5067 58.7849 35.6662 59.3487 35.6662C59.9538 35.6662 60.3254 35.372 60.4798 34.98L60.4829 34.9815C60.5851 34.7232 60.6107 34.4223 60.5622 34.1206C60.5129 33.8151 60.3885 33.5157 60.1916 33.2684C59.8125 32.7919 59.1287 32.511 58.1536 32.7635C55.7345 33.3913 55.4007 35.5767 55.0816 37.6652L55.0707 37.736H59.3487L59.3687 37.7362L59.3887 37.737L59.4085 37.7381L59.4282 37.7398L59.4476 37.742L59.4671 37.7446L59.4862 37.7478L59.5054 37.7512L59.5242 37.7553L59.5429 37.7596L59.5614 37.7646L59.5798 37.7698L59.598 37.7756L59.6158 37.7816V37.7818L59.6336 37.7883L59.6511 37.7952L59.6685 37.8025L59.6856 37.8102L59.7025 37.8184L59.7191 37.827L59.7356 37.8358L59.7518 37.8451L59.7676 37.8548L59.7834 37.8647L59.7987 37.875L59.8138 37.8858L59.8287 37.8968L59.8431 37.9079V37.9082L59.8574 37.9198L59.8714 37.9316V37.9318L59.8851 37.9441L59.8985 37.9566V37.9568L59.9114 37.9695V37.9697L59.9242 37.9828L59.9365 37.9964L59.9487 38.0102L59.9602 38.0242V38.0244L59.9716 38.0386V38.0388L59.9827 38.0532V38.0534L59.9934 38.0681V38.0683L60.0036 38.0834V38.0836L60.0136 38.0986V38.0989L60.0231 38.1144V38.1146L60.0322 38.1303V38.1305L60.0411 38.1464V38.1466L60.0496 38.1628V38.163L60.0576 38.1794V38.1796L60.0651 38.1962V38.1964L60.0722 38.2132V38.2134L60.0791 38.2304V38.2306L60.0854 38.2476V38.248L60.0914 38.2652V38.2657L60.0967 38.2831V38.2833L60.1018 38.301V38.3014L60.1062 38.3191V38.3195L60.1105 38.3373V38.3378L60.114 38.3559V38.3563L60.1174 38.3744V38.375L60.12 38.3933V38.3937L60.1222 38.412V38.4127L60.124 38.4312V38.4318L60.1251 38.4504V38.451L60.126 38.4697V38.4704L60.1262 38.4891V38.4897V41.7255H68.1967V42.4784C68.1967 47.3452 66.1596 51.7516 62.8669 54.941C62.0302 55.7514 61.1122 56.483 60.1262 57.124V58.8625C60.1262 59.2782 59.7778 59.6157 59.3487 59.6157C58.9189 59.6157 58.5705 59.2782 58.5705 58.8625V58.0295C56.0165 59.3528 53.0987 60.1034 50 60.1034C44.9754 60.1034 40.426 58.1305 37.1331 54.941C33.8396 51.7516 31.8025 47.3452 31.8025 42.4784V41.7255H46.1849ZM54.8125 39.2429C54.6174 40.1809 54.3385 41.044 53.8162 41.7255H58.5705V39.2429H54.8125ZM58.5705 61.439C58.5705 61.0233 58.9189 60.6858 59.3487 60.6858C59.7778 60.6858 60.1262 61.0233 60.1262 61.439V64.6336C60.1262 65.0499 59.7778 65.3873 59.3487 65.3873C58.9189 65.3873 58.5705 65.0499 58.5705 64.6336V61.439ZM60.1262 43.2315V55.2706C60.7047 54.8403 61.2531 54.3745 61.768 53.8758C64.6078 51.1253 66.4265 47.3831 66.6234 43.2315H60.1262ZM58.5705 56.2979V43.2315H50.0007H33.3758C33.5736 47.3831 35.3922 51.1253 38.232 53.8758C41.2436 56.7928 45.4045 58.5973 50 58.5973C53.1347 58.5973 56.0671 57.7577 58.5705 56.2979ZM50 54.2863C50.4291 54.2863 50.7776 54.6238 50.7776 55.0401C50.7776 55.4557 50.4291 55.7932 50 55.7932C47.0778 55.7932 44.3649 54.9068 42.1331 53.3954C39.8416 51.8439 38.0607 49.6319 37.0856 47.0449C36.9394 46.6547 37.1478 46.2234 37.55 46.0826C37.9529 45.9412 38.3974 46.1431 38.5436 46.5324C39.4087 48.8273 40.9882 50.7901 43.0207 52.1657C44.9938 53.5028 47.4009 54.2863 50 54.2863ZM40.9854 31.1606C41.0725 31.1576 41.1614 31.1576 41.2518 31.1606H58.7491C58.8396 31.1576 58.9285 31.1576 59.0156 31.1606H59.1234V27.6605H53.7811H53.4289H46.5711H46.2189H40.8774V31.1606H40.9854ZM44.7116 32.6675C45.9167 33.918 46.1909 35.7097 46.4565 37.4478C46.758 39.4256 47.0478 41.3146 49.2225 41.6661V32.6675H44.7116ZM50.7782 32.6675V41.6663C52.9536 41.315 53.2427 39.4258 53.5451 37.4478C53.8107 35.7097 54.0845 33.918 55.2894 32.6675H50.7782ZM53.7811 25.9259V25.9289C53.782 25.961 53.7958 25.9965 53.8205 26.0331C53.8474 26.0727 53.8834 26.1127 53.9289 26.1538H60.6791H66.0967C67.8276 25.8932 69.5609 25.6005 71.3805 25.2735C73.0938 24.9657 75.0438 24.5933 77.2316 24.1689L96.9871 20.3359L97.2847 19.696L95.3831 17.8966L80.916 17.7498L66.0727 22.204L59.7178 23.99C59.2118 24.1317 58.6596 24.2701 58.0914 24.4123C56.0582 24.9218 53.7811 25.4924 53.7811 25.9259ZM46.2189 25.9289V25.9259C46.2189 25.4924 43.9418 24.9218 41.9087 24.4123C41.3405 24.2701 40.7882 24.1317 40.2822 23.99C33.1714 21.9917 26.1636 19.8742 19.084 17.7498L4.61691 17.8966L2.71536 19.696L3.01291 20.3359L22.7685 24.1689C24.9562 24.5933 26.9062 24.9657 28.6196 25.2735C30.4391 25.6005 32.1725 25.8932 33.9034 26.1538H39.3218H46.0711C46.1167 26.1127 46.1527 26.0727 46.1796 26.0331C46.2042 25.9965 46.218 25.961 46.2189 25.9289ZM42.15 8.73051H57.85H62.1447V5.23069H37.856V8.73051H42.15ZM54.4456 13.7887C55.4129 12.8517 56.0689 11.613 56.2465 10.2366H43.7542C43.9318 11.613 44.5878 12.8517 45.5551 13.7887C46.6956 14.8942 48.2698 15.5801 50 15.5801C51.7311 15.5801 53.3045 14.8942 54.4456 13.7887ZM52.2256 17.0868H50.0007H47.7745V25.9259V25.9414V26.1538H52.2256V25.9414V25.9259V17.0868Z" fill="#222222"/>
</svg>
