<svg width="100" height="72" viewBox="0 0 100 72" fill="none" xmlns="http://www.w3.org/2000/svg">
<path d="M25.5873 18.0784C25.5873 21.1969 24.3231 24.0204 22.2793 26.0642C20.884 27.4596 19.1247 28.4918 17.1564 29.006C17.0647 29.6347 16.7691 30.1991 16.3391 30.6302L16.3362 30.6331C15.9911 30.9776 15.5602 31.2356 15.0796 31.3718C15.2187 37.0593 17.1242 42.1849 20.1356 45.9253C23.2262 49.7651 27.4842 52.1404 32.1758 52.1404C32.8749 52.1404 33.5644 52.0871 34.242 51.9847C33.628 50.5198 33.2484 48.8602 33.1709 47.096C32.6789 46.9616 32.2389 46.7007 31.8887 46.3504C31.4582 45.92 31.1627 45.3547 31.0711 44.7233C29.1029 44.2091 27.3438 43.1769 25.9484 41.7816C23.9049 39.7378 22.6404 36.9142 22.6404 33.7958V33.018H28.1238H31.2302C30.9613 32.5562 30.8073 32.0193 30.8073 31.4467C30.8073 31.284 30.822 31.1147 30.8502 30.9418L30.8556 30.9129C30.8829 30.7533 30.922 30.5993 30.9716 30.4527C31.7089 28.2407 32.4567 26.0289 33.1989 23.8178C33.3347 23.4118 33.7742 23.1927 34.1802 23.3284C34.4222 23.4093 34.598 23.5984 34.6716 23.8238L36.8969 30.4527C36.9493 30.6087 36.9902 30.7722 37.0178 30.9424C37.0464 31.1149 37.0611 31.2838 37.0611 31.4467C37.0611 32.0193 36.9071 32.5562 36.6382 33.018H39.7444H45.2278V33.7958C45.2278 36.9142 43.9633 39.7378 41.9198 41.7816C40.5242 43.1769 38.7653 44.2089 36.7971 44.7231C36.7056 45.3544 36.41 45.92 35.9796 46.3504C35.6364 46.6936 35.2078 46.9509 34.7278 47.0876C34.8082 48.7564 35.1873 50.312 35.794 51.6587C39.0382 50.7813 41.9429 48.7496 44.216 45.9256C47.3449 42.0384 49.2802 36.6569 49.2802 30.7029H50.8358C50.8358 36.6569 52.7711 42.0384 55.9 45.9256C58.1731 48.7496 61.0778 50.7816 64.322 51.6587C64.9287 50.312 65.3078 48.7564 65.3882 47.0876C64.9082 46.9509 64.4796 46.6936 64.1364 46.3504C63.706 45.92 63.4104 45.3544 63.3189 44.7231C61.3507 44.2087 59.5918 43.1769 58.1962 41.7816C56.1527 39.7378 54.8882 36.9142 54.8882 33.7958V33.018H60.3716H63.4778C63.2089 32.5562 63.0549 32.0193 63.0549 31.4467C63.0549 31.2838 63.0696 31.1149 63.098 30.9424C63.1258 30.7722 63.1667 30.6087 63.2191 30.4527L65.4444 23.8238C65.518 23.5984 65.6938 23.4093 65.9358 23.3284C66.3418 23.1927 66.7813 23.4118 66.9171 23.8178C67.6593 26.0289 68.4071 28.2407 69.1444 30.4527C69.194 30.5993 69.2331 30.7533 69.2604 30.9129L69.2658 30.9418C69.294 31.1147 69.3087 31.284 69.3087 31.4467C69.3087 32.0193 69.1547 32.5562 68.8858 33.018H71.9922H77.4755V33.7958C77.4755 36.9142 76.2111 39.7378 74.1675 41.7816C72.7722 43.1769 71.0131 44.2091 69.0449 44.7233C68.9533 45.3547 68.6578 45.92 68.2273 46.3504C67.8771 46.7007 67.4371 46.9616 66.9451 47.096C66.8676 48.8602 66.488 50.5198 65.874 51.9847C66.5516 52.0873 67.2409 52.1404 67.9402 52.1404C72.6318 52.1404 76.8898 49.7651 79.9804 45.9253C82.9918 42.1849 84.8973 37.0593 85.0364 31.3718C84.5558 31.2356 84.1249 30.9776 83.7798 30.6331L83.7769 30.6302C83.3467 30.1991 83.0513 29.6347 82.9595 29.006C80.9913 28.4916 79.232 27.4596 77.8367 26.0642C75.7929 24.0204 74.5287 21.1969 74.5287 18.0784V17.3007H80.012H83.1182C82.8493 16.8391 82.6953 16.3022 82.6953 15.7296C82.6953 15.5667 82.71 15.3976 82.7384 15.2253C82.7662 15.0551 82.8071 14.8913 82.8596 14.7353L85.0849 8.10644C85.1584 7.88111 85.3342 7.692 85.5762 7.61111C85.9822 7.47533 86.4218 7.69444 86.5575 8.10044C87.2998 10.3116 88.0476 12.5233 88.7849 14.7353C88.8344 14.8822 88.8736 15.0362 88.9009 15.1958L88.9062 15.2247C88.9344 15.3976 88.9491 15.5667 88.9491 15.7296C88.9491 16.3022 88.7951 16.8391 88.5262 17.3007H91.6327H97.116V18.0784C97.116 21.1969 95.8518 24.0204 93.808 26.0642C92.4127 27.4596 90.6535 28.4918 88.6851 29.006C88.5933 29.6347 88.2978 30.1991 87.8678 30.6302L87.8649 30.6331C87.516 30.9813 87.0793 31.2413 86.5922 31.3762C86.4509 37.4238 84.4131 42.8927 81.1893 46.8973C77.8084 51.0978 73.1244 53.696 67.9402 53.696C66.9918 53.696 66.06 53.6087 65.15 53.4407C64.9311 53.816 64.6951 54.1733 64.4436 54.5098C62.84 56.6544 60.6051 57.9813 58.12 57.9813C55.6347 57.9813 53.4 56.6542 51.7967 54.5098C51.0784 53.5489 50.4869 52.4209 50.058 51.1751C49.6291 52.4209 49.0376 53.5489 48.3193 54.5098C46.716 56.6542 44.4813 57.9813 41.996 57.9813C39.5109 57.9813 37.276 56.6544 35.6724 54.5098C35.4209 54.1733 35.1849 53.816 34.966 53.4407C34.0558 53.6087 33.1244 53.696 32.1758 53.696C26.9916 53.696 22.3076 51.0978 18.9267 46.8973C15.7029 42.8927 13.6651 37.4238 13.5238 31.3762C13.0367 31.2411 12.6002 30.9813 12.2511 30.6331L12.2482 30.6302C11.8182 30.1991 11.5227 29.6347 11.4309 29.006C9.46244 28.4916 7.70333 27.4596 6.308 26.0642C4.26422 24.0204 3 21.1969 3 18.0784V17.3007H8.48333H11.5898C11.3209 16.8391 11.1669 16.3022 11.1669 15.7296C11.1669 15.5667 11.1816 15.3976 11.2098 15.2247L11.2151 15.1958C11.2424 15.0362 11.2816 14.8822 11.3311 14.7353C12.0684 12.5233 12.8162 10.3116 13.5584 8.10044C13.6942 7.69444 14.1338 7.47533 14.5398 7.61111C14.7818 7.692 14.9576 7.88111 15.0311 8.10644L17.2564 14.7353C17.3089 14.8913 17.3498 15.0551 17.3773 15.2253C17.406 15.3976 17.4207 15.5667 17.4207 15.7296C17.4207 16.3022 17.2667 16.8391 16.9978 17.3007H20.104H25.5873V18.0784ZM49.2802 46.42V39.908C48.3502 42.5298 47.0358 44.8964 45.4249 46.8976C43.028 49.8753 39.976 52.0473 36.5553 53.0598C36.6716 53.2391 36.7924 53.4129 36.9178 53.5804C38.232 55.3382 40.0291 56.4258 41.996 56.4258C43.9631 56.4258 45.76 55.338 47.074 53.5804C48.4369 51.7573 49.2802 49.2262 49.2802 46.42ZM50.8358 39.908V46.42C50.8358 49.2262 51.6791 51.7573 53.042 53.5804C54.356 55.338 56.1529 56.4258 58.12 56.4258C60.0869 56.4258 61.884 55.3382 63.1982 53.5804C63.3236 53.4129 63.4444 53.2391 63.5607 53.0598C60.1398 52.0476 57.088 49.8753 54.6911 46.8976C53.0802 44.8964 51.7658 42.5298 50.8358 39.908ZM50.2753 20.3629C50.7684 20.2629 51.1396 19.8267 51.1396 19.3038C51.1396 18.7809 50.7684 18.3451 50.2753 18.2447L50.2498 18.2396H50.2489L50.2231 18.2351H50.2222L50.1962 18.2313H50.1951L50.1689 18.2282H50.168L50.1416 18.2258H50.1407L50.114 18.224H50.1131L50.0864 18.2231H50.0856L50.0584 18.2227H50.0576L50.0304 18.2231H50.0296L50.0029 18.224H50.002L49.9753 18.2258H49.9744L49.948 18.2282H49.9471L49.9209 18.2313H49.9198L49.8938 18.2351H49.8929L49.8671 18.2396H49.8662L49.8407 18.2447C49.3473 18.3449 48.9764 18.7811 48.9764 19.3038C48.9764 19.8267 49.3476 20.2627 49.8407 20.3629L49.8662 20.368H49.8671L49.8929 20.3724H49.8938L49.9198 20.3762H49.9209L49.9471 20.3793H49.948L49.9744 20.3818H49.9753L50.002 20.3836H50.0029L50.0296 20.3844H50.0304L50.0576 20.3849H50.0584L50.0856 20.3844H50.0864L50.1131 20.3836H50.114L50.1407 20.3818H50.1416L50.168 20.3793H50.1689L50.1951 20.3762H50.1962L50.2222 20.3724H50.2231L50.2489 20.368H50.2498L50.2753 20.3629ZM50.2753 29.0116C50.7684 28.9113 51.1396 28.4751 51.1396 27.9524C51.1396 27.4293 50.7684 26.9936 50.2753 26.8933L50.2498 26.8882H50.2489L50.2231 26.8838H50.2222L50.1962 26.88H50.1951L50.1689 26.8769H50.168L50.1416 26.8744H50.1407L50.114 26.8727H50.1131L50.0864 26.8718H50.0856L50.0584 26.8713H50.0576L50.0304 26.8718H50.0296L50.0029 26.8727H50.002L49.9753 26.8744H49.9744L49.948 26.8769H49.9471L49.9209 26.88H49.9198L49.8938 26.8838H49.8929L49.8671 26.8882H49.8662L49.8407 26.8933C49.3473 26.9936 48.9764 27.4296 48.9764 27.9524C48.9764 28.4753 49.3476 28.9113 49.8407 29.0116L49.8662 29.0167H49.8671L49.8929 29.0211H49.8938L49.9198 29.0249H49.9209L49.9471 29.028H49.948L49.9744 29.0304H49.9753L50.002 29.0322H50.0029L50.0296 29.0331H50.0304L50.0576 29.0336H50.0584L50.0856 29.0331H50.0864L50.1131 29.0322H50.114L50.1407 29.0304H50.1416L50.168 29.028H50.1689L50.1951 29.0249H50.1962L50.2222 29.0211H50.2231L50.2489 29.0167H50.2498L50.2753 29.0116ZM50.2753 24.6871C50.7684 24.5871 51.1396 24.1509 51.1396 23.628C51.1396 23.1051 50.7684 22.6693 50.2753 22.5691L50.2498 22.564H50.2489L50.2231 22.5596H50.2222L50.1962 22.5558H50.1951L50.1689 22.5527H50.168L50.1416 22.5502H50.1407L50.114 22.5484H50.1131L50.0864 22.5476H50.0856L50.0584 22.5471H50.0576L50.0304 22.5476H50.0296L50.0029 22.5484H50.002L49.9753 22.5502H49.9744L49.948 22.5527H49.9471L49.9209 22.5558H49.9198L49.8938 22.5596H49.8929L49.8671 22.564H49.8662L49.8407 22.5691C49.3473 22.6693 48.9764 23.1053 48.9764 23.628C48.9764 24.1509 49.3476 24.5869 49.8407 24.6871L49.8662 24.6922H49.8671L49.8929 24.6967H49.8938L49.9198 24.7004H49.9209L49.9471 24.7036H49.948L49.9744 24.706H49.9753L50.002 24.7078H50.0029L50.0296 24.7087H50.0304L50.0576 24.7091H50.0584L50.0856 24.7087H50.0864L50.1131 24.7078H50.114L50.1407 24.706H50.1416L50.168 24.7036H50.1689L50.1951 24.7004H50.1962L50.2222 24.6967H50.2231L50.2489 24.6922H50.2498L50.2753 24.6871ZM50.2753 56.8851C50.7684 56.7851 51.1396 56.3489 51.1396 55.826C51.1396 55.3031 50.7684 54.8673 50.2753 54.7669L50.2498 54.7618H50.2489L50.2231 54.7573H50.2222L50.1962 54.7536H50.1951L50.1689 54.7504H50.168L50.1416 54.748H50.1407L50.114 54.7462H50.1131L50.0864 54.7453H50.0856L50.0584 54.7449H50.0576L50.0304 54.7453H50.0296L50.0029 54.7462H50.002L49.9753 54.748H49.9744L49.948 54.7504H49.9471L49.9209 54.7536H49.9198L49.8938 54.7573H49.8929L49.8671 54.7618H49.8662L49.8407 54.7669C49.3473 54.8671 48.9764 55.3033 48.9764 55.826C48.9764 56.3489 49.3476 56.7849 49.8407 56.8851L49.8662 56.8902H49.8671L49.8929 56.8947H49.8938L49.9198 56.8984H49.9209L49.9471 56.9016H49.948L49.9744 56.904H49.9753L50.002 56.9058H50.0029L50.0296 56.9067H50.0304L50.0576 56.9071H50.0584L50.0856 56.9067H50.0864L50.1131 56.9058H50.114L50.1407 56.904H50.1416L50.168 56.9016H50.1689L50.1951 56.8984H50.1962L50.2222 56.8947H50.2231L50.2489 56.8902H50.2498L50.2753 56.8851ZM50.2753 65.5336C50.7684 65.4336 51.1396 64.9973 51.1396 64.4747C51.1396 63.9516 50.7684 63.5158 50.2753 63.4156L50.2498 63.4104H50.2489L50.2231 63.406H50.2222L50.1962 63.4022H50.1951L50.1689 63.3991H50.168L50.1416 63.3967H50.1407L50.114 63.3949H50.1131L50.0864 63.394H50.0856L50.0584 63.3936H50.0576L50.0304 63.394H50.0296L50.0029 63.3949H50.002L49.9753 63.3967H49.9744L49.948 63.3991H49.9471L49.9209 63.4022H49.9198L49.8938 63.406H49.8929L49.8671 63.4104H49.8662L49.8407 63.4156C49.3473 63.5158 48.9764 63.9518 48.9764 64.4747C48.9764 64.9976 49.3476 65.4333 49.8407 65.5336L49.8662 65.5387H49.8671L49.8929 65.5431H49.8938L49.9198 65.5469H49.9209L49.9471 65.55H49.948L49.9744 65.5524H49.9753L50.002 65.5542H50.0029L50.0296 65.5551H50.0304L50.0576 65.5556H50.0584L50.0856 65.5551H50.0864L50.1131 65.5542H50.114L50.1407 65.5524H50.1416L50.168 65.55H50.1689L50.1951 65.5469H50.1962L50.2222 65.5431H50.2231L50.2489 65.5387H50.2498L50.2753 65.5336ZM50.2753 61.2093C50.7684 61.1093 51.1396 60.6731 51.1396 60.1502C51.1396 59.6273 50.7684 59.1916 50.2753 59.0913L50.2498 59.0862H50.2489L50.2231 59.0818H50.2222L50.1962 59.078H50.1951L50.1689 59.0749H50.168L50.1416 59.0724H50.1407L50.114 59.0707H50.1131L50.0864 59.0698H50.0856L50.0584 59.0693H50.0576L50.0304 59.0698H50.0296L50.0029 59.0707H50.002L49.9753 59.0724H49.9744L49.948 59.0749H49.9471L49.9209 59.078H49.9198L49.8938 59.0818H49.8929L49.8671 59.0862H49.8662L49.8407 59.0913C49.3473 59.1916 48.9764 59.6276 48.9764 60.1502C48.9764 60.6731 49.3476 61.1091 49.8407 61.2093L49.8662 61.2144H49.8671L49.8929 61.2189H49.8938L49.9198 61.2227H49.9209L49.9471 61.2258H49.948L49.9744 61.2282H49.9753L50.002 61.23H50.0029L50.0296 61.2309H50.0304L50.0576 61.2313H50.0584L50.0856 61.2309H50.0864L50.1131 61.23H50.114L50.1407 61.2282H50.1416L50.168 61.2258H50.1689L50.1951 61.2227H50.1962L50.2222 61.2189H50.2231L50.2489 61.2144H50.2498L50.2753 61.2093ZM66.1822 54.7449C65.5851 54.7449 65.1011 55.2289 65.1011 55.826C65.1011 56.4231 65.5851 56.9071 66.1822 56.9071C66.7793 56.9071 67.2631 56.4231 67.2631 55.826C67.2631 55.2289 66.7793 54.7449 66.1822 54.7449ZM66.1822 63.3936C65.5851 63.3936 65.1011 63.8773 65.1011 64.4747C65.1011 65.0716 65.5851 65.5556 66.1822 65.5556C66.7793 65.5556 67.2631 65.0716 67.2631 64.4747C67.2631 63.8773 66.7793 63.3936 66.1822 63.3936ZM66.1822 59.0693C65.5851 59.0693 65.1011 59.5531 65.1011 60.1502C65.1011 60.7473 65.5851 61.2313 66.1822 61.2313C66.7793 61.2313 67.2631 60.7473 67.2631 60.1502C67.2631 59.5531 66.7793 59.0693 66.1822 59.0693ZM85.798 41.0296C85.2009 41.0296 84.7169 41.5136 84.7169 42.1107C84.7169 42.7078 85.2009 43.1918 85.798 43.1918C86.3951 43.1918 86.8789 42.7078 86.8789 42.1107C86.8789 41.5136 86.3951 41.0296 85.798 41.0296ZM85.798 49.6782C85.2009 49.6782 84.7169 50.162 84.7169 50.7593C84.7169 51.3562 85.2009 51.8404 85.798 51.8404C86.3951 51.8404 86.8789 51.3562 86.8789 50.7593C86.8789 50.162 86.3951 49.6782 85.798 49.6782ZM85.798 45.354C85.2009 45.354 84.7169 45.8378 84.7169 46.4349C84.7169 47.032 85.2009 47.516 85.798 47.516C86.3951 47.516 86.8789 47.032 86.8789 46.4349C86.8789 45.8378 86.3951 45.354 85.798 45.354ZM64.6898 30.9447C64.6627 31.0253 64.642 31.1071 64.6289 31.1887L64.6284 31.1918C64.6169 31.266 64.6104 31.3511 64.6104 31.4467C64.6104 31.8804 64.7864 32.2736 65.0707 32.5578C65.3549 32.842 65.748 33.018 66.1818 33.018C66.6156 33.018 67.0087 32.842 67.2929 32.5578C67.5771 32.2736 67.7531 31.8804 67.7531 31.4467C67.7531 31.3511 67.7467 31.2653 67.7347 31.1911L67.7313 31.1673C67.7196 31.1011 67.7031 31.0351 67.682 30.9696C67.298 30.2716 66.502 27.454 66.1818 26.5002L64.6898 30.9447ZM66.0324 43.5273H66.3313C67.3418 43.4382 68.2989 42.4498 69.0418 40.8976C69.8224 39.2658 70.3338 37.0518 70.4227 34.5736H66.1818H61.9411C62.03 37.0518 62.5413 39.2658 63.322 40.8976C64.0649 42.4498 65.022 43.4382 66.0324 43.5273ZM67.1278 45.2509C67.1798 45.1989 67.2273 45.1429 67.2702 45.0829H66.5678C66.4398 45.0871 66.3111 45.0896 66.182 45.0896C66.0529 45.0896 65.9242 45.0871 65.7962 45.0829H65.0936C65.1364 45.1429 65.184 45.1989 65.236 45.2509C65.4776 45.4924 65.8124 45.6422 66.182 45.6422C66.5513 45.6422 66.8862 45.4924 67.1278 45.2509ZM61.9247 41.566C61.0484 39.7347 60.4771 37.2831 60.3849 34.5736H56.4747C56.6627 36.9529 57.7053 39.0916 59.2958 40.682C60.2498 41.636 61.4011 42.3931 62.6833 42.8867C62.4096 42.4911 62.1558 42.0489 61.9247 41.566ZM71.9789 34.5736C71.8867 37.2831 71.3153 39.7347 70.4391 41.566C70.208 42.0489 69.954 42.4909 69.6804 42.8864C70.9627 42.3927 72.114 41.636 73.068 40.682C74.6584 39.0916 75.7011 36.9529 75.8891 34.5736H71.9789ZM84.3302 15.2273C84.3031 15.308 84.2824 15.3898 84.2693 15.4716L84.2689 15.4747C84.2573 15.5487 84.2509 15.634 84.2509 15.7296C84.2509 16.1633 84.4269 16.5562 84.7111 16.8404C84.9953 17.1247 85.3884 17.3007 85.8222 17.3007C86.256 17.3007 86.6491 17.1247 86.9333 16.8404C87.2176 16.5562 87.3936 16.1633 87.3936 15.7296C87.3936 15.6338 87.3871 15.5482 87.3751 15.474L87.3718 15.4502C87.36 15.384 87.3436 15.3178 87.3224 15.2522C86.9384 14.5542 86.1424 11.7367 85.8222 10.7829L84.3302 15.2273ZM85.6727 27.81H85.9718C86.9822 27.7209 87.9393 26.7327 88.6822 25.1802C89.4629 23.5487 89.9742 21.3344 90.0631 18.8562H85.8222H81.5816C81.6704 21.3344 82.1818 23.5484 82.9624 25.1802C83.7053 26.7324 84.6622 27.7209 85.6727 27.81ZM86.7711 29.5336C86.8229 29.4818 86.8704 29.4256 86.9131 29.3656H86.208C86.08 29.3698 85.9513 29.3722 85.8222 29.3722C85.6931 29.3722 85.5644 29.3698 85.4364 29.3656H84.7316C84.7742 29.4256 84.8218 29.4818 84.8736 29.5336L84.8764 29.5364C85.1162 29.7764 85.4509 29.9251 85.8224 29.9251C86.194 29.9251 86.5282 29.7764 86.7682 29.5364L86.7711 29.5336ZM81.5651 25.8487C80.6889 24.0173 80.1176 21.5658 80.0253 18.8562H76.1151C76.3031 21.2356 77.3458 23.3742 78.9362 24.9647C79.8902 25.9187 81.0415 26.6756 82.3238 27.1691C82.05 26.7733 81.7962 26.3316 81.5651 25.8487ZM91.6193 18.8562C91.5271 21.5658 90.9558 24.0176 90.0796 25.8487C89.8484 26.3316 89.5947 26.7736 89.3211 27.1691C90.6033 26.6753 91.7544 25.9187 92.7084 24.9647C94.2989 23.3742 95.3416 21.2356 95.5295 18.8562H91.6193ZM33.9338 54.7449C34.5309 54.7449 35.0149 55.2289 35.0149 55.826C35.0149 56.4231 34.5309 56.9071 33.9338 56.9071C33.3367 56.9071 32.8529 56.4231 32.8529 55.826C32.8529 55.2289 33.3367 54.7449 33.9338 54.7449ZM33.9338 63.3936C34.5309 63.3936 35.0149 63.8773 35.0149 64.4747C35.0149 65.0716 34.5309 65.5556 33.9338 65.5556C33.3367 65.5556 32.8529 65.0716 32.8529 64.4747C32.8529 63.8773 33.3367 63.3936 33.9338 63.3936ZM33.9338 59.0693C34.5309 59.0693 35.0149 59.5531 35.0149 60.1502C35.0149 60.7473 34.5309 61.2313 33.9338 61.2313C33.3367 61.2313 32.8529 60.7473 32.8529 60.1502C32.8529 59.5531 33.3367 59.0693 33.9338 59.0693ZM14.318 41.0296C14.9151 41.0296 15.3991 41.5136 15.3991 42.1107C15.3991 42.7078 14.9151 43.1918 14.318 43.1918C13.7209 43.1918 13.2371 42.7078 13.2371 42.1107C13.2371 41.5136 13.7209 41.0296 14.318 41.0296ZM14.318 49.6782C14.9151 49.6782 15.3991 50.162 15.3991 50.7593C15.3991 51.3562 14.9151 51.8404 14.318 51.8404C13.7209 51.8404 13.2371 51.3562 13.2371 50.7593C13.2371 50.162 13.7209 49.6782 14.318 49.6782ZM14.318 45.354C14.9151 45.354 15.3991 45.8378 15.3991 46.4349C15.3991 47.032 14.9151 47.516 14.318 47.516C13.7209 47.516 13.2371 47.032 13.2371 46.4349C13.2371 45.8378 13.7209 45.354 14.318 45.354ZM55.9644 12.3413C55.7893 13.6707 55.1716 14.866 54.266 15.7716C53.1867 16.8509 51.6969 17.5211 50.058 17.5211C48.4187 17.5211 46.9289 16.8509 45.8496 15.7716C44.944 14.866 44.3262 13.6707 44.1511 12.3413H39.816V7H40.5938H60.3V12.3413H55.9644ZM53.1664 14.672C53.7893 14.0491 54.228 13.2413 54.3904 12.3413H45.7251C45.8876 13.2413 46.3262 14.0491 46.9491 14.672C47.7471 15.47 48.8478 15.9656 50.0576 15.9656C51.2678 15.9656 52.3684 15.47 53.1664 14.672ZM58.7444 8.55556H41.3716V10.7858H44.1002H56.0153H58.7444V8.55556ZM35.4871 31.1887C35.474 31.1071 35.4533 31.0253 35.4262 30.9447L33.9342 26.5002C33.4458 27.9549 32.9756 29.5498 32.4347 30.9698C32.4129 31.0351 32.3964 31.1011 32.3847 31.1673L32.3813 31.1911C32.3693 31.2653 32.3629 31.3511 32.3629 31.4467C32.3629 31.8804 32.5389 32.2736 32.8231 32.5578C33.1073 32.842 33.5004 33.018 33.9342 33.018C34.368 33.018 34.7611 32.842 35.0453 32.5578C35.3296 32.2736 35.5056 31.8804 35.5056 31.4467C35.5056 31.3511 35.4991 31.266 35.4871 31.1918V31.1887ZM32.8458 45.0829C32.8887 45.1429 32.9362 45.1989 32.9882 45.2509C33.2298 45.4924 33.5647 45.6422 33.934 45.6422C34.3036 45.6422 34.6384 45.4924 34.88 45.2509C34.932 45.1989 34.9796 45.1429 35.0224 45.0829H34.3198C34.1918 45.0871 34.0631 45.0896 33.934 45.0896C33.8049 45.0896 33.6762 45.0871 33.5482 45.0829H32.8458ZM33.7847 43.5273H34.0836C35.094 43.4382 36.0511 42.4498 36.794 40.8976C37.5747 39.2658 38.086 37.0518 38.1749 34.5736H33.9342H29.6933C29.7822 37.0518 30.2936 39.2658 31.0742 40.8976C31.8171 42.4498 32.7742 43.4382 33.7847 43.5273ZM39.7311 34.5736C39.6389 37.2831 39.0676 39.7347 38.1913 41.566C37.9602 42.0489 37.7064 42.4911 37.4327 42.8867C38.7149 42.3931 39.8662 41.636 40.8202 40.682C42.4107 39.0916 43.4533 36.9529 43.6413 34.5736H39.7311ZM30.4356 42.8864C30.162 42.4909 29.908 42.0489 29.6769 41.566C28.8007 39.7347 28.2293 37.2831 28.1371 34.5736H24.2269C24.4149 36.9529 25.4576 39.0916 27.048 40.682C28.002 41.636 29.1533 42.3927 30.4356 42.8864ZM15.8467 15.4716C15.8336 15.3898 15.8129 15.308 15.7858 15.2273L14.2938 10.7829C13.8053 12.2376 13.3351 13.8324 12.7942 15.2524C12.7724 15.3178 12.756 15.384 12.7442 15.4502L12.7409 15.474C12.7289 15.5482 12.7224 15.6338 12.7224 15.7296C12.7224 16.1633 12.8984 16.5562 13.1827 16.8404C13.4669 17.1247 13.86 17.3007 14.2938 17.3007C14.7276 17.3007 15.1207 17.1247 15.4049 16.8404C15.6891 16.5562 15.8651 16.1633 15.8651 15.7296C15.8651 15.634 15.8587 15.5487 15.8467 15.4747V15.4716ZM14.6796 29.3656C14.5516 29.3698 14.4229 29.3722 14.2938 29.3722C14.1647 29.3722 14.036 29.3698 13.908 29.3656H13.2029C13.2456 29.4256 13.2931 29.4818 13.3449 29.5336L13.3478 29.5364C13.5878 29.7764 13.922 29.9251 14.2936 29.9251C14.6651 29.9251 14.9998 29.7764 15.2396 29.5364L15.2424 29.5336C15.2942 29.4818 15.3418 29.4256 15.3844 29.3656H14.6796ZM14.1442 27.81H14.4433C15.4538 27.7209 16.4107 26.7324 17.1536 25.1802C17.9342 23.5484 18.4456 21.3344 18.5344 18.8562H14.2938H10.0529C10.1418 21.3344 10.6531 23.5487 11.4338 25.1802C12.1767 26.7327 13.1338 27.7209 14.1442 27.81ZM20.0907 18.8562C19.9984 21.5658 19.4271 24.0173 18.5509 25.8487C18.3198 26.3316 18.066 26.7733 17.7922 27.1691C19.0744 26.6756 20.2258 25.9187 21.1798 24.9647C22.7702 23.3742 23.8129 21.2356 24.0009 18.8562H20.0907ZM10.7949 27.1691C10.5213 26.7736 10.2676 26.3316 10.0364 25.8487C9.16022 24.0176 8.58889 21.5658 8.49667 18.8562H4.58644C4.77444 21.2356 5.81711 23.3742 7.40756 24.9647C8.36156 25.9187 9.51267 26.6753 10.7949 27.1691Z" fill="#222222"/>
</svg>
