<svg width="100" height="72" viewBox="0 0 100 72" fill="none" xmlns="http://www.w3.org/2000/svg">
<path d="M16.7721 6.48889H83.9698V12.7309H80.8459V18.7407C80.8459 19.17 80.5 19.5184 80.0738 19.5184C79.6476 19.5184 79.3017 19.17 79.3017 18.7407V12.7309H77.0849V18.7407C77.0849 19.17 76.739 19.5184 76.3128 19.5184C75.8866 19.5184 75.5407 19.17 75.5407 18.7407V12.7309H73.3237V18.7407C73.3237 19.17 72.9778 19.5184 72.5516 19.5184C72.1254 19.5184 71.7795 19.17 71.7795 18.7407V12.7309H69.5627V18.7407C69.5627 19.17 69.2168 19.5184 68.7906 19.5184C68.3644 19.5184 68.0185 19.17 68.0185 18.7407V12.7309H65.8016V18.7407C65.8016 19.17 65.4557 19.5184 65.0295 19.5184C64.6034 19.5184 64.2575 19.17 64.2575 18.7407V12.7309H62.0404V18.7407C62.0404 19.17 61.6945 19.5184 61.2683 19.5184C60.8421 19.5184 60.4962 19.17 60.4962 18.7407V12.7309H58.2794V18.7407C58.2794 19.17 57.9335 19.5184 57.5073 19.5184C57.0811 19.5184 56.7352 19.17 56.7352 18.7407V12.7309H54.5182V18.7407C54.5182 19.17 54.1723 19.5184 53.7461 19.5184C53.3199 19.5184 52.974 19.17 52.974 18.7407V12.7309H50.7572V18.7407C50.7572 19.17 50.4113 19.5184 49.9851 19.5184C49.5589 19.5184 49.213 19.17 49.213 18.7407V12.7309H46.9962V18.7407C46.9962 19.17 46.6503 19.5184 46.2241 19.5184C45.7979 19.5184 45.452 19.17 45.452 18.7407V12.7309H43.235V18.7407C43.235 19.17 42.8891 19.5184 42.4629 19.5184C42.0367 19.5184 41.6908 19.17 41.6908 18.7407V12.7309H39.474V18.7407C39.474 19.17 39.1281 19.5184 38.7019 19.5184C38.2757 19.5184 37.9298 19.17 37.9298 18.7407V12.7309H35.713V18.7407C35.713 19.17 35.3671 19.5184 34.9409 19.5184C34.5147 19.5184 34.1688 19.17 34.1688 18.7407V12.7309H31.9518V18.7407C31.9518 19.17 31.6059 19.5184 31.1797 19.5184C30.7535 19.5184 30.4076 19.17 30.4076 18.7407V12.7309H28.1908V18.7407C28.1908 19.17 27.8449 19.5184 27.4187 19.5184C26.9925 19.5184 26.6466 19.17 26.6466 18.7407V12.7309H24.4295V18.7407C24.4295 19.17 24.0836 19.5184 23.6574 19.5184C23.2313 19.5184 22.8854 19.17 22.8854 18.7407V12.7309H20.6685V18.7407C20.6685 19.17 20.3226 19.5184 19.8964 19.5184C19.4703 19.5184 19.1244 19.17 19.1244 18.7407V12.7309H16V6.48889H16.7721ZM49.9851 61.9707C50.4987 61.9707 50.9152 62.39 50.9152 62.9073C50.9152 63.4249 50.4987 63.8442 49.9851 63.8442C49.4716 63.8442 49.0551 63.4249 49.0551 62.9073C49.0551 62.39 49.4716 61.9707 49.9851 61.9707ZM49.9851 56.0925C50.4987 56.0925 50.9152 56.5118 50.9152 57.0291C50.9152 57.5465 50.4987 57.966 49.9851 57.966C49.4716 57.966 49.0551 57.5465 49.0551 57.0291C49.0551 56.5118 49.4716 56.0925 49.9851 56.0925ZM49.9851 59.0316C50.4987 59.0316 50.9152 59.4509 50.9152 59.9682C50.9152 60.4856 50.4987 60.9051 49.9851 60.9051C49.4716 60.9051 49.0551 60.4856 49.0551 59.9682C49.0551 59.4509 49.4716 59.0316 49.9851 59.0316ZM68.7903 56.0925C68.2766 56.0925 67.8603 56.5118 67.8603 57.0291C67.8603 57.5465 68.2766 57.966 68.7903 57.966C69.3039 57.966 69.7202 57.5465 69.7202 57.0291C69.7202 56.5118 69.3039 56.0925 68.7903 56.0925ZM61.2681 59.0316C60.7543 59.0316 60.3381 59.4509 60.3381 59.9682C60.3381 60.4856 60.7543 60.9051 61.2681 60.9051C61.7817 60.9051 62.1979 60.4856 62.1979 59.9682C62.1979 59.4509 61.7817 59.0316 61.2681 59.0316ZM61.2681 56.0925C60.7543 56.0925 60.3381 56.5118 60.3381 57.0291C60.3381 57.5465 60.7543 57.966 61.2681 57.966C61.7817 57.966 62.1979 57.5465 62.1979 57.0291C62.1979 56.5118 61.7817 56.0925 61.2681 56.0925ZM57.5069 59.0316C56.9933 59.0316 56.5771 59.4509 56.5771 59.9682C56.5771 60.4856 56.9933 60.9051 57.5069 60.9051C58.0204 60.9051 58.4369 60.4856 58.4369 59.9682C58.4369 59.4509 58.0204 59.0316 57.5069 59.0316ZM57.5069 56.0925C56.9933 56.0925 56.5771 56.5118 56.5771 57.0291C56.5771 57.5465 56.9933 57.966 57.5069 57.966C58.0204 57.966 58.4369 57.5465 58.4369 57.0291C58.4369 56.5118 58.0204 56.0925 57.5069 56.0925ZM65.0293 56.0925C64.5158 56.0925 64.0995 56.5118 64.0995 57.0291C64.0995 57.5465 64.5158 57.966 65.0293 57.966C65.5429 57.966 65.9594 57.5465 65.9594 57.0291C65.9594 56.5118 65.5429 56.0925 65.0293 56.0925ZM31.1797 56.0925C31.6934 56.0925 32.1097 56.5118 32.1097 57.0291C32.1097 57.5465 31.6934 57.966 31.1797 57.966C30.6661 57.966 30.2498 57.5465 30.2498 57.0291C30.2498 56.5118 30.6661 56.0925 31.1797 56.0925ZM38.7019 59.0316C39.2157 59.0316 39.6319 59.4509 39.6319 59.9682C39.6319 60.4856 39.2157 60.9051 38.7019 60.9051C38.1883 60.9051 37.7721 60.4856 37.7721 59.9682C37.7721 59.4509 38.1883 59.0316 38.7019 59.0316ZM38.7019 56.0925C39.2157 56.0925 39.6319 56.5118 39.6319 57.0291C39.6319 57.5465 39.2157 57.966 38.7019 57.966C38.1883 57.966 37.7721 57.5465 37.7721 57.0291C37.7721 56.5118 38.1883 56.0925 38.7019 56.0925ZM46.2241 61.9707C46.7377 61.9707 47.1539 62.39 47.1539 62.9073C47.1539 63.4249 46.7377 63.8442 46.2241 63.8442C45.7103 63.8442 45.2941 63.4249 45.2941 62.9073C45.2941 62.39 45.7103 61.9707 46.2241 61.9707ZM46.2241 56.0925C46.7377 56.0925 47.1539 56.5118 47.1539 57.0291C47.1539 57.5465 46.7377 57.966 46.2241 57.966C45.7103 57.966 45.2941 57.5465 45.2941 57.0291C45.2941 56.5118 45.7103 56.0925 46.2241 56.0925ZM46.2241 59.0316C46.7377 59.0316 47.1539 59.4509 47.1539 59.9682C47.1539 60.4856 46.7377 60.9051 46.2241 60.9051C45.7103 60.9051 45.2941 60.4856 45.2941 59.9682C45.2941 59.4509 45.7103 59.0316 46.2241 59.0316ZM42.4631 59.0316C42.9767 59.0316 43.3929 59.4509 43.3929 59.9682C43.3929 60.4856 42.9767 60.9051 42.4631 60.9051C41.9496 60.9051 41.5331 60.4856 41.5331 59.9682C41.5331 59.4509 41.9496 59.0316 42.4631 59.0316ZM42.4631 56.0925C42.9767 56.0925 43.3929 56.5118 43.3929 57.0291C43.3929 57.5465 42.9767 57.966 42.4631 57.966C41.9496 57.966 41.5331 57.5465 41.5331 57.0291C41.5331 56.5118 41.9496 56.0925 42.4631 56.0925ZM34.9407 56.0925C35.4542 56.0925 35.8705 56.5118 35.8705 57.0291C35.8705 57.5465 35.4542 57.966 34.9407 57.966C34.4271 57.966 34.0106 57.5465 34.0106 57.0291C34.0106 56.5118 34.4271 56.0925 34.9407 56.0925ZM53.7461 61.9707C54.2597 61.9707 54.6762 62.39 54.6762 62.9073C54.6762 63.4249 54.2597 63.8442 53.7461 63.8442C53.2326 63.8442 52.8161 63.4249 52.8161 62.9073C52.8161 62.39 53.2326 61.9707 53.7461 61.9707ZM53.7461 56.0925C54.2597 56.0925 54.6762 56.5118 54.6762 57.0291C54.6762 57.5465 54.2597 57.966 53.7461 57.966C53.2326 57.966 52.8161 57.5465 52.8161 57.0291C52.8161 56.5118 53.2326 56.0925 53.7461 56.0925ZM53.7461 59.0316C54.2597 59.0316 54.6762 59.4509 54.6762 59.9682C54.6762 60.4856 54.2597 60.9051 53.7461 60.9051C53.2326 60.9051 52.8161 60.4856 52.8161 59.9682C52.8161 59.4509 53.2326 59.0316 53.7461 59.0316ZM31.1797 41.1216C31.6934 41.1216 32.1097 41.5409 32.1097 42.0582C32.1097 42.5758 31.6934 42.9951 31.1797 42.9951C30.6661 42.9951 30.2498 42.5758 30.2498 42.0582C30.2498 41.5409 30.6661 41.1216 31.1797 41.1216ZM31.1797 38.1825C31.6934 38.1825 32.1097 38.6018 32.1097 39.1191C32.1097 39.6365 31.6934 40.056 31.1797 40.056C30.6661 40.056 30.2498 39.6365 30.2498 39.1191C30.2498 38.6018 30.6661 38.1825 31.1797 38.1825ZM72.5518 41.1216C73.0653 41.1216 73.4816 41.5409 73.4816 42.0582C73.4816 42.5758 73.0653 42.9951 72.5518 42.9951C72.0382 42.9951 71.6217 42.5758 71.6217 42.0582C71.6217 41.5409 72.0382 41.1216 72.5518 41.1216ZM72.5518 38.1825C73.0653 38.1825 73.4816 38.6018 73.4816 39.1191C73.4816 39.6365 73.0653 40.056 72.5518 40.056C72.0382 40.056 71.6217 39.6365 71.6217 39.1191C71.6217 38.6018 72.0382 38.1825 72.5518 38.1825ZM68.7903 38.1825C69.3041 38.1825 69.7204 38.6018 69.7204 39.1191C69.7204 39.6365 69.3041 40.056 68.7903 40.056C68.2768 40.056 67.8605 39.6365 67.8605 39.1191C67.8605 38.6018 68.2768 38.1825 68.7903 38.1825ZM27.4187 38.1825C27.9324 38.1825 28.3487 38.6018 28.3487 39.1191C28.3487 39.6365 27.9324 40.056 27.4187 40.056C26.9051 40.056 26.4888 39.6365 26.4888 39.1191C26.4888 38.6018 26.9051 38.1825 27.4187 38.1825ZM65.0293 44.0607C65.5431 44.0607 65.9594 44.48 65.9594 44.9973C65.9594 45.5149 65.5431 45.9342 65.0293 45.9342C64.5158 45.9342 64.0995 45.5149 64.0995 44.9973C64.0995 44.48 64.5158 44.0607 65.0293 44.0607ZM65.0293 38.1825C65.5431 38.1825 65.9594 38.6018 65.9594 39.1191C65.9594 39.6365 65.5431 40.056 65.0293 40.056C64.5158 40.056 64.0995 39.6365 64.0995 39.1191C64.0995 38.6018 64.5158 38.1825 65.0293 38.1825ZM65.0293 41.1216C65.5431 41.1216 65.9594 41.5409 65.9594 42.0582C65.9594 42.5758 65.5431 42.9951 65.0293 42.9951C64.5158 42.9951 64.0995 42.5758 64.0995 42.0582C64.0995 41.5409 64.5158 41.1216 65.0293 41.1216ZM34.9407 44.0607C35.4544 44.0607 35.8707 44.48 35.8707 44.9973C35.8707 45.5149 35.4544 45.9342 34.9407 45.9342C34.4271 45.9342 34.0108 45.5149 34.0108 44.9973C34.0108 44.48 34.4271 44.0607 34.9407 44.0607ZM34.9407 38.1825C35.4544 38.1825 35.8707 38.6018 35.8707 39.1191C35.8707 39.6365 35.4544 40.056 34.9407 40.056C34.4271 40.056 34.0108 39.6365 34.0108 39.1191C34.0108 38.6018 34.4271 38.1825 34.9407 38.1825ZM34.9407 41.1216C35.4544 41.1216 35.8707 41.5409 35.8707 42.0582C35.8707 42.5758 35.4544 42.9951 34.9407 42.9951C34.4271 42.9951 34.0108 42.5758 34.0108 42.0582C34.0108 41.5409 34.4271 41.1216 34.9407 41.1216ZM61.2683 41.1216C61.7821 41.1216 62.1984 41.5409 62.1984 42.0582C62.1984 42.5758 61.7821 42.9951 61.2683 42.9951C60.7548 42.9951 60.3385 42.5758 60.3385 42.0582C60.3385 41.5409 60.7548 41.1216 61.2683 41.1216ZM61.2683 38.1825C61.7821 38.1825 62.1984 38.6018 62.1984 39.1191C62.1984 39.6365 61.7821 40.056 61.2683 40.056C60.7548 40.056 60.3385 39.6365 60.3385 39.1191C60.3385 38.6018 60.7548 38.1825 61.2683 38.1825ZM38.7019 41.1216C39.2154 41.1216 39.6317 41.5409 39.6317 42.0582C39.6317 42.5758 39.2154 42.9951 38.7019 42.9951C38.1881 42.9951 37.7718 42.5758 37.7718 42.0582C37.7718 41.5409 38.1881 41.1216 38.7019 41.1216ZM38.7019 38.1825C39.2154 38.1825 39.6317 38.6018 39.6317 39.1191C39.6317 39.6365 39.2154 40.056 38.7019 40.056C38.1881 40.056 37.7718 39.6365 37.7718 39.1191C37.7718 38.6018 38.1881 38.1825 38.7019 38.1825ZM57.5073 38.1825C58.0209 38.1825 58.4374 38.6018 58.4374 39.1191C58.4374 39.6365 58.0209 40.056 57.5073 40.056C56.9938 40.056 56.5775 39.6365 56.5775 39.1191C56.5775 38.6018 56.9938 38.1825 57.5073 38.1825ZM42.4631 38.1825C42.9767 38.1825 43.3929 38.6018 43.3929 39.1191C43.3929 39.6365 42.9767 40.056 42.4631 40.056C41.9496 40.056 41.5331 39.6365 41.5331 39.1191C41.5331 38.6018 41.9496 38.1825 42.4631 38.1825ZM53.7461 41.1216C54.2597 41.1216 54.6762 41.5409 54.6762 42.0582C54.6762 42.5758 54.2597 42.9951 53.7461 42.9951C53.2326 42.9951 52.8161 42.5758 52.8161 42.0582C52.8161 41.5409 53.2326 41.1216 53.7461 41.1216ZM53.7461 38.1825C54.2597 38.1825 54.6762 38.6018 54.6762 39.1191C54.6762 39.6365 54.2597 40.056 53.7461 40.056C53.2326 40.056 52.8161 39.6365 52.8161 39.1191C52.8161 38.6018 53.2326 38.1825 53.7461 38.1825ZM46.2241 41.1216C46.7377 41.1216 47.1539 41.5409 47.1539 42.0582C47.1539 42.5758 46.7377 42.9951 46.2241 42.9951C45.7106 42.9951 45.2941 42.5758 45.2941 42.0582C45.2941 41.5409 45.7106 41.1216 46.2241 41.1216ZM46.2241 38.1825C46.7377 38.1825 47.1539 38.6018 47.1539 39.1191C47.1539 39.6365 46.7377 40.056 46.2241 40.056C45.7106 40.056 45.2941 39.6365 45.2941 39.1191C45.2941 38.6018 45.7106 38.1825 46.2241 38.1825ZM49.9851 44.0607C50.4987 44.0607 50.9152 44.48 50.9152 44.9973C50.9152 45.5149 50.4987 45.9342 49.9851 45.9342C49.4716 45.9342 49.0551 45.5149 49.0551 44.9973C49.0551 44.48 49.4716 44.0607 49.9851 44.0607ZM49.9851 38.1825C50.4987 38.1825 50.9152 38.6018 50.9152 39.1191C50.9152 39.6365 50.4987 40.056 49.9851 40.056C49.4716 40.056 49.0551 39.6365 49.0551 39.1191C49.0551 38.6018 49.4716 38.1825 49.9851 38.1825ZM49.9851 41.1216C50.4987 41.1216 50.9152 41.5409 50.9152 42.0582C50.9152 42.5758 50.4987 42.9951 49.9851 42.9951C49.4716 42.9951 49.0551 42.5758 49.0551 42.0582C49.0551 41.5409 49.4716 41.1216 49.9851 41.1216ZM72.5518 26.0547C73.0653 26.0547 73.4816 26.474 73.4816 26.9913C73.4816 27.5087 73.0653 27.9282 72.5518 27.9282C72.0382 27.9282 71.6217 27.5087 71.6217 26.9913C71.6217 26.474 72.0382 26.0547 72.5518 26.0547ZM61.2683 26.0547C61.7821 26.0547 62.1984 26.474 62.1984 26.9913C62.1984 27.5087 61.7821 27.9282 61.2683 27.9282C60.7548 27.9282 60.3385 27.5087 60.3385 26.9913C60.3385 26.474 60.7548 26.0547 61.2683 26.0547ZM49.9851 26.0547C50.4987 26.0547 50.9152 26.474 50.9152 26.9913C50.9152 27.5087 50.4987 27.9282 49.9851 27.9282C49.4716 27.9282 49.0551 27.5087 49.0551 26.9913C49.0551 26.474 49.4716 26.0547 49.9851 26.0547ZM49.9851 20.1762C50.4987 20.1762 50.9152 20.5958 50.9152 21.1131C50.9152 21.6304 50.4987 22.0498 49.9851 22.0498C49.4716 22.0498 49.0551 21.6304 49.0551 21.1131C49.0551 20.5958 49.4716 20.1762 49.9851 20.1762ZM49.9851 23.1153C50.4987 23.1153 50.9152 23.5349 50.9152 24.0522C50.9152 24.5696 50.4987 24.9891 49.9851 24.9891C49.4716 24.9891 49.0551 24.5696 49.0551 24.0522C49.0551 23.5349 49.4716 23.1153 49.9851 23.1153ZM38.7019 26.0547C39.2154 26.0547 39.6317 26.474 39.6317 26.9913C39.6317 27.5087 39.2154 27.9282 38.7019 27.9282C38.1881 27.9282 37.7718 27.5087 37.7718 26.9913C37.7718 26.474 38.1881 26.0547 38.7019 26.0547ZM27.4187 26.0547C27.9324 26.0547 28.3487 26.474 28.3487 26.9913C28.3487 27.5087 27.9324 27.9282 27.4187 27.9282C26.9051 27.9282 26.4888 27.5087 26.4888 26.9913C26.4888 26.474 26.9051 26.0547 27.4187 26.0547ZM23.6574 23.1153C24.171 23.1153 24.5875 23.5349 24.5875 24.0522C24.5875 24.5696 24.171 24.9891 23.6574 24.9891C23.1439 24.9891 22.7274 24.5696 22.7274 24.0522C22.7274 23.5349 23.1439 23.1153 23.6574 23.1153ZM76.3128 23.1153C76.8263 23.1153 77.2426 23.5349 77.2426 24.0522C77.2426 24.5696 76.8263 24.9891 76.3128 24.9891C75.7992 24.9891 75.3827 24.5696 75.3827 24.0522C75.3827 23.5349 75.7992 23.1153 76.3128 23.1153ZM72.5518 23.1153C73.0653 23.1153 73.4816 23.5349 73.4816 24.0522C73.4816 24.5696 73.0653 24.9891 72.5518 24.9891C72.0382 24.9891 71.6217 24.5696 71.6217 24.0522C71.6217 23.5349 72.0382 23.1153 72.5518 23.1153ZM68.7903 23.1153C69.3041 23.1153 69.7204 23.5349 69.7204 24.0522C69.7204 24.5696 69.3041 24.9891 68.7903 24.9891C68.2768 24.9891 67.8605 24.5696 67.8605 24.0522C67.8605 23.5349 68.2768 23.1153 68.7903 23.1153ZM61.2683 23.1153C61.7821 23.1153 62.1984 23.5349 62.1984 24.0522C62.1984 24.5696 61.7821 24.9891 61.2683 24.9891C60.7548 24.9891 60.3385 24.5696 60.3385 24.0522C60.3385 23.5349 60.7548 23.1153 61.2683 23.1153ZM57.5073 23.1153C58.0209 23.1153 58.4374 23.5349 58.4374 24.0522C58.4374 24.5696 58.0209 24.9891 57.5073 24.9891C56.9938 24.9891 56.5775 24.5696 56.5775 24.0522C56.5775 23.5349 56.9938 23.1153 57.5073 23.1153ZM42.4631 23.1153C42.9767 23.1153 43.3929 23.5349 43.3929 24.0522C43.3929 24.5696 42.9767 24.9891 42.4631 24.9891C41.9496 24.9891 41.5331 24.5696 41.5331 24.0522C41.5331 23.5349 41.9496 23.1153 42.4631 23.1153ZM42.4631 20.1762C42.9767 20.1762 43.3929 20.5958 43.3929 21.1131C43.3929 21.6304 42.9767 22.0498 42.4631 22.0498C41.9496 22.0498 41.5331 21.6304 41.5331 21.1131C41.5331 20.5958 41.9496 20.1762 42.4631 20.1762ZM38.7019 23.1153C39.2154 23.1153 39.6317 23.5349 39.6317 24.0522C39.6317 24.5696 39.2154 24.9891 38.7019 24.9891C38.1881 24.9891 37.7718 24.5696 37.7718 24.0522C37.7718 23.5349 38.1881 23.1153 38.7019 23.1153ZM34.9407 23.1153C35.4544 23.1153 35.8707 23.5349 35.8707 24.0522C35.8707 24.5696 35.4544 24.9891 34.9407 24.9891C34.4271 24.9891 34.0108 24.5696 34.0108 24.0522C34.0108 23.5349 34.4271 23.1153 34.9407 23.1153ZM27.4187 23.1153C27.9324 23.1153 28.3487 23.5349 28.3487 24.0522C28.3487 24.5696 27.9324 24.9891 27.4187 24.9891C26.9051 24.9891 26.4888 24.5696 26.4888 24.0522C26.4888 23.5349 26.9051 23.1153 27.4187 23.1153ZM80.0738 20.1762C80.5873 20.1762 81.0036 20.5958 81.0036 21.1131C81.0036 21.6304 80.5873 22.0498 80.0738 22.0498C79.5602 22.0498 79.1437 21.6304 79.1437 21.1131C79.1437 20.5958 79.5602 20.1762 80.0738 20.1762ZM23.6574 20.1762C24.171 20.1762 24.5875 20.5958 24.5875 21.1131C24.5875 21.6304 24.171 22.0498 23.6574 22.0498C23.1439 22.0498 22.7274 21.6304 22.7274 21.1131C22.7274 20.5958 23.1439 20.1762 23.6574 20.1762ZM76.3128 20.1762C76.8263 20.1762 77.2426 20.5958 77.2426 21.1131C77.2426 21.6304 76.8263 22.0498 76.3128 22.0498C75.7992 22.0498 75.3827 21.6304 75.3827 21.1131C75.3827 20.5958 75.7992 20.1762 76.3128 20.1762ZM72.5518 20.1762C73.0653 20.1762 73.4816 20.5958 73.4816 21.1131C73.4816 21.6304 73.0653 22.0498 72.5518 22.0498C72.0382 22.0498 71.6217 21.6304 71.6217 21.1131C71.6217 20.5958 72.0382 20.1762 72.5518 20.1762ZM68.7903 20.1762C69.3041 20.1762 69.7204 20.5958 69.7204 21.1131C69.7204 21.6304 69.3041 22.0498 68.7903 22.0498C68.2768 22.0498 67.8605 21.6304 67.8605 21.1131C67.8605 20.5958 68.2768 20.1762 68.7903 20.1762ZM65.0293 20.1762C65.5431 20.1762 65.9594 20.5958 65.9594 21.1131C65.9594 21.6304 65.5431 22.0498 65.0293 22.0498C64.5158 22.0498 64.0995 21.6304 64.0995 21.1131C64.0995 20.5958 64.5158 20.1762 65.0293 20.1762ZM61.2683 20.1762C61.7821 20.1762 62.1984 20.5958 62.1984 21.1131C62.1984 21.6304 61.7821 22.0498 61.2683 22.0498C60.7548 22.0498 60.3385 21.6304 60.3385 21.1131C60.3385 20.5958 60.7548 20.1762 61.2683 20.1762ZM57.5073 20.1762C58.0209 20.1762 58.4374 20.5958 58.4374 21.1131C58.4374 21.6304 58.0209 22.0498 57.5073 22.0498C56.9938 22.0498 56.5775 21.6304 56.5775 21.1131C56.5775 20.5958 56.9938 20.1762 57.5073 20.1762ZM53.7461 20.1762C54.2597 20.1762 54.6762 20.5958 54.6762 21.1131C54.6762 21.6304 54.2597 22.0498 53.7461 22.0498C53.2326 22.0498 52.8161 21.6304 52.8161 21.1131C52.8161 20.5958 53.2326 20.1762 53.7461 20.1762ZM46.2241 20.1762C46.7377 20.1762 47.1539 20.5958 47.1539 21.1131C47.1539 21.6304 46.7377 22.0498 46.2241 22.0498C45.7106 22.0498 45.2941 21.6304 45.2941 21.1131C45.2941 20.5958 45.7106 20.1762 46.2241 20.1762ZM38.7019 20.1762C39.2154 20.1762 39.6317 20.5958 39.6317 21.1131C39.6317 21.6304 39.2154 22.0498 38.7019 22.0498C38.1881 22.0498 37.7718 21.6304 37.7718 21.1131C37.7718 20.5958 38.1881 20.1762 38.7019 20.1762ZM34.9407 20.1762C35.4544 20.1762 35.8707 20.5958 35.8707 21.1131C35.8707 21.6304 35.4544 22.0498 34.9407 22.0498C34.4271 22.0498 34.0108 21.6304 34.0108 21.1131C34.0108 20.5958 34.4271 20.1762 34.9407 20.1762ZM31.1797 20.1762C31.6934 20.1762 32.1097 20.5958 32.1097 21.1131C32.1097 21.6304 31.6934 22.0498 31.1797 22.0498C30.6661 22.0498 30.2498 21.6304 30.2498 21.1131C30.2498 20.5958 30.6661 20.1762 31.1797 20.1762ZM27.4187 20.1762C27.9324 20.1762 28.3487 20.5958 28.3487 21.1131C28.3487 21.6304 27.9324 22.0498 27.4187 22.0498C26.9051 22.0498 26.4888 21.6304 26.4888 21.1131C26.4888 20.5958 26.9051 20.1762 27.4187 20.1762ZM19.8964 20.1762C20.41 20.1762 20.8265 20.5958 20.8265 21.1131C20.8265 21.6304 20.41 22.0498 19.8964 22.0498C19.3829 22.0498 18.9664 21.6304 18.9664 21.1131C18.9664 20.5958 19.3829 20.1762 19.8964 20.1762ZM69.5624 48.6956V54.4987C69.5624 54.928 69.2165 55.2765 68.7903 55.2765C68.3641 55.2765 68.0182 54.928 68.0182 54.4987V48.6956H65.8014V54.4987C65.8014 54.928 65.4555 55.2765 65.0293 55.2765C64.6031 55.2765 64.2572 54.928 64.2572 54.4987V48.6956H62.0404V54.4987C62.0404 54.928 61.6945 55.2765 61.2683 55.2765C60.8421 55.2765 60.4962 54.928 60.4962 54.4987V48.6956H58.2794V54.4987C58.2794 54.928 57.9335 55.2765 57.5073 55.2765C57.0811 55.2765 56.7352 54.928 56.7352 54.4987V48.6956H54.5182V54.4987C54.5182 54.928 54.1723 55.2765 53.7461 55.2765C53.3199 55.2765 52.974 54.928 52.974 54.4987V48.6956H50.7572V54.4987C50.7572 54.928 50.4113 55.2765 49.9851 55.2765C49.5589 55.2765 49.213 54.928 49.213 54.4987V48.6956H46.9962V54.4987C46.9962 54.928 46.6503 55.2765 46.2241 55.2765C45.7979 55.2765 45.452 54.928 45.452 54.4987V48.6956H43.2352V54.4987C43.2352 54.928 42.8893 55.2765 42.4631 55.2765C42.0369 55.2765 41.691 54.928 41.691 54.4987V48.6956H39.474V54.4987C39.474 54.928 39.1281 55.2765 38.7019 55.2765C38.2757 55.2765 37.9298 54.928 37.9298 54.4987V48.6956H35.7128V54.4987C35.7128 54.928 35.3669 55.2765 34.9407 55.2765C34.5145 55.2765 34.1686 54.928 34.1686 54.4987V48.6956H31.9518V54.4987C31.9518 54.928 31.6059 55.2765 31.1797 55.2765C30.7535 55.2765 30.4076 54.928 30.4076 54.4987V48.6956H30.0573C29.6311 48.6956 29.2852 48.3471 29.2852 47.9178C29.2852 47.4885 29.6311 47.14 30.0573 47.14H31.1797H34.9407H38.7019H42.4631H46.2241H49.9851H53.7461H57.5073H61.2683H65.0293H68.7903H71.2189C71.6451 47.14 71.991 47.4885 71.991 47.9178C71.991 48.3471 71.6451 48.6956 71.2189 48.6956H69.5624ZM28.1908 30.7591V36.5622C28.1908 36.9916 27.8449 37.34 27.4187 37.34C26.9925 37.34 26.6466 36.9916 26.6466 36.5622V30.7591H23.4146C22.9884 30.7591 22.6425 30.4107 22.6425 29.9813C22.6425 29.552 22.9884 29.2036 23.4146 29.2036H27.4187H31.1797H34.9407H38.7019H42.4631H46.2241H49.9851H53.7461H57.5073H61.2683H65.0293H68.7903H72.5518H75.5771C76.0033 29.2036 76.3492 29.552 76.3492 29.9813C76.3492 30.4107 76.0033 30.7591 75.5771 30.7591H73.3239V36.5622C73.3239 36.9916 72.978 37.34 72.5518 37.34C72.1256 37.34 71.7797 36.9916 71.7797 36.5622V30.7591H69.5624V36.5622C69.5624 36.9916 69.2165 37.34 68.7903 37.34C68.3641 37.34 68.0182 36.9916 68.0182 36.5622V30.7591H65.8014V36.5622C65.8014 36.9916 65.4555 37.34 65.0293 37.34C64.6031 37.34 64.2572 36.9916 64.2572 36.5622V30.7591H62.0404V36.5622C62.0404 36.9916 61.6945 37.34 61.2683 37.34C60.8421 37.34 60.4962 36.9916 60.4962 36.5622V30.7591H58.2794V36.5622C58.2794 36.9916 57.9335 37.34 57.5073 37.34C57.0811 37.34 56.7352 36.9916 56.7352 36.5622V30.7591H54.5182V36.5622C54.5182 36.9916 54.1723 37.34 53.7461 37.34C53.3199 37.34 52.974 36.9916 52.974 36.5622V30.7591H50.7572V36.5622C50.7572 36.9916 50.4113 37.34 49.9851 37.34C49.5589 37.34 49.213 36.9916 49.213 36.5622V30.7591H46.9962V36.5622C46.9962 36.9916 46.6503 37.34 46.2241 37.34C45.7979 37.34 45.452 36.9916 45.452 36.5622V30.7591H43.2352V36.5622C43.2352 36.9916 42.8893 37.34 42.4631 37.34C42.0369 37.34 41.691 36.9916 41.691 36.5622V30.7591H39.474V36.5622C39.474 36.9916 39.1281 37.34 38.7019 37.34C38.2757 37.34 37.9298 36.9916 37.9298 36.5622V30.7591H35.7128V36.5622C35.7128 36.9916 35.3669 37.34 34.9407 37.34C34.5145 37.34 34.1686 36.9916 34.1686 36.5622V30.7591H31.9518V36.5622C31.9518 36.9916 31.6059 37.34 31.1797 37.34C30.7535 37.34 30.4076 36.9916 30.4076 36.5622V30.7591H28.1908ZM82.4256 8.04445H17.5442V11.1753H19.8964H23.6574H27.4187H31.1797H34.9409H38.7019H42.4629H46.2241H49.9851H53.7461H57.5073H61.2683H65.0295H68.7906H72.5516H76.3128H80.0738H82.4256V8.04445Z" fill="#222222"/>
</svg>
