<svg width="100" height="72" viewBox="0 0 100 72" fill="none" xmlns="http://www.w3.org/2000/svg">
<path fill-rule="evenodd" clip-rule="evenodd" d="M41.3143 32.641C40.7173 32.641 40.2331 33.125 40.2331 33.7226C40.2331 34.3197 40.7173 34.8039 41.3143 34.8039C41.9114 34.8039 42.3954 34.3197 42.3954 33.7226C42.3954 33.125 41.9114 32.641 41.3143 32.641ZM49.6873 37.443C50.1167 37.443 50.4652 37.7916 50.4652 38.2211C50.4652 38.6506 50.1167 38.9992 49.6873 38.9992C49.1402 38.9992 48.6177 39.4607 48.1626 40.0961C47.3401 41.2441 46.791 42.8817 46.5621 43.8161L46.1581 45.4638C46.0576 45.88 45.6383 46.1359 45.2222 46.0354C44.8062 45.9349 44.5504 45.5154 44.6509 45.0993L45.0549 43.4515C45.3149 42.3904 45.944 40.5225 46.8985 39.1904C47.6239 38.178 48.5488 37.443 49.6873 37.443ZM59.1952 52.3947C56.2577 53.1826 52.9777 53.6256 49.7016 53.6256C46.6476 53.6256 43.5824 53.239 40.7838 52.3862C40.3887 52.2664 40.1593 51.8591 40.2555 51.4625L42.2199 43.4486C42.779 41.1672 43.7453 38.8598 45.1884 37.2274C46.2676 36.0073 47.6035 35.1594 49.224 34.9531V23.1825C47.5355 24.7607 45.0991 24.3265 42.4116 23.8474C39.2259 23.2792 35.6217 22.6372 32.9052 26.1844C33.317 26.7886 33.5232 27.4909 33.5232 28.1921C33.5232 29.1049 33.1738 30.0191 32.4763 30.7171L32.1911 31.0028C32.2765 31.5495 32.2969 32.1137 32.2618 32.6879C32.1289 34.8611 31.1806 37.1758 29.9628 39.1855L25.8573 45.9618C25.7915 46.1243 25.6979 46.268 25.5752 46.3907C24.8499 47.1163 23.3974 46.8266 21.6366 45.7717C20.1414 44.8763 18.3178 43.423 16.5208 41.6254C14.7238 39.8278 13.2711 38.0035 12.3759 36.5077C11.3307 34.7621 11.0372 33.3193 11.7381 32.5872L11.7432 32.5819L11.7572 32.5677V32.5674L11.7814 32.5443L11.7845 32.5414L11.7877 32.5385L11.7908 32.5359L11.7919 32.5345L11.7939 32.533C11.9068 32.4294 12.0354 32.3489 12.1788 32.2898L18.9598 28.1785C20.9688 26.9603 23.2827 26.0117 25.4552 25.8787C26.0286 25.8436 26.5917 25.8643 27.1373 25.9492L27.4222 25.6642C28.12 24.9661 29.035 24.6169 29.9492 24.6169C30.5784 24.6169 31.2075 24.7823 31.7664 25.1126C35.011 20.9487 39.0795 21.6737 42.6788 22.3157C45.2713 22.7779 47.5746 23.1883 48.81 21.1216H39.0675V15.5013H39.8453H60.937V21.1216H51.1945C52.4299 23.1883 54.7332 22.7779 57.3257 22.3157C60.925 21.6737 64.9935 20.9487 68.2381 25.1126C68.797 24.7823 69.4261 24.6169 70.0553 24.6169C70.9695 24.6169 71.8845 24.9661 72.5823 25.6642L72.8672 25.9492C73.4128 25.8643 73.9759 25.8436 74.5493 25.8787C76.7218 26.0117 79.0357 26.9603 81.0447 28.1785L87.8324 32.2938C87.9548 32.3451 88.0662 32.4125 88.166 32.4965L88.1691 32.499L88.1693 32.4992C88.1962 32.5197 88.2224 32.5425 88.2473 32.5674C88.2697 32.5899 88.2906 32.6135 88.3097 32.6379L88.3109 32.6393L88.3129 32.6419C88.9529 33.3878 88.6489 34.8035 87.6286 36.5077C86.7334 38.0035 85.2807 39.8278 83.4837 41.6254C81.6867 43.423 79.8631 44.8763 78.3679 45.7717C76.6071 46.8266 75.1546 47.1163 74.4293 46.3907C74.3066 46.268 74.213 46.1243 74.1472 45.9618L70.0417 39.1855C68.8239 37.1758 67.8756 34.8611 67.7427 32.6879C67.7076 32.1137 67.728 31.5495 67.8134 31.0028L67.5282 30.7171C66.8307 30.0191 66.4813 29.1049 66.4813 28.1921C66.4813 27.4909 66.6875 26.7886 67.0993 26.1844C64.3828 22.6372 60.7786 23.2792 57.5929 23.8474C54.9049 24.3265 52.4682 24.7609 50.7796 23.1818V34.9531C52.4002 35.1594 53.7362 36.0073 54.8152 37.2274C56.2583 38.8598 57.2246 41.1672 57.7838 43.4486L59.7485 51.4623C59.8474 51.8725 59.6003 52.286 59.1952 52.3947ZM49.7016 52.0694C52.5739 52.0694 55.4436 51.716 58.0587 51.0815L56.2766 43.8132C55.7703 41.7474 54.9136 39.679 53.6547 38.2549C52.6915 37.1656 51.4814 36.4604 50.0018 36.4604C48.522 36.4604 47.3121 37.1658 46.349 38.2549C45.09 39.679 44.2333 41.7474 43.727 43.8132L41.9392 51.1057C44.3833 51.7673 47.0385 52.0694 49.7016 52.0694ZM59.3814 17.0575H40.6231V19.5655H59.3814V17.0575ZM79.1928 37.333L79.1991 37.3296C80.9983 35.5302 82.8199 34.0778 84.31 33.1857C84.6831 32.9623 85.0427 32.7733 85.3843 32.621L80.2424 29.5035C78.4252 28.4015 76.3569 27.5449 74.4582 27.4287C73.0056 27.3398 71.6509 27.6963 70.6053 28.7423C69.5597 29.7883 69.2032 31.1438 69.2921 32.5968C69.4083 34.4962 70.2646 36.5651 71.3662 38.3829L74.4824 43.5264C74.6346 43.1847 74.8237 42.8252 75.0471 42.4519C75.9391 40.9616 77.3907 39.139 79.1895 37.3392L79.1928 37.333ZM80.2944 38.4283L80.2891 38.4363C78.5777 40.1463 77.2083 41.8608 76.3778 43.2483C75.7091 44.3656 75.3733 45.135 75.5289 45.2907C75.6844 45.4463 76.4543 45.1101 77.5719 44.4405C78.9555 43.6118 80.6694 42.2407 82.3841 40.5254C84.0989 38.81 85.4694 37.0955 86.2979 35.7114C86.967 34.5934 87.3032 33.8233 87.1477 33.6677V33.6648C86.9935 33.5103 86.2241 33.8475 85.106 34.5169C83.7191 35.3475 82.0052 36.7176 80.2944 38.4283ZM72.6223 30.3152C72.3187 30.6189 71.8258 30.6189 71.5222 30.3152C71.2187 30.0115 71.2187 29.5184 71.5222 29.2147C72.3258 28.4109 73.4988 28.2764 74.7271 28.4789C76.3465 28.7459 78.1099 29.6209 79.0422 30.186L80.4925 31.0653C80.858 31.2867 80.9749 31.7633 80.7536 32.129C80.5322 32.4948 80.0558 32.6117 79.6902 32.3903L78.2399 31.511C77.4159 31.0117 75.8682 30.2398 74.4777 30.0106C73.7061 29.8835 73.0101 29.9273 72.6223 30.3152ZM69.4728 27.6748L69.5052 27.6419L69.5381 27.6094L70.8229 26.3242C70.5775 26.2235 70.3164 26.173 70.0553 26.173C69.5386 26.173 69.0217 26.3702 68.6279 26.7642C68.2338 27.1568 68.0369 27.6741 68.0369 28.1921C68.0369 28.4538 68.0872 28.7152 68.1874 28.9606L69.4728 27.6748ZM52.3953 30.2172C52.9922 30.2172 53.4764 30.7011 53.4764 31.2987C53.4764 31.8958 52.9922 32.38 52.3953 32.38C51.7981 32.38 51.3141 31.8958 51.3141 31.2987C51.3141 30.7011 51.7981 30.2172 52.3953 30.2172ZM65.233 29.9848C65.8299 29.9848 66.3142 30.4688 66.3142 31.0664C66.3142 31.6635 65.8299 32.1477 65.233 32.1477C64.6359 32.1477 64.1519 31.6635 64.1519 31.0664C64.1519 30.4688 64.6359 29.9848 65.233 29.9848ZM55.4761 32.0764C56.073 32.0764 56.5572 32.5603 56.5572 33.1579C56.5572 33.755 56.073 34.2392 55.4761 34.2392C54.8789 34.2392 54.3949 33.755 54.3949 33.1579C54.3949 32.5603 54.8789 32.0764 55.4761 32.0764ZM62.3678 31.8932C62.9647 31.8932 63.4489 32.3771 63.4489 32.9747C63.4489 33.5719 62.9647 34.0561 62.3678 34.0561C61.7706 34.0561 61.2866 33.5719 61.2866 32.9747C61.2866 32.3771 61.7706 31.8932 62.3678 31.8932ZM58.6902 32.641C59.2872 32.641 59.7714 33.125 59.7714 33.7226C59.7714 34.3197 59.2872 34.8039 58.6902 34.8039C58.0931 34.8039 57.6091 34.3197 57.6091 33.7226C57.6091 33.125 58.0931 32.641 58.6902 32.641ZM19.7121 38.433L19.7087 38.4296C17.9993 36.7176 16.2854 35.3475 14.8985 34.5169C13.7804 33.8475 13.011 33.5103 12.8568 33.6648V33.6677C12.7013 33.8233 13.0375 34.5934 13.7066 35.7114C14.5351 37.0955 15.9056 38.81 17.6204 40.5254C19.3351 42.2407 21.049 43.6118 22.4326 44.4405C23.5502 45.1101 24.3201 45.4463 24.4756 45.2907C24.6312 45.135 24.2954 44.3656 23.6267 43.2483C22.7962 41.8608 21.4268 40.1463 19.7167 38.435L19.7121 38.433ZM20.8083 37.3296C20.8117 37.333 20.815 37.3347 20.815 37.3392C22.6138 39.139 24.0654 40.9616 24.9574 42.4519C25.1808 42.8252 25.3699 43.1847 25.5221 43.5264L28.6383 38.3829C29.7399 36.5651 30.5962 34.4962 30.7124 32.5968C30.8013 31.1438 30.4448 29.7883 29.3992 28.7423C28.3536 27.6963 26.9989 27.3398 25.5463 27.4287C23.6476 27.5449 21.5793 28.4015 19.7621 29.5035L14.6202 32.621C14.9618 32.7733 15.3214 32.9623 15.6945 33.1857C17.1846 34.0778 19.0062 35.5302 20.8054 37.3296H20.8083ZM28.4823 29.2147C28.7858 29.5184 28.7858 30.0115 28.4823 30.3152C28.1787 30.6189 27.6858 30.6189 27.3822 30.3152C26.9944 29.9273 26.2984 29.8835 25.5268 30.0106C24.1363 30.2398 22.5886 31.0117 21.7646 31.511L20.3143 32.3903C19.9487 32.6117 19.4723 32.4948 19.2509 32.129C19.0296 31.7633 19.1465 31.2867 19.512 31.0653L20.9623 30.186C21.8946 29.6209 23.658 28.7459 25.2774 28.4789C26.5057 28.2764 27.6787 28.4109 28.4823 29.2147ZM30.4664 27.6094L30.4993 27.6419L30.5317 27.6748L31.8171 28.9606C31.9173 28.7152 31.9676 28.4538 31.9676 28.1921C31.9676 27.6741 31.7707 27.1568 31.378 26.7628C30.9828 26.3702 30.4659 26.173 29.9492 26.173C29.6881 26.173 29.427 26.2235 29.1816 26.3242L30.4664 27.6094ZM47.6092 30.2172C47.0123 30.2172 46.5281 30.7011 46.5281 31.2987C46.5281 31.8958 47.0123 32.38 47.6092 32.38C48.2064 32.38 48.6904 31.8958 48.6904 31.2987C48.6904 30.7011 48.2064 30.2172 47.6092 30.2172ZM34.7715 29.9848C34.1746 29.9848 33.6903 30.4688 33.6903 31.0664C33.6903 31.6635 34.1746 32.1477 34.7715 32.1477C35.3686 32.1477 35.8526 31.6635 35.8526 31.0664C35.8526 30.4688 35.3686 29.9848 34.7715 29.9848ZM44.5284 32.0764C43.9315 32.0764 43.4473 32.5603 43.4473 33.1579C43.4473 33.755 43.9315 34.2392 44.5284 34.2392C45.1256 34.2392 45.6096 33.755 45.6096 33.1579C45.6096 32.5603 45.1256 32.0764 44.5284 32.0764ZM37.6367 31.8932C37.0398 31.8932 36.5556 32.3771 36.5556 32.9747C36.5556 33.5719 37.0398 34.0561 37.6367 34.0561C38.2339 34.0561 38.7179 33.5719 38.7179 32.9747C38.7179 32.3771 38.2339 31.8932 37.6367 31.8932Z" fill="#222222"/>
</svg>
