<svg width="100" height="72" viewBox="0 0 100 72" fill="none" xmlns="http://www.w3.org/2000/svg">
<path d="M22.2375 39.1933V44.6087L48.7041 59.8893C48.6808 59.7309 48.6688 59.5691 48.6688 59.4044V55.9378C48.6688 55.0196 49.0441 54.1849 49.6484 53.5807C50.0766 53.1524 50.6204 52.8393 51.2277 52.6931V47.5184H41.0968L46.4239 29.334H51.2277V18.0176C49.7957 17.84 48.5068 17.1784 47.5312 16.2031C46.5552 15.2298 45.8944 13.9407 45.7168 12.5069H41.0712V6.88889H41.849H62.9397V12.5069H58.2937C58.1161 13.9407 57.4555 15.23 56.4808 16.2047C55.5039 17.1787 54.215 17.84 52.7832 18.0176V29.334H57.5866L62.9139 47.5184H61.8788H52.7832V52.6931C53.3908 52.8393 53.9346 53.1524 54.3628 53.5807C54.967 54.1849 55.3424 55.0196 55.3424 55.9378V59.4044C55.3424 59.5662 55.3308 59.7253 55.3081 59.8813L81.7612 44.6087V39.1933H71.6306L76.9577 21.0089H88.1206L93.4479 39.1933H92.4128H83.3168V45.4987V50.434C83.3168 50.8633 82.9684 51.2118 82.539 51.2118C82.1097 51.2118 81.7612 50.8633 81.7612 50.434V46.3967L54.1284 62.3509C54.3786 62.7431 54.5239 63.2071 54.5239 63.7038C54.5239 64.3989 54.2417 65.0287 53.7861 65.4842C53.3306 65.9398 52.7008 66.222 52.0057 66.222C51.3106 66.222 50.6808 65.9398 50.2252 65.4842C49.7697 65.0287 49.4875 64.3989 49.4875 63.7038C49.4875 63.208 49.631 62.7453 49.8788 62.3556L22.2375 46.3967V50.434C22.2375 50.8633 21.889 51.2118 21.4597 51.2118C21.0304 51.2118 20.6819 50.8633 20.6819 50.434V45.4987V39.1933H10.551L15.8781 21.0089H27.041L32.3684 39.1933H31.333H22.2375ZM49.0628 32.1816C49.1819 31.7704 49.6119 31.5338 50.023 31.6529C50.4341 31.772 50.6708 32.202 50.5517 32.6131L47.0195 44.6709C46.9004 45.082 46.4704 45.3187 46.0592 45.1996C45.6481 45.0804 45.4115 44.6504 45.5306 44.2393L49.0628 32.1816ZM43.1672 45.9629H60.8435L56.4275 30.8896H47.583L43.1672 45.9629ZM52.0181 62.7411H52.0057H51.9932C51.7321 62.7444 51.4959 62.8518 51.3248 63.0229C51.151 63.1967 51.043 63.4378 51.043 63.7038C51.043 63.9698 51.151 64.2109 51.3248 64.3847C51.4986 64.5584 51.7397 64.6664 52.0057 64.6664C52.2717 64.6664 52.5128 64.5584 52.6866 64.3847C52.8604 64.2109 52.9684 63.9698 52.9684 63.7038C52.9684 63.4358 52.8617 63.1949 52.6895 63.0229H52.6866C52.5155 62.8518 52.2792 62.7444 52.0181 62.7411ZM52.0057 54.1567C51.5164 54.1567 51.0708 54.3573 50.7479 54.6802C50.425 55.0031 50.2244 55.4487 50.2244 55.9378V59.4044C50.2244 59.8936 50.425 60.3391 50.7479 60.662C51.0708 60.9849 51.5164 61.1856 52.0055 61.1856H52.0057C52.495 61.1856 52.9404 60.9849 53.2632 60.662C53.5861 60.3391 53.7868 59.8936 53.7868 59.4044V55.9378C53.7868 55.4487 53.5861 55.0031 53.2632 54.6802C52.9404 54.3573 52.4948 54.1567 52.0057 54.1567ZM55.3812 15.1051C56.0732 14.4131 56.5559 13.5113 56.7224 12.5069H47.2881C47.4546 13.5113 47.9372 14.4131 48.6292 15.1051V15.108C49.4939 15.9729 50.689 16.51 52.005 16.51C53.3215 16.51 54.5166 15.9729 55.3812 15.108V15.1051ZM61.3841 8.44444H42.6268V10.9513H45.6688H58.3417H61.3841V8.44444ZM79.5968 23.8564C79.7159 23.4453 80.1459 23.2087 80.557 23.3278C80.9681 23.4469 81.2048 23.8769 81.0857 24.288L77.5535 36.3458C77.4344 36.7569 77.0044 36.9936 76.5932 36.8744C76.1821 36.7553 75.9455 36.3253 76.0646 35.9142L79.5968 23.8564ZM73.7012 37.6378H82.539H91.3775L86.9615 22.5644H78.117L73.7012 37.6378ZM18.517 23.8564C18.6361 23.4453 19.0661 23.2087 19.4772 23.3278C19.8884 23.4469 20.125 23.8769 20.0059 24.288L16.4737 36.3458C16.3546 36.7569 15.9246 36.9936 15.5135 36.8744C15.1024 36.7553 14.8657 36.3253 14.9848 35.9142L18.517 23.8564ZM12.6215 37.6378H21.4597H30.2977L25.8817 22.5644H17.0372L12.6215 37.6378Z" fill="#222222"/>
</svg>
