<svg width="22" height="18" viewBox="0 0 22 18" fill="none" xmlns="http://www.w3.org/2000/svg">
<path d="M1.82494 5.8248L4.99774 2.652V16.8C4.99774 16.9591 5.06095 17.1117 5.17347 17.2243C5.286 17.3368 5.43861 17.4 5.59774 17.4C5.75687 17.4 5.90948 17.3368 6.022 17.2243C6.13452 17.1117 6.19774 16.9591 6.19774 16.8V2.646L9.37654 5.826C9.4892 5.9385 9.64194 6.00164 9.80116 6.00153C9.96038 6.00142 10.113 5.93806 10.2255 5.8254C10.338 5.71273 10.4012 5.55999 10.4011 5.40077C10.401 5.24156 10.3376 5.0889 10.2249 4.9764L6.03694 0.788399L6.02494 0.776399C5.96921 0.7205 5.90301 0.676145 5.83011 0.645875C5.75722 0.615605 5.67907 0.600015 5.60014 0.599998H5.59774C5.51008 0.599978 5.42348 0.619205 5.34407 0.656321C5.26465 0.693437 5.19435 0.747536 5.13814 0.814798L0.975338 4.9764C0.919632 5.03218 0.875458 5.0984 0.84534 5.17125C0.815222 5.24411 0.799749 5.32219 0.799805 5.40102C0.799861 5.47986 0.815444 5.55791 0.845665 5.63073C0.875886 5.70354 0.920153 5.76969 0.975938 5.8254C1.03172 5.88111 1.09794 5.92528 1.17079 5.9554C1.24365 5.98552 1.32173 6.00099 1.40056 6.00093C1.4794 6.00088 1.55745 5.98529 1.63027 5.95507C1.70308 5.92485 1.76923 5.88058 1.82494 5.8248ZM20.1765 12.1752L17.0037 15.348V1.2C17.0037 1.04087 16.9405 0.888256 16.828 0.775735C16.7155 0.663213 16.5629 0.599998 16.4037 0.599998C16.2446 0.599998 16.092 0.663213 15.9795 0.775735C15.867 0.888256 15.8037 1.04087 15.8037 1.2V15.354L12.6237 12.174C12.568 12.1183 12.5017 12.0741 12.4289 12.044C12.356 12.0139 12.278 11.9984 12.1991 11.9985C12.0399 11.9986 11.8872 12.0619 11.7747 12.1746C11.6622 12.2873 11.5991 12.44 11.5992 12.5992C11.5993 12.7584 11.6627 12.9111 11.7753 13.0236L15.9633 17.2116L15.9753 17.2236C16.0313 17.2795 16.0977 17.3239 16.1708 17.3542C16.2439 17.3844 16.3222 17.4 16.4013 17.4H16.4037C16.4914 17.3999 16.578 17.3807 16.6574 17.3436C16.7368 17.3065 16.8071 17.2524 16.8633 17.1852L21.0249 13.0236C21.0822 12.9683 21.128 12.902 21.1594 12.8288C21.1908 12.7556 21.2074 12.6769 21.2081 12.5972C21.2088 12.5176 21.1936 12.4386 21.1634 12.3648C21.1333 12.2911 21.0887 12.2241 21.0324 12.1678C20.976 12.1114 20.909 12.0669 20.8353 12.0367C20.7616 12.0065 20.6826 11.9914 20.6029 11.992C20.5232 11.9927 20.4445 12.0093 20.3713 12.0407C20.2981 12.0722 20.2319 12.1179 20.1765 12.1752Z" fill="#222222"/>
</svg>
