<svg width="12" height="7" viewBox="0 0 12 7" fill="none" xmlns="http://www.w3.org/2000/svg">
<path d="M0.999989 0.500026C1.1947 0.499646 1.38339 0.567458 1.53332 0.691693L5.99999 4.42503L10.475 0.825026C10.5602 0.755804 10.6583 0.704111 10.7636 0.672918C10.8689 0.641725 10.9793 0.631647 11.0885 0.643262C11.1977 0.654879 11.3035 0.687959 11.3998 0.740604C11.4962 0.793249 11.5812 0.86442 11.65 0.950026C11.7192 1.03527 11.7709 1.13335 11.8021 1.23863C11.8333 1.34391 11.8434 1.45432 11.8317 1.56351C11.8201 1.6727 11.7871 1.77852 11.7344 1.87488C11.6818 1.97125 11.6106 2.05626 11.525 2.12503L6.52499 6.15003C6.37588 6.27259 6.18884 6.3396 5.99582 6.3396C5.8028 6.3396 5.61577 6.27259 5.46665 6.15003L0.466656 1.98336C0.382274 1.9134 0.312522 1.82749 0.261395 1.73053C0.210269 1.63357 0.178771 1.52748 0.168707 1.41834C0.158644 1.30919 0.170213 1.19913 0.202751 1.09446C0.235287 0.989789 0.288153 0.892567 0.358322 0.80836C0.435867 0.712765 0.533626 0.635537 0.644574 0.582224C0.75552 0.528912 0.8769 0.50084 0.999989 0.500026Z" fill="#222222"/>
</svg>
